<?xml version="1.0" encoding="utf-8"?>
<!-- Generator: Adobe Illustrator 27.3.1, SVG Export Plug-In . SVG Version: 6.00 Build 0)  -->
<svg version="1.1" xmlns="http://www.w3.org/2000/svg" xmlns:xlink="http://www.w3.org/1999/xlink" x="0px" y="0px"
	 viewBox="0 0 500 500" style="enable-background:new 0 0 500 500;" xml:space="preserve">
<style type="text/css">
	.st0{fill:#FFE6DE;}
	.st1{fill:#FFFFFF;}
	.st2{fill:#421B36;}
	.st3{fill:#8380FF;}
	.st4{fill:#A0D2F4;}
	.st5{fill:#FFAE7A;}
	.st6{opacity:0.3;}
	.st7{opacity:0.2;}
	.st8{fill:none;stroke:#8380FF;stroke-miterlimit:10;}
</style>
<g id="Background_Simple">
	<g>
		<g>
			<g>
				<g>
					<path class="st0" d="M445.3,149.34c-0.51,76.68,4.17,161.04-63.61,181.51c-0.72,0.22-1.44,0.49-2.2,0.64
						c-12.15,2.4-26.91,3.26-45.32,3.58c-0.76,0.01-1.54-0.07-2.29-0.04l-139.56,2.77c-0.46,0.02,0.46-0.01,0,0
						C55.84,339.43,58.21,300.97,45.65,232.18c-4.9-26.77-6.79-53.53-7.87-74.45c-1.63-31.75-0.87-74.58,16.43-99.61
						c9.1-13.17,22.85-21.33,37.06-25.65c14.2-4.32,29.02-5.14,43.7-6c78.75-4.68,157.28-5.88,235.94,0.25
						c22.04,1.73,48.67,8.49,59.45,30.5C437.61,72.05,445.56,109.62,445.3,149.34z"/>
				</g>
			</g>
			<g>
				<g>
					<g>
						<rect x="342.81" y="58.41" class="st1" width="62.83" height="82.87"/>
					</g>
				</g>
				<g>
					<g>
						<rect x="346.78" y="62.23" class="st0" width="54.52" height="74.9"/>
					</g>
				</g>
				<g>
					<g>
						<rect x="360.82" y="77.29" class="st1" width="28.52" height="26.71"/>
					</g>
				</g>
				<g>
					<g>
						<g>
							<path class="st0" d="M342.47,58.47c0.59,0.8,1.26,1.54,1.97,2.23c0.7,0.68,1.42,1.56,2.31,1.98
								c0.64,0.31,1.43-0.34,1.02-1.02c-0.51-0.85-1.42-1.47-2.17-2.11c-0.76-0.65-1.57-1.26-2.42-1.77
								C342.76,57.52,342.16,58.04,342.47,58.47L342.47,58.47z"/>
						</g>
					</g>
				</g>
				<g>
					<g>
						<g>
							<path class="st0" d="M401.25,62.83c1.4-1.21,2.91-2.24,4.43-3.29c0.92-0.63,0.08-2.12-0.88-1.51
								c-1.66,1.06-3.12,2.46-4.4,3.95C399.9,62.57,400.67,63.34,401.25,62.83L401.25,62.83z"/>
						</g>
					</g>
				</g>
				<g>
					<g>
						<g>
							<path class="st0" d="M343.47,141.94c1.48-1.36,2.81-2.86,4.26-4.25c0.97-0.93-0.53-2.43-1.47-1.47
								c-1.47,1.48-2.84,3.09-3.74,4.98C342.22,141.81,342.94,142.42,343.47,141.94L343.47,141.94z"/>
						</g>
					</g>
				</g>
				<g>
					<g>
						<g>
							<path class="st0" d="M400.96,137.89c1.79,0.97,3.31,2.44,5.17,3.29c0.66,0.3,1.67-0.39,1.12-1.12
								c-1.42-1.93-3.58-2.7-5.75-3.45C400.74,136.35,400.26,137.51,400.96,137.89L400.96,137.89z"/>
						</g>
					</g>
				</g>
				<g>
					<g>
						<g>
							<path class="st0" d="M373.46,76.98c-3.92,1.95-13.14,7.02-13.52,12.15c-0.27,3.69,3.57,3.48,5.99,2.61
								c4.51-1.63,8.73-3.59,13.4-4.75c1.69-0.42,7.99-3.06,5.76,1.38c-0.57,1.13-3.57,2.27-4.56,2.89
								c-4.91,3.08-9.78,6.55-10.37,12.74c-0.13,1.38,2.21,1.71,2.44,0.33c1.36-8.32,9.87-10.2,15.35-15.16
								c1.84-1.66,3.98-4.43,0.66-5.8c-1.66-0.69-4.34,0.29-5.99,0.61c-3.9,0.75-7.75,1.82-11.48,3.21
								c-1.24,0.46-2.63,1.25-3.93,1.59c-0.6,0.27-1.2,0.54-1.8,0.82c-2.11-1.71-2.28-3.19-0.51-4.42c1.54-2.9,6.45-5.86,8.9-7.58
								C374.2,77.33,373.88,76.77,373.46,76.98L373.46,76.98z"/>
						</g>
					</g>
				</g>
			</g>
			<g>
				<g>
					<g>
						<g>
							<g>
								<path class="st1" d="M201.38,103.11c-25.03,0-50.07,0-75.1,0c-7.08,0-14.15,0-21.23,0c0.23,0.23,0.46,0.46,0.68,0.68
									c0-3.24,0-6.49,0-9.73c-0.23,0.23-0.46,0.46-0.68,0.68c25.03,0,50.07,0,75.1,0c7.07,0,14.15,0,21.23,0
									c-0.23-0.23-0.46-0.46-0.68-0.68c0,3.24,0,6.49,0,9.73c0,0.88,1.37,0.88,1.37,0c0-3.24,0-6.49,0-9.73
									c0-0.37-0.31-0.68-0.68-0.68c-25.03,0-50.07,0-75.1,0c-7.08,0-14.15,0-21.23,0c-0.37,0-0.68,0.31-0.68,0.68
									c0,3.24,0,6.49,0,9.73c0,0.37,0.31,0.68,0.68,0.68c25.03,0,50.07,0,75.1,0c7.07,0,14.15,0,21.23,0
									C202.26,104.48,202.26,103.11,201.38,103.11z"/>
							</g>
						</g>
					</g>
					<g>
						<g>
							<g>
								<path class="st1" d="M130.24,112.96c-2.48,0-4.96,0-7.44,0c0.23,0.23,0.46,0.46,0.68,0.68c0-2.87,0-5.75,0-8.62
									c0-0.41,0-0.81,0-1.22c-0.23,0.23-0.46,0.46-0.68,0.68c2.48,0,4.96,0,7.44,0c-0.23-0.23-0.46-0.46-0.68-0.68
									c0,2.87,0,5.75,0,8.62c0,0.41,0,0.81,0,1.22c0,0.88,1.37,0.88,1.37,0c0-2.87,0-5.75,0-8.62c0-0.41,0-0.81,0-1.22
									c0-0.37-0.31-0.68-0.68-0.68c-2.48,0-4.96,0-7.44,0c-0.37,0-0.68,0.31-0.68,0.68c0,2.87,0,5.75,0,8.62c0,0.41,0,0.81,0,1.22
									c0,0.37,0.31,0.68,0.68,0.68c2.48,0,4.96,0,7.44,0C131.11,114.32,131.12,112.96,130.24,112.96z"/>
							</g>
						</g>
					</g>
					<g>
						<g>
							<g>
								<path class="st1" d="M185.01,112.96c-2.48,0-4.96,0-7.44,0c0.23,0.23,0.46,0.46,0.68,0.68c0-2.87,0-5.75,0-8.62
									c0-0.41,0-0.81,0-1.22c-0.23,0.23-0.46,0.46-0.68,0.68c2.48,0,4.96,0,7.44,0c-0.23-0.23-0.46-0.46-0.68-0.68
									c0,2.87,0,5.75,0,8.62c0,0.41,0,0.81,0,1.22c0,0.88,1.37,0.88,1.37,0c0-2.87,0-5.75,0-8.62c0-0.41,0-0.81,0-1.22
									c0-0.37-0.31-0.68-0.68-0.68c-2.48,0-4.96,0-7.44,0c-0.37,0-0.68,0.31-0.68,0.68c0,2.87,0,5.75,0,8.62c0,0.41,0,0.81,0,1.22
									c0,0.37,0.31,0.68,0.68,0.68c2.48,0,4.96,0,7.44,0C185.89,114.32,185.89,112.96,185.01,112.96z"/>
							</g>
						</g>
					</g>
				</g>
				<g>
					<g>
						<g>
							<path class="st1" d="M120.43,93.21c0.9-12.41,1.81-24.82,2.71-37.24h32.48l-3.05,38.05L120.43,93.21z"/>
						</g>
					</g>
					<g>
						<g>
							<polygon class="st0" points="124.07,89.92 126.3,59.36 151.96,59.36 149.46,90.56 							"/>
						</g>
					</g>
					<g>
						<g>
							<g>
								<path class="st1" d="M124.41,81.57c1.47-2.43,3.25-5.01,6.05-5.99c2.61-0.91,5.81,0.12,6.3,3.11
									c0.09,0.51,0.81,0.65,1.14,0.3c3.98-4.2,9.14-9.35,15.51-7.55c0.85,0.24,1.21-1.08,0.36-1.32c-6.9-1.95-12.5,3.31-16.84,7.9
									c0.38,0.1,0.76,0.2,1.14,0.3c-0.52-3.13-3.73-4.86-6.72-4.38c-3.82,0.62-6.26,3.83-8.14,6.93
									C122.77,81.63,123.95,82.32,124.41,81.57L124.41,81.57z"/>
							</g>
						</g>
					</g>
					<g>
						<g>
							<g>
								<path class="st1" d="M140.98,65.62c-0.01,0.9-0.58,1.77-1.42,2.06c-0.93,0.32-1.88,0.07-2.51-0.7
									c-0.55-0.67-0.62-1.71-0.15-2.49c0.46-0.76,1.4-1.2,2.25-1.04C140.23,63.66,140.96,64.56,140.98,65.62
									c0.01,0.88,1.38,0.88,1.37,0c-0.02-1.5-0.95-2.82-2.35-3.35c-1.36-0.52-3.01-0.08-3.94,1.05c-0.95,1.16-1.12,2.81-0.34,4.12
									c0.78,1.3,2.28,1.94,3.76,1.67c1.66-0.3,2.85-1.84,2.87-3.49C142.36,64.74,140.99,64.74,140.98,65.62z"/>
							</g>
						</g>
					</g>
					<g>
						<g>
							<polygon class="st1" points="152.44,68.7 163.09,93.75 157.76,93.75 151.96,80.45 							"/>
						</g>
					</g>
				</g>
				<g>
					<g>
						<g>
							<path class="st1" d="M168.74,94.02c0.53-7.3,1.06-14.61,1.6-21.91h19.11l-1.8,22.39L168.74,94.02z"/>
						</g>
					</g>
					<g>
						<g>
							<polygon class="st0" points="170.88,92.08 172.19,74.1 187.29,74.1 185.82,92.46 							"/>
						</g>
					</g>
					<g>
						<g>
							<g>
								<path class="st1" d="M171.32,87.31c0.83-1.37,1.82-2.83,3.4-3.39c1.41-0.5,3.09,0.02,3.36,1.63
									c0.09,0.51,0.81,0.65,1.14,0.3c2.27-2.4,5.21-5.39,8.86-4.37c0.85,0.24,1.21-1.08,0.36-1.32
									c-4.17-1.17-7.55,1.93-10.19,4.72c0.38,0.1,0.76,0.2,1.14,0.3c-0.34-1.98-2.36-3.06-4.24-2.78
									c-2.35,0.35-3.86,2.32-5.02,4.21C169.68,87.37,170.87,88.06,171.32,87.31L171.32,87.31z"/>
							</g>
						</g>
					</g>
					<g>
						<g>
							<g>
								<path class="st1" d="M180.55,77.78c0,0.05,0,0.09-0.01,0.14c-0.01,0.14,0-0.05,0.01-0.04c0.01,0-0.04,0.2-0.05,0.22
									c0,0.01-0.04,0.13-0.05,0.13c-0.01,0,0.08-0.16,0.01-0.04c-0.04,0.08-0.09,0.15-0.14,0.23c-0.08,0.12,0.08-0.07,0.01-0.02
									c-0.03,0.02-0.05,0.06-0.07,0.08c-0.02,0.02-0.04,0.04-0.06,0.06c-0.01,0.01-0.02,0.02-0.03,0.03
									c-0.06,0.05-0.04,0.04,0.04-0.02c0,0.02-0.17,0.11-0.19,0.12c-0.03,0.01-0.05,0.03-0.08,0.04
									c-0.11,0.07,0.14-0.04-0.02,0.01c-0.07,0.02-0.14,0.05-0.22,0.06c-0.14,0.03,0.02,0.01,0.02,0c0,0.01-0.1,0.01-0.12,0.01
									c-0.08,0-0.16,0-0.24-0.01c-0.1,0,0.17,0.04,0.02,0c-0.04-0.01-0.09-0.02-0.13-0.03c-0.04-0.01-0.09-0.03-0.13-0.04
									c-0.1-0.03,0.05,0.01,0.04,0.02c-0.01,0.01-0.17-0.09-0.2-0.11c-0.03-0.02-0.06-0.04-0.09-0.06
									c-0.08-0.05,0.12,0.11,0.02,0.01c-0.02-0.02-0.19-0.18-0.18-0.19c0.01-0.01,0.08,0.12,0.03,0.03
									c-0.02-0.04-0.05-0.07-0.07-0.11c-0.02-0.03-0.03-0.05-0.04-0.08c-0.01-0.01-0.01-0.03-0.02-0.04
									c-0.03-0.07-0.03-0.05,0.01,0.04c-0.02,0-0.06-0.19-0.07-0.21c-0.01-0.03-0.01-0.06-0.02-0.09c-0.03-0.14,0.01,0.15,0-0.03
									c0-0.07-0.01-0.14,0-0.21c0-0.02,0-0.03,0-0.05c0.01-0.08,0.01-0.06-0.01,0.04c0.01-0.02,0.01-0.06,0.02-0.09
									c0.02-0.07,0.04-0.14,0.06-0.22c0.05-0.15-0.07,0.13,0,0c0.02-0.04,0.04-0.08,0.06-0.12c0.02-0.03,0.04-0.06,0.06-0.09
									c0.07-0.12-0.01,0.02-0.01,0.02c-0.01-0.01,0.14-0.15,0.15-0.16c0.01-0.01,0.02-0.02,0.03-0.03c0.05-0.04,0.04-0.04,0,0
									c-0.01,0.01-0.02,0.02-0.03,0.03c0.02-0.02,0.05-0.03,0.07-0.05c0.03-0.02,0.22-0.14,0.23-0.13c0,0-0.16,0.06-0.04,0.02
									c0.04-0.01,0.09-0.03,0.13-0.04c0.03-0.01,0.06-0.02,0.09-0.02c0.03-0.01,0.13-0.06,0.04-0.01c-0.01,0-0.03,0-0.04,0.01
									c0.03,0,0.06-0.01,0.09-0.01c0.04,0,0.08,0,0.12,0c0.04,0,0.08,0,0.12,0.01c0.15,0-0.13-0.03,0,0
									c0.09,0.02,0.17,0.05,0.26,0.07c0.14,0.04-0.09-0.06-0.02-0.01c0.04,0.03,0.09,0.05,0.14,0.07
									c0.03,0.02,0.05,0.03,0.07,0.05c0.02,0.02,0.05,0.03,0.07,0.05c-0.08-0.06-0.09-0.07-0.04-0.02c0.05,0.05,0.1,0.1,0.16,0.16
									c0.11,0.11-0.08-0.13,0,0c0.02,0.04,0.05,0.07,0.07,0.11c0.02,0.04,0.04,0.08,0.06,0.12c0.07,0.12-0.04-0.14,0,0
									c0.03,0.09,0.05,0.17,0.07,0.26c0.03,0.11-0.01-0.05,0-0.04C180.55,77.6,180.55,77.77,180.55,77.78
									c0,0.36,0.31,0.7,0.68,0.68c0.37-0.02,0.69-0.3,0.68-0.68c-0.01-1.02-0.64-1.89-1.59-2.24c-0.89-0.33-1.99-0.04-2.59,0.69
									c-0.64,0.78-0.77,1.88-0.25,2.76c0.53,0.88,1.54,1.29,2.53,1.11c1.1-0.2,1.88-1.24,1.89-2.33c0-0.36-0.32-0.7-0.68-0.68
									C180.86,77.12,180.55,77.4,180.55,77.78z"/>
							</g>
						</g>
					</g>
					<g>
						<g>
							<polygon class="st1" points="187.57,79.59 193.84,94.33 190.71,94.33 187.29,86.51 							"/>
						</g>
					</g>
				</g>
			</g>
		</g>
		<g>
			<g>
				<g>
					<g>
						<rect x="138.28" y="150.84" class="st1" width="73.37" height="96.77"/>
					</g>
				</g>
				<g>
					<g>
						<rect x="142.92" y="155.29" class="st0" width="63.67" height="87.47"/>
					</g>
				</g>
				<g>
					<g>
						<g>
							<path class="st0" d="M138.11,150.9c0.75,0.9,1.58,1.73,2.43,2.54c0.78,0.74,1.55,1.6,2.48,2.15
								c0.49,0.29,1.19-0.32,0.82-0.82c-0.68-0.92-1.65-1.64-2.51-2.39c-0.87-0.75-1.77-1.47-2.72-2.12
								C138.2,149.97,137.83,150.56,138.11,150.9L138.11,150.9z"/>
						</g>
					</g>
				</g>
				<g>
					<g>
						<g>
							<path class="st0" d="M206.38,155.85c1.62-1.47,3.37-2.73,5.17-3.96c0.74-0.51,0.06-1.71-0.71-1.22
								c-1.92,1.24-3.63,2.8-5.14,4.49C205.28,155.63,205.92,156.27,206.38,155.85L206.38,155.85z"/>
						</g>
					</g>
				</g>
				<g>
					<g>
						<g>
							<path class="st0" d="M138.9,248.22c1.63-1.69,3.18-3.44,4.87-5.07c0.78-0.75-0.42-1.95-1.19-1.19
								c-1.71,1.7-3.28,3.55-4.45,5.67C137.87,248.1,138.51,248.63,138.9,248.22L138.9,248.22z"/>
						</g>
					</g>
				</g>
				<g>
					<g>
						<g>
							<path class="st0" d="M206.31,243.43c2.13,1.08,3.98,2.65,6.06,3.81c0.68,0.38,1.29-0.48,0.8-1.04
								c-1.7-1.96-4.06-2.92-6.42-3.8C206.15,242.17,205.75,243.14,206.31,243.43L206.31,243.43z"/>
						</g>
					</g>
				</g>
			</g>
			<g>
				<g>
					<rect x="60.08" y="247.87" class="st1" width="222.7" height="12.65"/>
				</g>
			</g>
			<g>
				<g>
					<rect x="69.1" y="257.9" class="st1" width="208.44" height="32.71"/>
				</g>
			</g>
			<g>
				<g>
					<g>
						<path class="st0" d="M61.73,261.31c36.8,1.28,73.75,0.48,110.56,0.58c36.85,0.1,73.71,0.2,110.56,0.27
							c1.45,0,1.45-2.26,0-2.26c-36.85,0.08-73.71,0.18-110.56,0.27c-36.82,0.1-73.77-0.7-110.56,0.58
							C61.37,260.77,61.37,261.3,61.73,261.31L61.73,261.31z"/>
					</g>
				</g>
			</g>
			<g>
				<g>
					<g>
						<path class="st0" d="M171.43,283.34c-3.05,0-6.1,0-9.14,0c-7.32,0-14.63,0-21.95,0c-8.81,0-17.63,0-26.44,0
							c-7.65,0-15.3,0-22.95,0c-2.51,0-5.02,0-7.54,0c-1.14,0-2.47-0.19-3.6,0c-0.05,0.01-0.1,0-0.15,0
							c0.36,0.36,0.73,0.73,1.09,1.09c0-5.61,0-11.23,0-16.84c-0.36,0.36-0.73,0.73-1.09,1.09c3.05,0,6.1,0,9.14,0
							c7.32,0,14.63,0,21.95,0c8.81,0,17.63,0,26.44,0c7.65,0,15.3,0,22.95,0c2.51,0,5.02,0,7.54,0c1.14,0,2.47,0.19,3.6,0
							c0.05-0.01,0.1,0,0.15,0c-0.36-0.36-0.73-0.73-1.09-1.09c0,5.61,0,11.23,0,16.84c0,1.4,2.18,1.41,2.18,0
							c0-5.61,0-11.23,0-16.84c0-0.59-0.5-1.09-1.09-1.09c-3.05,0-6.1,0-9.14,0c-7.32,0-14.63,0-21.95,0c-8.81,0-17.63,0-26.44,0
							c-7.65,0-15.3,0-22.95,0c-3.7,0-7.44-0.16-11.14,0c-0.05,0-0.1,0-0.15,0c-0.59,0-1.09,0.5-1.09,1.09c0,5.61,0,11.23,0,16.84
							c0,0.59,0.5,1.09,1.09,1.09c3.05,0,6.1,0,9.14,0c7.32,0,14.63,0,21.95,0c8.81,0,17.63,0,26.44,0c7.65,0,15.3,0,22.95,0
							c3.7,0,7.44,0.16,11.14,0c0.05,0,0.1,0,0.15,0C172.83,285.52,172.83,283.34,171.43,283.34z"/>
					</g>
				</g>
			</g>
			<g>
				<g>
					<g>
						<path class="st0" d="M269.6,283.34c-3.04,0-6.08,0-9.13,0c-7.31,0-14.62,0-21.92,0c-8.84,0-17.69,0-26.53,0
							c-7.65,0-15.3,0-22.95,0c-2.53,0-5.07,0-7.6,0c-1.14,0-2.45-0.18-3.58,0c-0.05,0.01-0.11,0-0.16,0
							c0.36,0.36,0.73,0.73,1.09,1.09c0-5.61,0-11.23,0-16.84c-0.36,0.36-0.73,0.73-1.09,1.09c3.04,0,6.08,0,9.13,0
							c7.31,0,14.62,0,21.92,0c8.84,0,17.69,0,26.53,0c7.65,0,15.3,0,22.95,0c2.53,0,5.07,0,7.6,0c1.14,0,2.45,0.18,3.59,0
							c0.05-0.01,0.11,0,0.16,0c-0.36-0.36-0.73-0.73-1.09-1.09c0,5.61,0,11.23,0,16.84c0,1.4,2.18,1.41,2.18,0
							c0-5.61,0-11.23,0-16.84c0-0.59-0.5-1.09-1.09-1.09c-3.04,0-6.08,0-9.13,0c-7.31,0-14.62,0-21.92,0c-8.84,0-17.69,0-26.53,0
							c-7.65,0-15.3,0-22.95,0c-3.72,0-7.47-0.16-11.18,0c-0.05,0-0.11,0-0.16,0c-0.59,0-1.09,0.5-1.09,1.09c0,5.61,0,11.23,0,16.84
							c0,0.59,0.5,1.09,1.09,1.09c3.04,0,6.08,0,9.13,0c7.31,0,14.62,0,21.92,0c8.84,0,17.69,0,26.53,0c7.65,0,15.3,0,22.95,0
							c3.72,0,7.47,0.16,11.18,0c0.05,0,0.11,0,0.16,0C271,285.52,271,283.34,269.6,283.34z"/>
					</g>
				</g>
			</g>
			<g>
				<g>
					<path class="st0" d="M225.71,276.31c0,1.14-0.92,2.06-2.06,2.06c-1.14,0-2.06-0.92-2.06-2.06c0-1.14,0.92-2.06,2.06-2.06
						C224.79,274.26,225.71,275.18,225.71,276.31z"/>
				</g>
			</g>
			<g>
				<g>
					<path class="st0" d="M131,276.31c0,1.14-0.92,2.06-2.06,2.06c-1.14,0-2.06-0.92-2.06-2.06c0-1.14,0.92-2.06,2.06-2.06
						C130.08,274.26,131,275.18,131,276.31z"/>
				</g>
			</g>
			<g>
				<g>
					<g>
						<path class="st1" d="M161.78,221.02c7.87-9.33,16.29-18.18,25.21-26.5c0.51-0.48-0.26-1.25-0.77-0.77
							c-8.92,8.33-17.34,17.18-25.21,26.5C160.56,220.78,161.32,221.56,161.78,221.02L161.78,221.02z"/>
					</g>
				</g>
			</g>
			<g>
				<g>
					<g>
						<path class="st1" d="M161.75,206.22c7.85-7.98,15.27-16.37,22.21-25.15c0.43-0.54-0.34-1.32-0.77-0.77
							c-6.95,8.77-14.36,17.17-22.21,25.15C160.49,205.95,161.26,206.72,161.75,206.22L161.75,206.22z"/>
					</g>
				</g>
			</g>
			<g>
				<g>
					<rect x="223.66" y="237.53" class="st1" width="44.82" height="11.33"/>
				</g>
			</g>
			<g>
				<g>
					<rect x="222.8" y="215.16" class="st1" width="44.82" height="11.33"/>
				</g>
			</g>
			<g>
				<g>
					<path class="st1" d="M271.56,238.38h-45.7v-12.2h45.7V238.38z M226.74,237.51h43.95v-10.46h-43.95V237.51z"/>
				</g>
			</g>
			<g>
				<g>
					<g>
						<path class="st1" d="M107.37,210c-1.66-2.3-3.82-4.19-5.65-6.36c-1.83-2.17-3.37-4.78-3.4-7.62
							c-0.03-2.84,4.99-4.45,4.71-6.19H79.61c-0.19,2.14,4.74,3.36,4.71,6.19c-0.03,2.84-1.57,5.45-3.4,7.62
							c-1.83,2.17-3.99,4.06-5.65,6.36c-4.59,6.37-4.7,15.12-2.21,22.57c2.49,7.45,7.25,13.89,11.93,20.19h12.65
							c4.68-6.3,9.44-12.74,11.93-20.19C112.07,225.13,111.96,216.37,107.37,210z"/>
					</g>
				</g>
				<g>
					<g>
						<g>
							<path class="st1" d="M89.21,191.53c-1.35-10.38-1.92-20.85-1.69-31.32c0.01-0.7-1.08-0.7-1.09,0
								c-0.22,10.47,0.34,20.94,1.69,31.32C88.21,192.21,89.3,192.22,89.21,191.53L89.21,191.53z"/>
						</g>
					</g>
				</g>
				<g>
					<g>
						<g>
							<path class="st1" d="M93.6,195.51c-0.19-7.65,0.44-15.29,1.88-22.8c0.13-0.69-0.92-0.98-1.05-0.29
								c-1.46,7.61-2.11,15.35-1.92,23.09C92.52,196.21,93.61,196.21,93.6,195.51L93.6,195.51z"/>
						</g>
					</g>
				</g>
				<g>
					<g>
						<path class="st1" d="M86.92,163.96L86.92,163.96c-1.34,0-2.42-1.08-2.42-2.42v-7.02c0-1.34,1.08-2.42,2.42-2.42l0,0
							c1.34,0,2.42,1.08,2.42,2.42v7.02C89.34,162.87,88.25,163.96,86.92,163.96z"/>
					</g>
				</g>
				<g>
					<g>
						<path class="st1" d="M94.53,173.83L94.53,173.83c-1.31-0.28-2.14-1.56-1.87-2.87l1.45-6.87c0.28-1.31,1.56-2.14,2.87-1.87l0,0
							c1.31,0.28,2.14,1.56,1.87,2.87l-1.45,6.87C97.12,173.27,95.83,174.11,94.53,173.83z"/>
					</g>
				</g>
			</g>
			<g>
				<g>
					<g>
						<path class="st0" d="M59.72,248.03c28.41,0.7,56.88,0.29,85.31,0.36c30.46,0.08,60.93,0.26,91.39,0.32
							c15.45,0.03,30.9,0.07,46.36,0.02c1.1,0,1.11-1.71,0-1.72c-58.9-0.16-117.8,0.08-176.7,0.09c-15.45,0-30.91-0.16-46.36,0.23
							C59.27,247.34,59.27,248.02,59.72,248.03L59.72,248.03z"/>
					</g>
				</g>
			</g>
			<g>
				<g>
					<g>
						<path class="st0" d="M223.16,224.12c7.24,0.85,14.86,0.12,22.15,0.11c7.38,0,14.76,0.19,22.15,0.22c0.92,0,0.92-1.43,0-1.42
							c-7.38,0.03-14.76,0.22-22.15,0.22c-7.29,0-14.91-0.73-22.15,0.11C222.67,223.42,222.67,224.07,223.16,224.12L223.16,224.12z"
							/>
					</g>
				</g>
			</g>
			<g>
				<g>
					<g>
						<path class="st0" d="M222.81,221.19c14.73,0.85,29.89,0.68,44.64,0.33c0.89-0.02,0.89-1.37,0-1.39
							c-14.75-0.35-29.91-0.52-44.64,0.33C222.35,220.49,222.35,221.16,222.81,221.19L222.81,221.19z"/>
					</g>
				</g>
			</g>
			<g>
				<g>
					<g>
						<path class="st0" d="M222.7,218.11c14.66,0.38,29.4,0.49,44.06,0.31c0.87-0.01,0.87-1.34,0-1.35
							c-14.66-0.19-29.41-0.07-44.06,0.31C222.22,217.39,222.22,218.1,222.7,218.11L222.7,218.11z"/>
					</g>
				</g>
			</g>
			<g>
				<g>
					<path class="st1" d="M82.6,319.46c-3.28-1.99-6.7-4.82-10.2-8.18v-22.93h10.2V319.46z"/>
				</g>
			</g>
			<g>
				<g>
					<polygon class="st1" points="270.45,337.54 260.22,337.8 260.22,290.61 270.42,290.61 					"/>
				</g>
			</g>
		</g>
		<g>
			<g>
				<g>
					<path class="st1" d="M391.34,247.65C391.34,247.66,391.34,247.66,391.34,247.65c0,3.75-0.06,7.48-0.19,11.22v0.01
						c-0.02,0.43-0.03,0.86-0.05,1.29c-0.01,0.19-0.01,0.37-0.02,0.56c-0.02,0.56-0.05,1.13-0.08,1.69
						c-0.58,13.38-1.93,26.73-3.95,39.97v0.01c-0.29,1.92-0.6,3.84-0.92,5.76c-1.27,7.6-2.75,15.17-4.44,22.69
						c-0.72,0.22-1.46,0.43-2.2,0.64c0.75-3.28,1.46-6.57,2.11-9.86c0.09-0.4,0.16-0.8,0.24-1.19c1.79-8.95,3.28-17.94,4.45-26.98
						c0.9-6.93,1.61-13.89,2.1-20.87c0.05-0.62,0.09-1.25,0.14-1.87v-0.03c0.17-2.64,0.32-5.29,0.44-7.93v-0.01
						c0.04-0.86,0.07-1.7,0.1-2.54c0.36-9.36,0.33-18.75-0.09-28.1c-0.02-0.51-0.04-1.03-0.07-1.54c-0.01-0.28-0.02-0.56-0.04-0.84
						c0,0,0-0.01,0-0.02c-0.18-3.55-0.43-7.1-0.73-10.64c-0.29-3.37-0.63-6.74-1.03-10.09c0,0,0-0.01,0-0.02
						c-1.36-11.53-3.34-22.97-5.94-34.27c-2.3-10.02-5.1-19.95-8.35-29.7c-0.3-0.88,0.61-1.4,1.31-1.18
						c0.28,0.09,0.52,0.29,0.64,0.64c0.23,0.7,0.47,1.41,0.69,2.1c0.01,0,0.01,0.01,0.01,0.03c3.09,9.46,5.74,19.06,7.94,28.76v0.01
						c0.81,3.55,1.55,7.1,2.22,10.67c0.82,4.27,1.54,8.55,2.16,12.85c-0.01,0.01,0,0.02,0,0.02c0.2,1.25,0.38,2.51,0.54,3.77
						c0.71,5.16,1.29,10.32,1.74,15.51c0.32,3.63,0.58,7.26,0.77,10.9c0.01,0.01,0,0.01,0,0.01
						C391.19,235.25,391.35,241.46,391.34,247.65z"/>
				</g>
			</g>
			<g>
				<path class="st1" d="M383.31,175.57c7.71-16.49,3.36-37.8-10.21-49.95c-2.58-2.31-5.79-4.41-9.25-4.07
					c-3.2,0.32-5.9,2.78-7.21,5.71c-1.31,2.93-1.41,6.27-1.06,9.46c0.89,8.21,4.62,15.94,9.65,22.49c5.03,6.55,11.34,12.01,17.93,17
					L383.31,175.57z"/>
			</g>
			<g>
				<path class="st1" d="M390.55,232.03c2.57-18.03-7.81-37.14-24.32-44.81c-3.15-1.46-6.83-2.53-10.03-1.19
					c-2.96,1.24-4.83,4.38-5.23,7.56c-0.4,3.19,0.48,6.41,1.74,9.36c3.25,7.59,9.06,13.9,15.78,18.7c6.72,4.8,14.35,8.18,22.1,11.04
					L390.55,232.03z"/>
			</g>
			<g>
				<path class="st1" d="M388.41,202.63c15.61-3.96,27.77-18.87,28.49-34.96c0.14-3.07-0.22-6.44-2.39-8.61
					c-2.01-2.01-5.2-2.48-7.94-1.74c-2.74,0.75-5.08,2.54-7.07,4.57c-5.12,5.21-8.33,12.08-10,19.2c-1.67,7.11-1.87,14.49-1.6,21.79
					L388.41,202.63z"/>
			</g>
			<g>
				<path class="st1" d="M389.37,262.62c17.71-1.82,33.39-16.18,36.77-33.66c0.64-3.33,0.79-7.08-1.24-9.8
					c-1.87-2.52-5.29-3.55-8.41-3.18c-3.12,0.38-5.97,1.97-8.47,3.86c-6.44,4.88-11.05,11.88-14.02,19.39
					c-2.96,7.51-4.37,15.55-5.25,23.58L389.37,262.62z"/>
			</g>
			<g>
				<path class="st1" d="M381.9,321.07c-0.97-17.78-14.56-34.13-31.85-38.34c-3.3-0.8-7.03-1.13-9.85,0.76
					c-2.61,1.75-3.8,5.12-3.58,8.25c0.23,3.13,1.68,6.05,3.45,8.64c4.56,6.66,11.34,11.61,18.7,14.93
					c7.36,3.32,15.32,5.11,23.3,6.38L381.9,321.07z"/>
			</g>
			<g>
				<g>
					<path class="st0" d="M383.16,172.65c-0.16-14.13-6.71-30.42-15.5-41.4c-0.21-0.26-0.63,0.07-0.46,0.35
						c3.98,6.6,7.79,12.97,10.47,20.24c2.51,6.8,3.78,13.78,5.38,20.82C383.07,172.72,383.16,172.7,383.16,172.65L383.16,172.65z"/>
				</g>
			</g>
			<g>
				<g>
					<path class="st0" d="M389.04,230.46c-1.29-6.26-5.09-12.43-8.74-17.58c-3.54-5.01-7.71-9.85-12.62-13.56
						c-0.38-0.29-0.85,0.33-0.51,0.66c4.74,4.56,9.27,9.01,13.03,14.47c3.51,5.11,5.71,10.7,8.68,16.08
						C388.93,230.62,389.06,230.55,389.04,230.46L389.04,230.46z"/>
				</g>
			</g>
			<g>
				<g>
					<path class="st0" d="M406.4,171.19c-6.77,8.38-12.82,17.97-16.38,28.2c-0.18,0.51,0.63,0.85,0.87,0.37
						c4.93-9.71,9.76-19.24,15.78-28.35C406.79,171.24,406.53,171.04,406.4,171.19L406.4,171.19z"/>
				</g>
			</g>
			<g>
				<g>
					<path class="st0" d="M413.69,232.53c-8.43,7.82-17.72,16.79-22.99,27.17c-0.15,0.3,0.26,0.68,0.5,0.39
						c3.73-4.6,6.82-9.7,10.57-14.31c3.75-4.6,7.71-9.06,11.99-13.17C413.81,232.56,413.74,232.49,413.69,232.53L413.69,232.53z"/>
				</g>
			</g>
			<g>
				<path class="st1" d="M385.62,308.1c17.69,2.03,36.09-8.62,43.15-24.96c1.34-3.11,2.29-6.74,0.9-9.83
					c-1.29-2.86-4.4-4.61-7.53-4.91c-3.12-0.3-6.25,0.64-9.1,1.95c-7.34,3.38-13.35,9.22-17.86,15.92
					c-4.51,6.7-7.62,14.24-10.2,21.9L385.62,308.1z"/>
			</g>
			<g>
				<g>
					<path class="st0" d="M415.84,283.96c-9.9,5.82-20.91,12.59-28.29,21.58c-0.26,0.32,0.13,0.7,0.45,0.45
						c4.45-3.54,8.4-7.7,12.85-11.27c4.79-3.84,9.79-7.47,15.03-10.68C415.95,284.01,415.9,283.93,415.84,283.96L415.84,283.96z"/>
				</g>
			</g>
			<g>
				<g>
					<path class="st0" d="M381.02,321c-6.11-9.22-15.58-18.27-25.63-23.1c-0.51-0.24-0.9,0.43-0.44,0.75
						c4.93,3.41,9.9,6.47,14.41,10.48c4.17,3.7,7.79,7.83,11.4,12.06C380.88,321.33,381.11,321.15,381.02,321L381.02,321z"/>
				</g>
			</g>
			<g>
				<path class="st1" d="M388.63,272.03c-0.97-17.78-14.56-34.13-31.85-38.34c-3.3-0.8-7.03-1.13-9.85,0.76
					c-2.61,1.75-3.8,5.12-3.58,8.25c0.23,3.13,1.68,6.05,3.45,8.64c4.56,6.66,11.34,11.61,18.7,14.93
					c7.36,3.32,15.32,5.11,23.3,6.38L388.63,272.03z"/>
			</g>
			<g>
				<g>
					<path class="st0" d="M387.75,271.96c-6.11-9.22-15.58-18.27-25.63-23.1c-0.51-0.24-0.9,0.43-0.44,0.75
						c4.93,3.41,9.9,6.47,14.41,10.48c4.17,3.7,7.79,7.83,11.4,12.06C387.62,272.29,387.85,272.11,387.75,271.96L387.75,271.96z"/>
				</g>
			</g>
		</g>
		<g>
			<g>
				<g>
					<rect x="258.23" y="52.21" class="st1" width="53.23" height="70.21"/>
				</g>
			</g>
			<g>
				<g>
					<rect x="261.59" y="55.44" class="st0" width="46.19" height="63.46"/>
				</g>
			</g>
			<g>
				<g>
					<rect x="273.49" y="68.2" class="st1" width="24.17" height="22.63"/>
				</g>
			</g>
			<g>
				<g>
					<g>
						<path class="st0" d="M257.88,52.29c0.51,0.74,1.11,1.41,1.75,2.03c0.63,0.61,1.24,1.32,2.06,1.66
							c0.64,0.27,1.12-0.58,0.84-1.1c-0.4-0.74-1.22-1.29-1.85-1.82c-0.66-0.55-1.35-1.07-2.1-1.48
							C258.15,51.36,257.57,51.85,257.88,52.29L257.88,52.29z"/>
					</g>
				</g>
			</g>
			<g>
				<g>
					<g>
						<path class="st0" d="M307.81,56.02c1.2-1,2.48-1.85,3.76-2.73c0.91-0.63,0.08-2.12-0.88-1.51c-1.42,0.9-2.66,2.11-3.73,3.39
							C306.47,55.76,307.22,56.52,307.81,56.02L307.81,56.02z"/>
					</g>
				</g>
			</g>
			<g>
				<g>
					<g>
						<path class="st0" d="M258.86,123.04c1.29-1.11,2.43-2.38,3.66-3.55c0.97-0.93-0.53-2.43-1.47-1.47
							c-1.25,1.26-2.42,2.65-3.14,4.29C257.63,122.93,258.31,123.51,258.86,123.04L258.86,123.04z"/>
					</g>
				</g>
			</g>
			<g>
				<g>
					<g>
						<path class="st0" d="M307.44,119.63c1.58,0.88,2.87,2.2,4.56,2.89c0.67,0.27,1.3-0.64,0.93-1.21
							c-1.16-1.74-3.08-2.35-4.95-2.96C307.22,118.11,306.75,119.25,307.44,119.63L307.44,119.63z"/>
					</g>
				</g>
			</g>
			<g>
				<g>
					<g>
						<path class="st0" d="M273.21,82.91c0.93-1.15,2.61-3.71,3.93-4.26c3.76-1.56,6.36,0.56,8.47,3.34
							c0.4,0.53,1.17,0.78,1.69,0.22c3-3.2,6.26-5.15,10.21-6.9c1.11-0.49,0.32-2.26-0.81-1.93c-4.33,1.25-8,3.92-10.92,7.31
							c0.51,0,1.02,0,1.52,0c-5.14-6.33-11.29-5.99-14.81,1.66C272.28,82.79,272.85,83.35,273.21,82.91L273.21,82.91z"/>
					</g>
				</g>
			</g>
		</g>
	</g>
</g>
<g id="Lines_2">
	<g>
		<g>
			<g>
				<path class="st2" d="M347.25,383.38c13.7,0.03,27.39,0.46,41.09,0.39c1.46-0.01,1.46-2.26,0-2.27
					c-13.7-0.07-27.4,0.36-41.09,0.39C346.29,381.89,346.29,383.38,347.25,383.38L347.25,383.38z"/>
			</g>
		</g>
		<g>
			<g>
				<path class="st2" d="M363.69,376.89c14.61,0.11,29.23,0.4,43.83,0.29c1.79-0.01,1.8-2.78,0-2.79
					c-14.61-0.11-29.23,0.18-43.83,0.29C362.27,374.69,362.27,376.88,363.69,376.89L363.69,376.89z"/>
			</g>
		</g>
	</g>
	<g>
		<g>
			<path class="st2" d="M105.96,192.61c0.62,2.52,1.21,5.05,1.78,7.58c0.36,1.56,2.83,0.9,2.41-0.66c-0.68-2.5-1.35-5.01-1.99-7.52
				C107.8,190.58,105.61,191.19,105.96,192.61L105.96,192.61z"/>
		</g>
	</g>
	<g>
		<g>
			<path class="st2" d="M117.36,189.2c-0.71,2.96-1.45,5.92-2.1,8.9c-0.35,1.62,2.16,2.31,2.49,0.69c0.61-3,1.12-6.01,1.67-9.02
				C119.65,188.43,117.68,187.85,117.36,189.2L117.36,189.2z"/>
		</g>
	</g>
	<g>
		<g>
			<path class="st2" d="M122.31,202.86c1.11-1.88,2.25-3.74,3.43-5.58c0.99-1.55-1.59-3.05-2.45-1.43
				c-1.03,1.93-2.08,3.84-3.17,5.74C119.3,203,121.48,204.26,122.31,202.86L122.31,202.86z"/>
		</g>
	</g>
</g>
<g id="Lines_1">
	<g>
		<g>
			<g>
				<path class="st3" d="M336.1,99.61c0.98,0.59,2.32,0.41,3.34,0c0.63-0.26,1.08-0.84,0.89-1.56c-0.19-0.69-0.89-1.04-1.56-0.89
					c-1.08,0.24-2.33,0.85-2.81,1.89C335.86,99.25,335.9,99.48,336.1,99.61L336.1,99.61z"/>
			</g>
		</g>
		<g>
			<g>
				<path class="st3" d="M335.6,104.11c0.23,0.48,0.47,0.97,0.85,1.35c0.46,0.44,1.05,0.69,1.63,0.92c0.64,0.25,1.4-0.28,1.57-0.89
					c0.17-0.61-0.21-1.46-0.89-1.57c-0.42-0.07-0.81-0.21-1.23-0.31c-0.39-0.09-0.77-0.13-1.14-0.29
					C335.86,103.07,335.34,103.55,335.6,104.11L335.6,104.11z"/>
			</g>
		</g>
		<g>
			<g>
				<path class="st3" d="M333.98,108.58c0.07,0.35,0.13,0.69,0.17,1.04c0.06,0.5,0.23,0.85,0.57,1.21c0.44,0.47,1.43,0.13,1.36-0.56
					c-0.05-0.5-0.17-0.85-0.5-1.24c-0.23-0.28-0.47-0.54-0.7-0.83C334.55,107.76,333.86,108,333.98,108.58L333.98,108.58z"/>
			</g>
		</g>
	</g>
</g>
<g id="Treadmill">
	<g>
		<g>
			<path class="st2" d="M172.99,256.47l-58.02,179.41c-0.63,1.94-1.01,3.9,1.18,3.9h15.62l60.21-183.31H172.99z"/>
		</g>
		<g>
			<path class="st2" d="M62.88,463.19c0,0,2.24,12.2,6.23,12.95c3.99,0.75,110.09,1.1,112.83-1.82c2.74-2.92,4.98-11.14,4.98-11.14
				H62.88z"/>
		</g>
		<g>
			<path class="st3" d="M101.08,405.9c-0.93,0.93-49.33,36.07-50.58,41.35c-1.24,5.29-3.32,19.07,13.6,18.07
				c17.76-1.05,317.26-0.01,356.97,0.13c6.32,0.02,12-4.28,13.26-10.47c0.05-0.26,0.1-0.52,0.14-0.8c0.67-4.62-1.08-9.26-4.39-12.56
				c-2.72-2.71-6.7-6.03-10.58-6.86h-4.97l-21.45-17.02c0,0-3.11-11.19-13.06-12.13S101.08,405.9,101.08,405.9z"/>
		</g>
		<g>
			<g>
				<path class="st2" d="M57.97,445.23c18.27,0.88,36.63,0.45,54.91,0.42c25.86-0.05,51.72-0.25,77.57-0.43
					c55.27-0.38,110.53-0.86,165.8-0.95c21.16-0.03,42.31-0.12,63.47-0.07c2.06,0.01,2.07-3.21,0-3.21
					c-44.16,0.08-88.32,0.9-132.48,1.26c-55.27,0.45-110.53,0.79-165.8,1.39c-21.14,0.23-42.35-0.04-63.47,0.95
					C57.56,444.61,57.56,445.21,57.97,445.23L57.97,445.23z"/>
			</g>
		</g>
		<g>
			<polygon class="st2" points="146.59,410.01 126.31,434.76 414.53,434.76 384.56,410.01 			"/>
		</g>
		<g>
			<path class="st2" d="M233.65,253.34c-7.31-0.27-63.61-0.81-69.57-1.08c-5.95-0.27-18.7-6.9-27.37-16.65l-1.33,19.35
				c6.67,7.23,15.39,12.98,31.67,12.98c10.44,0,60.68,3.5,63.12,1.08C232.61,266.6,240.96,253.61,233.65,253.34z"/>
		</g>
		<g>
			<path class="st2" d="M135.04,282.16L77.02,461.56c-0.63,1.94-1.01,3.9,1.18,3.9h15.62l60.21-183.31H135.04z"/>
		</g>
		<g>
			<path class="st2" d="M357.03,465.46c0,0,2.49,9.22,5.98,10.46c3.49,1.25,27.9,1.49,29.64-1.25s2.49-9.22,2.49-9.22H357.03z"/>
		</g>
		<g>
			<path class="st3" d="M67.4,206.01c-0.84-0.1-1.68,0.15-2.32,0.69c-1.76,1.47-5.2,4.55-5.84,6.71
				c-0.87,2.92,41.06,46.05,47.33,48.84c6.27,2.8,39.39-3.58,40.49-4.75c0.74-0.8,1.99-4.43,2.72-6.67c0.36-1.1,0.06-2.3-0.76-3.12
				c-6.78-6.73-37.38-37.01-39.79-37.68C106.48,209.28,74.18,206.81,67.4,206.01z"/>
		</g>
		<g>
			<path class="st2" d="M53.11,225.48c6.27,6.74,34.65,38.08,39.83,43.69c6.67,7.23,15.39,12.98,31.67,12.98
				c10.44,0,97.94,2.42,100.38,0c2.44-2.42,5.32-15.05-1.99-15.32c-7.31-0.27-95.41-0.1-101.37-0.37
				c-5.95-0.27-18.68-7.31-27.34-17.05c-7.56-8.5-26.11-27.74-30.74-32.81c-0.59-0.65-1.58-0.71-2.25-0.15
				C61.3,216.46,52.25,224.56,53.11,225.48z"/>
		</g>
		<g>
			<g>
				<path class="st4" d="M135.84,267.35c7.21,2.05,15.67,0.89,23.1,0.83c6.31-0.05,12.6,0.23,18.91,0.36
					c14.33,0.29,28.67,0.39,43,0.09c1.8-0.04,1.8-2.76,0-2.8c-14.33-0.3-28.67-0.33-43-0.24c-6.31,0.04-12.6,0.24-18.91,0.13
					c-7.42-0.12-15.9-1.31-23.1,0.74C135.4,266.58,135.4,267.23,135.84,267.35L135.84,267.35z"/>
			</g>
		</g>
		<g>
			<g>
				<path class="st2" d="M66.18,208.49c5.27,7.28,11.89,13.69,17.99,20.27c6.75,7.28,13.55,14.52,20.25,21.84
					c1.67,1.83,3.12,4.53,5.75,4.91c3.13,0.45,7.05-0.72,10.18-1.04c9.13-0.94,18.7-1.25,27.67-3.18c1.4-0.3,1.07-2.48-0.33-2.47
					c-8.19,0.04-16.62,1.63-24.77,2.55c-3.21,0.36-6.59,1.17-9.81,1.24c-5.14,0.12-7.55-4.08-10.81-7.58
					c-5.74-6.16-11.48-12.31-17.21-18.47c-5.87-6.3-11.57-13.1-18.16-18.66C66.55,207.58,65.83,208.01,66.18,208.49L66.18,208.49z"
					/>
			</g>
		</g>
		<g>
			<path class="st4" d="M73.17,210.88c0,0,25.34,29.24,27.1,29.43c1.75,0.19,37.23-2.14,37.23-2.14l-27.49-25.73L73.17,210.88z"/>
		</g>
		<g>
			<g>
				<path class="st3" d="M96.59,231.16c0.13-0.89,0.2-1.65,0.21-2.53c0.02-1.78-0.77-2.48,0.94-2.25c1.11,0.15,2.65,1.58,3.62,2.16
					c1.41,0.84,2.83,1.67,4.24,2.51c0.72,0.42,1.42-0.27,1.3-1c-0.75-4.45-1.38-8.92-2.18-13.36c-0.55,0.43-1.11,0.85-1.66,1.28
					c4.36,2.24,8.06,5.26,11.05,9.16c0.59,0.77,1.67,0.68,2.02-0.26c0.66-1.79,0.91-3.27,0.68-5.15c-0.16-1.3-2.13-1.39-2.1,0
					c0.04,1.62-0.14,3.05-0.71,4.57c0.67-0.09,1.35-0.18,2.02-0.26c-3.22-4.25-7.07-7.55-11.82-9.99c-0.92-0.47-1.84,0.3-1.66,1.28
					c0.81,4.43,1.79,8.82,2.65,13.23c0.43-0.33,0.87-0.67,1.3-1c-2.44-1.41-4.87-2.83-7.32-4.2c-0.86-0.48-2.18-1.53-3.26-0.91
					c-1.84,1.07-0.31,5.3,0.17,6.76C96.15,231.39,96.55,231.44,96.59,231.16L96.59,231.16z"/>
			</g>
		</g>
		<g>
			<g>
				<path class="st3" d="M101.47,237.92c9.57-0.62,19.14-1.38,28.69-2.17c1-0.08,1.01-1.66,0-1.57c-9.57,0.82-19.14,1.67-28.69,2.66
					C100.79,236.91,100.76,237.97,101.47,237.92L101.47,237.92z"/>
			</g>
		</g>
	</g>
</g>
<g id="Musical_Notes">
	<g>
		<g>
			<g>
				<path class="st3" d="M354.62,96.13c-0.66-0.63-1.34-1.27-2.16-1.59c-0.83-0.32-1.85-0.24-2.46,0.44
					c-0.42,0.47-0.58,1.13-0.63,1.78c-0.04,0.59,0.01,1.22,0.34,1.68c0.27,0.38,0.7,0.61,1.14,0.72c0.87,0.22,1.82,0.05,2.57-0.47
					c0.75-0.52,1.32-1.3,1.44-2.42L354.62,96.13z"/>
			</g>
			<g>
				<path class="st3" d="M365.49,97.78c-0.69-0.63-1.4-1.27-2.26-1.59c-0.86-0.32-1.93-0.24-2.56,0.44
					c-0.43,0.47-0.61,1.13-0.66,1.78c-0.05,0.59,0.01,1.22,0.36,1.68c0.28,0.38,0.73,0.61,1.19,0.72c0.91,0.22,1.9,0.05,2.69-0.47
					c0.79-0.52,1.36-1.14,1.45-2.5L365.49,97.78z"/>
			</g>
			<g>
				<g>
					<path class="st3" d="M354.69,97.16c0.74-2.87,1.13-5.81,1.17-8.77c-0.26,0.2-0.52,0.4-0.78,0.59
						c3.36,0.64,6.77,0.93,10.19,0.86c-0.21-0.21-0.41-0.41-0.62-0.61c0.35,3.02,0.22,6.07-0.23,9.08
						c-0.12,0.77,1.07,1.11,1.19,0.33c0.48-3.12,0.64-6.27,0.28-9.4c-0.04-0.32-0.25-0.62-0.61-0.61c-3.31,0.08-6.61-0.19-9.86-0.81
						c-0.39-0.07-0.77,0.17-0.78,0.59c-0.04,2.85-0.41,5.68-1.13,8.44C353.31,97.6,354.5,97.92,354.69,97.16L354.69,97.16z"/>
				</g>
			</g>
			<g>
				<g>
					<path class="st3" d="M355.38,90.96c3.04,1.12,6.28,1.64,9.52,1.51c0.79-0.03,0.79-1.26,0-1.23c-3.14,0.13-6.24-0.37-9.19-1.46
						C354.97,89.49,354.65,90.68,355.38,90.96L355.38,90.96z"/>
				</g>
			</g>
		</g>
		<g>
			<g>
				<path class="st3" d="M272.89,74.87c-0.61-0.44-1.24-0.89-1.95-1.06c-0.71-0.17-1.54,0.01-1.96,0.64
					c-0.29,0.43-0.35,0.99-0.32,1.53c0.03,0.49,0.14,1,0.47,1.34c0.27,0.28,0.64,0.42,1.01,0.46c0.74,0.09,1.5-0.16,2.06-0.67
					c0.56-0.51,0.93-1.21,0.91-2.14L272.89,74.87z"/>
			</g>
			<g>
				<path class="st3" d="M281.97,75.01c-0.63-0.44-1.28-0.88-2.03-1.05c-0.74-0.16-1.61,0.02-2.05,0.65
					c-0.3,0.43-0.37,0.99-0.34,1.53c0.03,0.49,0.14,1,0.48,1.34c0.28,0.28,0.67,0.41,1.05,0.46c0.77,0.08,1.56-0.17,2.15-0.69
					c0.59-0.51,0.99-1.09,0.91-2.21L281.97,75.01z"/>
			</g>
			<g>
				<g>
					<path class="st3" d="M273.18,75.63c0.28-2.39,0.28-4.79-0.02-7.18c-0.21,0.21-0.41,0.41-0.62,0.61
						c2.83,0.15,5.67-0.01,8.47-0.45c-0.25-0.14-0.5-0.29-0.76-0.43c0.62,2.43,0.84,4.93,0.8,7.43c-0.01,0.79,1.22,0.79,1.23,0
						c0.04-2.61-0.19-5.23-0.84-7.76c-0.09-0.35-0.43-0.48-0.76-0.43c-2.69,0.43-5.42,0.56-8.14,0.41c-0.3-0.02-0.65,0.3-0.61,0.61
						c0.29,2.39,0.3,4.79,0.02,7.18c-0.04,0.33,0.31,0.61,0.62,0.61C272.93,76.25,273.14,75.96,273.18,75.63L273.18,75.63z"/>
				</g>
			</g>
			<g>
				<g>
					<path class="st3" d="M272.84,70.63c2.69,0.6,5.44,0.66,8.15,0.18c0.78-0.14,0.45-1.32-0.33-1.19c-2.48,0.44-5.04,0.37-7.5-0.18
						C272.4,69.27,272.07,70.46,272.84,70.63L272.84,70.63z"/>
				</g>
			</g>
		</g>
		<g>
			<g>
				<path class="st3" d="M348.55,75.09c-0.73-0.29-1.48-0.58-2.24-0.57c-0.76,0.01-1.55,0.41-1.82,1.15
					c-0.18,0.51-0.1,1.09,0.07,1.62c0.15,0.48,0.4,0.97,0.82,1.23c0.34,0.22,0.76,0.26,1.14,0.21c0.77-0.1,1.47-0.55,1.9-1.21
					c0.43-0.66,0.63-1.46,0.37-2.39L348.55,75.09z"/>
			</g>
			<g>
				<g>
					<path class="st3" d="M348.9,75.94c-0.33-2.54-0.95-5.01-1.89-7.4c-0.12-0.31-0.41-0.52-0.76-0.43
						c-0.29,0.08-0.55,0.45-0.43,0.76c0.89,2.27,1.52,4.65,1.84,7.07c0.04,0.33,0.25,0.61,0.62,0.61
						C348.59,76.56,348.95,76.27,348.9,75.94L348.9,75.94z"/>
				</g>
			</g>
			<g>
				<g>
					<path class="st3" d="M349.41,67.65c-1.01-0.14-2.04-0.06-2.99,0.34c-0.15,0.06-0.28,0.13-0.37,0.28
						c-0.08,0.13-0.11,0.33-0.06,0.47c0.09,0.29,0.44,0.56,0.76,0.43c0.21-0.08,0.42-0.16,0.63-0.22c0.11-0.03,0.22-0.05,0.32-0.08
						c0.05-0.01,0.09-0.02,0.14-0.03c0.02,0,0.2-0.03,0.11-0.02c-0.1,0.01,0.09-0.01,0.11-0.01c0.05,0,0.1-0.01,0.14-0.01
						c0.11-0.01,0.22-0.01,0.33-0.01c0.11,0,0.22,0,0.33,0.01c0.05,0,0.09,0.01,0.14,0.01c0.03,0,0.24,0.03,0.07,0.01
						c0.17,0.02,0.32,0.03,0.47-0.06c0.13-0.07,0.25-0.22,0.28-0.37C349.91,68.11,349.75,67.7,349.41,67.65L349.41,67.65z"/>
				</g>
			</g>
		</g>
		<g>
			<g>
				<path class="st3" d="M375.07,80.67c-0.7-0.28-1.42-0.56-2.16-0.55c-0.73,0.01-1.49,0.39-1.75,1.1
					c-0.17,0.49-0.09,1.05,0.07,1.56c0.15,0.46,0.39,0.93,0.79,1.19c0.33,0.21,0.73,0.25,1.1,0.2c0.74-0.1,1.41-0.53,1.83-1.16
					c0.42-0.63,0.6-1.41,0.36-2.3L375.07,80.67z"/>
			</g>
			<g>
				<g>
					<path class="st3" d="M375.43,81.49c-0.32-2.45-0.92-4.83-1.82-7.13c-0.12-0.31-0.41-0.52-0.76-0.43
						c-0.29,0.08-0.55,0.45-0.43,0.76c0.86,2.19,1.47,4.48,1.77,6.8c0.04,0.33,0.25,0.62,0.61,0.62
						C375.11,82.1,375.47,81.82,375.43,81.49L375.43,81.49z"/>
				</g>
			</g>
			<g>
				<g>
					<path class="st3" d="M375.91,73.48c-0.98-0.14-1.97-0.06-2.89,0.32c-0.15,0.06-0.28,0.13-0.37,0.28
						c-0.08,0.13-0.11,0.33-0.06,0.47c0.09,0.29,0.44,0.56,0.76,0.43c0.2-0.08,0.4-0.15,0.61-0.21c0.1-0.03,0.21-0.05,0.31-0.07
						c0.04-0.01,0.09-0.02,0.14-0.02c0.02,0,0.2-0.03,0.1-0.02c-0.1,0.01,0.08-0.01,0.1-0.01c0.05,0,0.09-0.01,0.14-0.01
						c0.11-0.01,0.21-0.01,0.32-0.01c0.11,0,0.21,0,0.32,0.01c0.05,0,0.09,0.01,0.14,0.01c0.03,0,0.24,0.03,0.06,0.01
						c0.17,0.02,0.32,0.03,0.47-0.06c0.13-0.07,0.25-0.22,0.28-0.37C376.4,73.94,376.25,73.53,375.91,73.48L375.91,73.48z"/>
				</g>
			</g>
		</g>
	</g>
</g>
<g id="Character_00000093880465464171736750000003143159315730087871_">
	<g>
		<g>
			<g>
				<g>
					<path class="st5" d="M299.83,271.7c0,0,29.39,71.03,51.14,61.34c21.76-9.69,61.46-61.36,61.46-61.36l-8.19-11.09
						c0,0-18.77,12.17-31.61,20.09c-12.83,7.91-21.86,14.94-21.86,14.94l-15.64-36.83L299.83,271.7z"/>
				</g>
				<g>
					<g>
						<path class="st2" d="M350.12,295.98c-2.53,5.1-2.74,11.34-1.62,16.84c0.27,1.33,2.59,1.05,2.41-0.33
							c-0.7-5.5-0.11-10.43,0.74-15.87C351.78,295.77,350.57,295.05,350.12,295.98L350.12,295.98z"/>
					</g>
				</g>
				<g>
					<g>
						<g>
							<g>
								<path class="st3" d="M423.12,264.35c1.27,0.64,1.27,2.45-0.01,3.08c-3.68,1.82-7.29,3.41-9.84,6.58
									c-6.97,8.67-21.42,25.18-25.61,29.97c-0.65,0.75-1.79,0.77-2.51,0.08c-6.44-6.23-11.37-14.42-14.25-21.01
									c-0.33-0.76-0.06-1.64,0.63-2.1l24.72-15.94c0.09-0.06,0.17-0.12,0.25-0.19c2.01-1.91,3.53-7.23,5.15-8.68
									C403.26,254.69,416.95,261.27,423.12,264.35z"/>
							</g>
						</g>
						<g>
							<g>
								<path class="st2" d="M445.39,294.47l-23.73-11.81c-2.48-1.16-5.87-1.72-9.7-1.99c0,0,0.57-8.95-3.56-14.76
									c-4.13-5.81-9.93-6.65-9.93-6.65c3.78-4.36,7.41-8.47,10.27-11.11c0,0,17.14,5.48,28.78,20.55
									c11.64,15.07,12.3,27.98,12.3,27.98L445.39,294.47z"/>
							</g>
						</g>
						<g>
							<g>
								<path class="st1" d="M452.05,297.53c-0.65-0.18-1.21-0.41-2.23-0.85c0,0-0.07,0.1,0,0c-0.02-0.42-1-12.99-12.44-27.81
									c-11.64-15.07-28.63-20.72-28.63-20.72c1.87-1.72,3.62-3,4.85-3.17c0.14-0.02,0.3-0.02,0.46,0
									c0.34,0.04,0.75,0.16,1.21,0.36c6.61,2.83,24.44,20.77,30.8,28.46c8.39,10.13,8.79,17.72,7.81,21.42
									C453.32,297.11,452.72,297.72,452.05,297.53z"/>
							</g>
						</g>
						<g>
							<g>
								<path class="st2" d="M412.79,280.48c0,0-2.16,7.83-7.41,7.15c-4.83-0.63-7.09-12.46-3.21-14.63
									c3.44-1.93,7.79-3.89,6.23-7.1s-9.25-6.31-9.54-6.54l5.32-3.91l10.36,3.68l6.01,8.19l-0.69,8.3l0.51,6.49
									C418.98,281.49,415.82,280.93,412.79,280.48z"/>
							</g>
						</g>
						<g>
							<g>
								<g>
									<path class="st1" d="M415.43,272.38c-0.84,3-0.28,6.17,1.63,8.66c0.47,0.62,1.49-0.04,1.02-0.67
										c-1.69-2.29-2.29-5-1.62-7.78C416.61,271.93,415.61,271.74,415.43,272.38L415.43,272.38z"/>
								</g>
							</g>
						</g>
						<g>
							<g>
								<g>
									<path class="st1" d="M425.17,283.74c-1.08-3.03-1.24-5.48-0.43-8.6c0.21-0.83-1.04-1.24-1.4-0.48
										c-1.36,2.88-0.95,6.98,1.13,9.41C424.74,284.39,425.33,284.2,425.17,283.74L425.17,283.74z"/>
								</g>
							</g>
						</g>
						<g>
							<g>
								<g>
									<path class="st1" d="M431.23,286.55c-0.11-1.29-0.58-2.52-0.67-3.83c-0.09-1.41,0.04-2.81,0.34-4.19
										c0.21-0.99-1.27-1.28-1.53-0.31c-0.68,2.57-0.76,6.44,1.09,8.59C430.71,287.09,431.27,287.01,431.23,286.55L431.23,286.55z
										"/>
								</g>
							</g>
						</g>
						<g>
							<g>
								<path class="st1" d="M404.35,252.62c0,0,15.34,9.59,19.87,9.92c4.52,0.33,6.67-1.03,6.67-1.03l2.75,2.69
									c0,0-4.29,3.61-11.55,0.85c-7.26-2.76-20.12-9.8-20.12-9.8L404.35,252.62z"/>
							</g>
						</g>
						<g>
							<g>
								<g>
									<path class="st2" d="M399.49,259.22c2.34-2.66,4.83-5.2,7.35-7.68c2.01-1.97,4.06-4.25,6.43-5.79
										c1.45-0.94,4.5,1.63,5.64,2.47c2.54,1.86,4.92,3.92,7.26,6.03c5.35,4.82,10.47,9.93,15.35,15.23
										c4.87,5.29,9.77,11.06,11.58,18.19c0.65,2.55,0.96,5.52,0.03,8.04c-0.25,0.68-0.48,1.44-1.24,1.15
										c-0.64-0.24-1.25-0.69-1.84-1.03c-1.33-0.77-2.64-1.65-4.04-2.28c-0.65-0.29-1.14,0.7-0.49,0.99
										c1.33,0.6,2.57,1.43,3.83,2.16c0.83,0.48,2.12,1.57,3.15,1.39c1.36-0.24,1.84-2.27,2.06-3.4c0.2-1.03,0.27-2.09,0.23-3.13
										c-0.23-7.56-4.98-14.34-9.76-19.83c-4.93-5.65-10.23-11-15.71-16.11c-2.67-2.49-5.4-4.93-8.28-7.18
										c-1.89-1.47-4.29-3.58-6.74-3.99c-1.12-0.19-1.85,0.5-2.67,1.17c-1.35,1.11-2.62,2.31-3.89,3.51
										c-3.14,3-6.21,6.1-9.09,9.36C398.19,259.03,399.02,259.76,399.49,259.22L399.49,259.22z"/>
								</g>
							</g>
						</g>
					</g>
					<g>
						<g>
							<path class="st1" d="M392.73,296.5c-4.6-5.98-9.11-12.15-12.11-19.14c-0.17-0.4-0.84-0.12-0.71,0.3
								c2.4,7.45,6.12,14.22,12.39,19.17C392.52,297,392.94,296.77,392.73,296.5L392.73,296.5z"/>
						</g>
					</g>
					<g>
						<g>
							<path class="st1" d="M390.07,300.76c-5.19-6.57-10.13-13.44-13.42-21.2c-0.17-0.4-0.84-0.12-0.71,0.3
								c2.7,8.26,6.87,15.73,13.75,21.29C389.96,301.36,390.29,301.03,390.07,300.76L390.07,300.76z"/>
						</g>
					</g>
				</g>
			</g>
			<g>
				<path class="st3" d="M325.02,230.39c0,0,16.71,32.66,15.26,35.18c-1.45,2.52-35.12,29.13-38.49,26.23
					c-3.37-2.91-9.91-14.05-9.91-14.05L325.02,230.39z"/>
			</g>
			<g class="st6">
				<path class="st2" d="M337.4,256.32c0.25,0.6,0.49,1.17,0.72,1.73c-0.13,0.01-0.27,0.03-0.43,0.02
					C336.56,258.06,336.91,257,337.4,256.32z M320.94,238.76c0.07-0.74-0.37-1.16-0.89-1.26l-1.19,1.71
					C319.46,240.14,320.98,240.31,320.94,238.76z M309.76,274.02c-1.19,0.48-2.24,2.17-0.47,2.54
					C310.51,276.61,311.66,274.45,309.76,274.02z M301.6,266.2c-0.32,0.26-0.65,0.53-0.95,0.79c-0.25,1.77,1.22,2.03,2.31,1.29
					C303.02,267.42,302.62,266.34,301.6,266.2z M312.26,273.73c1.36,0,1.57-1.75,0.42-2.31
					C310.62,271.59,310.3,272.99,312.26,273.73z M305.99,278.56c1.05,1.18,2.77-0.42,1.89-1.73
					C306.74,276.53,305.09,277.23,305.99,278.56z M310.52,285.89c0.54-2.12-2.95-1.28-2.24,0.56
					C309.27,287.07,310.25,287.01,310.52,285.89z M322.45,263.3c1.29,0.14,1.72-1.56,0.79-2.23c-0.48-0.36-0.75-0.03-1.11,0.25
					C321.02,261.51,321.39,263.41,322.45,263.3z M314.27,273.95c-0.3,0.48-0.57,0.89-0.83,1.3
					C314.96,278.51,317.35,274.42,314.27,273.95z M313.77,265.6c1.23,0.8,2.39-0.11,2.02-1.5c-0.31-0.21-0.57-0.39-0.85-0.59
					C314.04,263.7,313.25,264.61,313.77,265.6z M326.15,274.81c-0.53-0.23-0.94-0.89-1.74-0.52c-0.17,0.26-0.36,0.56-0.59,0.9
					C324.38,276.9,326.61,276.97,326.15,274.81z M308.24,280.19c0.09,1.63,1.98,1.83,2.5,0.36
					C310.1,278.89,309.33,278.95,308.24,280.19z M334.9,269.41c-0.64,0.31-0.58,0.85-0.22,1.29c0.58-0.48,1.13-0.94,1.64-1.37
					C335.96,269.14,335.45,269.13,334.9,269.41z M330.53,247.88c-0.86,0.35-0.86,0.35-1.2,1.25c0.14,0.35,0.32,0.7,0.51,1.04
					C331.63,250.62,332.41,248.22,330.53,247.88z M304.28,276.51c1.39-0.7,1.89-2.3-0.18-2.33
					C302.74,274.39,303.07,276.22,304.28,276.51z M306.15,268.42c1.86,0.66,2.84-2.24,0.52-2.22
					C305.88,266.61,305.56,267.79,306.15,268.42z M298.06,270.77c1.21,0.68,1.71,0.52,2.33-0.77
					C299.81,268.2,297.6,268.97,298.06,270.77z M294.28,274.33l-1.16,1.66C294.1,277.09,295.92,275.59,294.28,274.33z M311.56,276.7
					c-1.1,1.52-0.11,2.87,1.56,1.8C313.46,277.44,312.56,276.15,311.56,276.7z M306.34,257.85c0.91,0.33,1.55-0.09,1.91-0.93
					c-0.25-0.49-0.68-0.84-1.1-0.99l-1.17,1.67C306.04,257.74,306.13,257.81,306.34,257.85z M312.55,258.27
					c0.77-0.21,0.18-1.23,0.67-1.78C311.25,254.38,309.89,258.43,312.55,258.27z M334.98,258.65c-0.04,0.35-0.18,0.68-0.41,0.94
					c0.38,0.82,0.38,0.82,1.37,1.28c0.72-0.48,1.03-1.14,0.93-1.98C335.83,258.47,335.83,258.47,334.98,258.65z M316.27,257.48
					c1.02,1.44,1.68,0.57,2.31-0.53C318.3,255.46,315.88,255.71,316.27,257.48z M318.88,275.59c0.5,1.7,2.24,0.69,2.29-0.77
					C320.36,273.83,318.78,274.16,318.88,275.59z M322.86,237.35c0.82-0.72,1.52-2.24-0.14-2.47c-0.29,0.19-0.59,0.38-0.91,0.59
					c-0.1,0.3-0.19,0.6-0.29,0.91C321.86,236.88,322.13,237.65,322.86,237.35z M330.38,242.64c-1.85,0.25-0.96,3.02,0.72,2.29
					c0.17-0.32,0.36-0.69,0.58-1.09c-0.01-0.02-0.02-0.05-0.03-0.07C331.2,243.36,330.88,242.92,330.38,242.64z M321.58,257.35
					c0.53,1.14,2.13,1.11,2.08-0.31C323.83,255.2,320.86,255.88,321.58,257.35z M332.46,250.78c-0.19,0.43-0.65,0.74-0.7,1.34
					c0.8,1.2,2.34,0.75,2.56-0.65C333.76,251.05,333.31,250.49,332.46,250.78z M292.18,278.25c0.14-0.18,0.26-0.38,0.22-0.69
					c-0.07-0.09-0.14-0.17-0.21-0.25l-0.3,0.43C291.88,277.75,291.99,277.93,292.18,278.25z M311.09,288.04
					c0.36-0.23,0.73-0.45,1.1-0.69C311.74,287.19,311.31,287.35,311.09,288.04z M324.63,258.71c-0.92,0.34-0.33,1.26-0.32,2.05
					c1.22,0.28,1.57,0,1.91-1.52C325.85,258.62,325.31,258.31,324.63,258.71z M301.57,282.04c-0.83,0.22-1.18,2.45,0.13,2.08
					C303.43,284.41,303.33,281.6,301.57,282.04z M304.91,263.98c-1.64-0.8-1.85,1.03-1.09,2.11
					C304.93,266.28,306.44,264.53,304.91,263.98z M308.45,269.99c0.1,0.26,0.21,0.56,0.28,0.77c0.42,0.21,0.76,0.37,1.12,0.55
					c0.15-0.08,0.31-0.16,0.51-0.26c-0.14-0.63-0.14-0.63,0.36-1.17C310.33,268.49,308.61,268.59,308.45,269.99z M306.99,271.42
					c-1.23,0.85-1.68,2.28,0.18,2.51c0.67-0.54,0.72-0.61,1-1.61C307.85,271.9,307.46,271.75,306.99,271.42z M295.47,273.42
					c0.65,0.64,2.04-0.01,2.3-1.05c-0.41-0.78-1.12-0.91-1.67-0.65l-0.71,1.02C295.36,272.96,295.38,273.18,295.47,273.42z
					 M310.32,255.12c0.56-1.16-0.01-1.27-0.79-1.97c-0.28,0.07-0.49,0.2-0.67,0.35l-0.53,0.76c-0.04,0.1-0.08,0.2-0.12,0.32
					C309,255.56,309.16,255.59,310.32,255.12z M304.56,279.15c-0.47,0.3-0.89,0.56-1.3,0.82
					C302.79,283.04,307.43,280.76,304.56,279.15z M317.91,282.04c-1.55,0.33-2.13,1.11-0.91,2.09c0.49-0.34,0.99-0.69,1.49-1.04
					C318.47,282.57,318.42,282.06,317.91,282.04z M317.12,250.53c-2.33,1.82,1.64,3.62,1.52,0.54
					C318.11,250.88,317.65,250.72,317.12,250.53z M302.68,287.54c-0.59-0.1-1.11-0.18-1.62-0.26c-1.24,1.14,0.04,2.71,1.42,1.8
					C302.86,288.55,302.85,288.05,302.68,287.54z M326.76,251.56c-0.12,1.44,2.41,1.47,2.29,0.12
					C328.63,250.53,326.86,249.98,326.76,251.56z M330.26,253.11c-1.21,0.21-1.27,2.11-0.02,2.34
					C331.91,255.18,331.68,253.25,330.26,253.11z M294.91,280.71c0.31-1.5-1.02-1.71-1.84-0.98c0.3,0.49,0.65,1.05,1.03,1.66
					C294.45,281.24,294.78,280.97,294.91,280.71z M319.38,279.25c-0.18,0.5-0.36,0.97-0.51,1.38c0.83,1.6,2.09,0.82,2.15-0.64
					c-0.21-0.28-0.38-0.51-0.61-0.82C320.04,279.2,319.72,279.22,319.38,279.25z M304.14,289.75c-1.08,0.59-1.16,0.89-0.59,1.97
					c0.08,0.03,0.15,0.05,0.23,0.08c0.48-0.14,1.02-0.34,1.63-0.62c0.03-0.03,0.05-0.06,0.08-0.09
					C305.54,290.11,304.72,290.05,304.14,289.75z M297.26,278.28c0.48-0.86,0.1-1.39-0.72-1.64c-0.89,0.14-0.96,0.79-1.14,1.39
					C295.5,279.02,297.16,279.51,297.26,278.28z M313,267.36c0.08-0.58-0.59-1.18-1.18-1.06C309.21,266.77,312.87,270.31,313,267.36
					z M340.29,265.57c0.14-0.25,0.1-0.8-0.08-1.57C339.66,264.35,339.84,265.1,340.29,265.57z M305.38,259
					c-0.09-0.05-0.18-0.11-0.27-0.16l-1.23,1.76C304.74,260.83,305.74,260.3,305.38,259z M329.58,269.28
					c-0.67,0.68,0.35,1.78,1.04,2.03c1.07-0.61,0.83-1.29,0.48-2.14C330.81,268.46,330,268.9,329.58,269.28z M313.45,285.82
					c0.06,0.19,0.18,0.35,0.34,0.48c0.61-0.4,1.23-0.82,1.86-1.25C314.9,284.37,313.39,284.83,313.45,285.82z M303.46,269.39
					c-0.46,1.78,1.56,2.39,2.15,0.64C304.8,268.96,304.72,268.23,303.46,269.39z M323.84,267.21c-0.63-1.17-2.75-1.02-2.32,0.53
					C322.25,268.95,323.58,268.49,323.84,267.21z M320.34,253.32c-3.03,0.11-0.75,3.65,0.9,1.4
					C320.94,254.25,320.66,253.82,320.34,253.32z M320.57,271.04c0.14-0.36,0.3-0.75,0.48-1.21
					C319.96,267.1,317.07,271.71,320.57,271.04z M339.28,262.41c-0.12-1.03-0.85-1.06-1.68-1.24c-0.69-0.08-0.54,0.9,0.13,0.85
					C335.78,263.13,339.45,264.01,339.28,262.41z M334.76,264.31c-0.88,1.3,1.45,2.23,2.11,0.88
					C336.63,263.96,335.83,263.29,334.76,264.31z M321.66,273.43c0.53,0.06,0.95,0.48,1.46,0.22c0.25-0.42,0.48-0.81,0.74-1.24
					c-0.1-0.18-0.22-0.39-0.34-0.6c-0.62-0.04-1.18-0.06-1.67,0C321.38,272.38,321.72,272.9,321.66,273.43z M311.51,250.73
					c-0.63,0.16-0.64,1.22-0.06,1.41c0.39,0.13,0.26,0.46,0.42,0.64c1.11,0.08,1.12,0.07,1.52-1.33
					C312.88,251.08,312.17,250.59,311.51,250.73z M317.09,268.44c0.51-0.05,0.48-0.67,0.95-0.44c1.48,0.01-0.12-1.86-0.98-1.81
					C315.95,266.82,316.24,267.76,317.09,268.44z M316.16,272.79c0.77,1.16,1.62,1.1,2.53,0.15
					C318.08,271.42,316.76,271.08,316.16,272.79z M323.09,247.64c0.27-0.45,0.49-0.81,0.74-1.24
					C322.06,243.55,320.34,247.53,323.09,247.64z M333.24,260.94c-0.35,0.17-0.69,0.35-1.04,0.52c-0.69,1.73,0.42,1.89,1.85,1.48
					C334.19,262.1,334.05,261.41,333.24,260.94z M331.81,273.03c0.57-0.46,1.12-0.9,1.66-1.34
					C332.85,271.48,331.97,271.89,331.81,273.03z M302.5,273.6c0.47-1.14-0.83-2.47-1.79-1.5C300.1,273.16,301.6,274.58,302.5,273.6
					z M333.08,268.36c0.56-0.17,1.05,0.06,1.23-0.7c-0.3-1.37-1.62-1.78-2.35-0.42C332.19,267.71,332.28,268.7,333.08,268.36z
					 M311.72,263.43c3.09,0.03,0.98-3.82-0.65-1.23C311.25,262.63,311.41,263.06,311.72,263.43z M315.7,243.72l-1.04,1.49
					C315.53,244.87,315.79,244.25,315.7,243.72z M314.06,260.37c1.57,0.63,1.66-0.27,1.55-1.53c-0.38-0.31-0.69-0.54-1.13-0.49
					c-0.29,0.38-0.57,0.74-0.86,1.12C313.78,259.8,313.92,260.09,314.06,260.37z M303.85,286.45c0.57,0.76,1.56,0.09,1.54-0.63
					C305.42,283.51,301.97,285.04,303.85,286.45z M297.58,283.32c-0.06-1.11-0.96-1.69-1.91-1.01
					C294.73,283.71,296.84,285.02,297.58,283.32z M327.88,263.48c0.56-0.4,1.06-0.85,1.12-1.63
					C327.56,259.96,325.74,262.95,327.88,263.48z M319.6,250.16c0.29-0.06,0.6-0.12,0.89-0.18c0.57-0.79,0.57-0.79,0.46-1.61
					c-0.32-0.15-0.67-0.32-1.04-0.49C318.96,248.21,318.74,249.62,319.6,250.16z M330.89,263.79c-0.85-0.31-1.26,0.53-1.72,1.09
					c0.43,0.27,0.43,0.27,0.58,0.54c0.55,1.09,1.62,0.12,1.94-0.62C331.42,264.45,331.15,264.12,330.89,263.79z M306.64,282.09
					c-0.65,0.29-0.62,0.89-0.67,1.48c0.45,0.46,0.96,0.73,1.69,0.56C308.8,283.16,307.74,282.26,306.64,282.09z M317.11,276.99
					c-0.55,0-0.87,0.27-0.94,0.8C317.99,280.85,319.8,276.57,317.11,276.99z M307.5,263.25c0.29-0.35,0.59-0.68,0.72-1.25
					C306.16,259.52,304.83,263.21,307.5,263.25z M332.6,247.33c0.37,0.05,0.57,0.07,0.75,0.05c-0.27-0.57-0.54-1.14-0.81-1.71
					C331.93,246.01,331.8,246.55,332.6,247.33z M310.61,259.15c-0.72-0.78-1.57-0.77-2.14,0.17
					C308.7,261.19,310.55,261.13,310.61,259.15z M318.98,265.38c0.32,0.19,0.87-0.03,1.11,0.44c1.28,0.03,0.94-1.43,0.23-2.03
					c-0.49,0.21-1.09-0.11-1.51,0.41C318.87,264.6,318.81,264.99,318.98,265.38z M320.73,260.4c0.71-1.12,0.2-2.33-1.19-1.62
					c-0.79,0.23-0.13,1.04-0.37,1.56C319.94,260.78,319.94,260.78,320.73,260.4z M315.73,269.52c-0.82-0.77-1.88-0.17-2.27,0.75
					C314.07,271.48,316.19,271.21,315.73,269.52z M325.41,269.01c-1.28,0.55-1.79,2.1-0.1,2.31
					C326.21,270.74,326.84,269.39,325.41,269.01z M326.96,246.15c-0.33,1.25,1,2,1.85,1.02
					C329.43,245.81,327.61,245.06,326.96,246.15z M326.17,243.36c-0.13-0.26-0.58-0.3-0.86-0.15
					C321.8,243.23,326.99,247.17,326.17,243.36z M324.67,239.51c0.34,0.08,0.68,0.17,1.06,0.27c0.66-0.69,0.42-1.38,0.23-2.06
					C324.98,236.89,323.79,238.5,324.67,239.51z M329.37,239.09c-0.02-0.04-0.04-0.08-0.06-0.12c-0.01,0.02-0.01,0.04-0.02,0.06
					C329.31,239.06,329.34,239.07,329.37,239.09z M328.22,271.57c-0.51,0.17-1.05,0.23-1.47,0.62c0,0.4,0,0.79,0,1.22
					c0.65,0.12,2.07,0.76,1.79-0.36C328.55,272.46,328.8,272.02,328.22,271.57z M299.37,274.23c-0.4,0.1-0.75,0.19-1.07,0.27
					c-0.11,0.35-0.21,0.65-0.3,0.92C298.77,277.2,301.73,275.14,299.37,274.23z M316.21,246.83c0.79,0.5,1.85,1.05,2.2-0.25
					C318.35,244.88,316.18,245.36,316.21,246.83z M328.02,242.38c-0.03-0.61,0.79-0.78,0.76-1.35c-0.19-0.26-0.34-0.46-0.48-0.65
					C326.26,240.02,326.1,242.6,328.02,242.38z M313.4,283.07c-0.39-0.53-0.53-1.37-1.43-0.86c-0.12,0.96-0.12,0.96-0.89,1.44
					c0.26,0.25,0.5,0.5,0.71,0.7C312.67,284.26,313.22,283.91,313.4,283.07z M323.4,240.63c-0.97-0.6-1.47-0.34-1.88,0.72
					C322.24,243.15,323.89,242.09,323.4,240.63z M333.38,255.89c-0.62,0.23-1.16,0.52-1.42,1.16c0.39,0.61,0.99,0.76,1.53,1
					C334.38,257.62,334.34,256.31,333.38,255.89z M328.08,257.97c1.88-0.93-0.2-3.03-1.35-1.18
					C326.89,257.7,327.35,257.98,328.08,257.97z M328.83,267.71c0.56-1.46-2.08-1.91-1.9-0.27h0
					C326.73,268.67,328.43,268.35,328.83,267.71z M337.66,268.17c0.46-0.4,0.86-0.77,1.21-1.09c-0.38-0.24-0.74-0.47-1.14-0.72
					C336.84,266.99,337.02,267.77,337.66,268.17z M324.1,264.61c0.19,0.37,0.37,0.71,0.56,1.07c0.47-0.07,0.92,0.41,1.36-0.16
					c0-0.37,0-0.79,0-1.36c-0.44-0.15-0.83-0.29-1.25-0.43C324.53,264.04,324.32,264.31,324.1,264.61z M298.07,280
					c-0.12,0.97,0.42,1.01,1,1.43C301.36,281.82,299.63,278.4,298.07,280z M318.05,242.07c0.09-0.27,0.17-0.54,0.31-0.97
					c-0.12-0.26-0.27-0.44-0.43-0.57l-1.17,1.67c0.02,0.04,0.03,0.08,0.05,0.12C317.31,242.54,317.68,242.27,318.05,242.07z
					 M325.32,232.32c-0.39,0.25-0.78,0.49-1.23,0.77c0.12,0.44,0.22,0.82,0.32,1.2c0.89,0.72,1.46,0.03,1.65-0.91
					C325.89,232.96,325.77,232.54,325.32,232.32z M335.62,253.38c-0.81,0.13-0.67,0.9-1.03,1.37c0.45,0.34,0.84,0.63,1.24,0.93
					c0.61-0.29,0.64-0.77,0.75-1.23c-0.09-0.21-0.19-0.42-0.28-0.64C336.07,253.68,335.85,253.54,335.62,253.38z M331.48,259.92
					c-0.37-1.45-1.83-2.13-2.11-0.25C329.62,260.78,330.83,260.48,331.48,259.92z M326.79,236.67c0.25,0.17,0.51,0.34,0.82,0.55
					c0.27-0.12,0.47-0.25,0.65-0.37c-0.27-0.54-0.52-1.06-0.77-1.55C327.04,235.39,326.67,235.79,326.79,236.67z M318.87,244.05
					c0.39,0.33,0.76,0.65,1.1,0.95c0.57-0.17,0.95-0.49,1.31-1.05C320.84,242.55,319.51,242.96,318.87,244.05z M300.18,285.79
					c-0.5-1.02-0.5-1.02-1.63-0.85C297.51,286.55,299.41,287.63,300.18,285.79z M308.19,288.49c-0.26-0.4-0.63-0.74-1.11-1.07
					c-0.54,0.24-0.87,0.6-1.18,1.03C306.59,289.49,307.6,289.86,308.19,288.49z M315.45,248.33c-0.79-0.05-1.49,0.23-1.71,0.98
					c0.4,0.55,0.95,0.7,1.48,0.92c0.29-0.36,0.56-0.69,0.84-1.05C315.84,248.88,315.64,248.59,315.45,248.33z M302.56,278.36
					c-0.03-0.45-0.06-0.84-0.09-1.27c-0.82-0.6-1.46,0.31-1.91,0.95C301.29,279.15,301.6,279.02,302.56,278.36z M323.86,278.11
					c-0.15-1.28-1.77-2.05-2.24-0.3C322.16,278.46,323.39,278.71,323.86,278.11z M310.6,264.58c-0.82-1.01-1.98-1.11-2.22,0.35
					C309.15,265.98,310.17,265.82,310.6,264.58z M329.67,274.73c0.2-0.16,0.4-0.32,0.6-0.48
					C329.94,274.31,329.76,274.45,329.67,274.73z M324.56,248.43c-0.03,0.4-0.07,0.78-0.1,1.18
					C327.26,251.04,326.8,247.33,324.56,248.43z M324.22,254.46c-0.38,1.42,2.05,0.82,2.08-0.38
					C324.67,252.86,325.27,253.28,324.22,254.46z M316.5,262.26c0.15,0.26,0.29,0.5,0.44,0.76c0.52,0.01,1.07,0.29,1.47-0.3
					C318.11,261.24,317.12,260.35,316.5,262.26z M313.49,280.32c0.8,1.75,2.21,1.54,2.33-0.46
					C314.93,280.43,313.84,279.31,313.49,280.32z M315.03,255.21c0.38-0.16,0.78-0.32,1-0.8c-0.29-0.69-0.87-0.72-1.39-0.83
					C313.78,254.63,314.04,254.9,315.03,255.21z M322.35,252.63c1.45,0.26,1.32-1.27,0.14-1.61
					C321.62,251.19,321.34,252.59,322.35,252.63z"/>
			</g>
		</g>
		<g>
			<g>
				<path class="st3" d="M294.51,98.51c-1.2,5.36-5.7,8.92-10.04,7.94c-4.34-0.97-6.89-6.11-5.69-11.47
					c1.2-5.36,5.7-8.92,10.04-7.94C293.17,88.02,295.72,93.15,294.51,98.51z"/>
			</g>
			<g>
				<g>
					<path class="st2" d="M282.74,104.66c-1.26-6.54-0.51-12.05,4.83-16.57c0.25-0.21-0.07-0.62-0.34-0.45
						c-5.51,3.5-8.58,11.28-4.79,17.14C282.54,104.94,282.77,104.84,282.74,104.66L282.74,104.66z"/>
				</g>
			</g>
		</g>
		<g>
			<g>
				<path class="st2" d="M296.91,77.35c-1.3-0.06-2.39-1.22-2.6-2.5c-0.21-1.28,0.33-2.61,1.22-3.56s2.07-1.57,3.29-2.01
					c3.61-1.32,7.72-1.23,11.28,0.24c3.96,1.64,3.55,4.33,4.13,4.13c2.34-0.81,12.66-0.47,14.93,0.51c1.25,0.54,2.2,1.73,2.44,3.06
					c0.24,1.34-0.22,2.79-1.2,3.73c1.52,0.51,3.06,1.1,4.28,2.14c1.22,1.04,2.09,2.62,1.9,4.21c-0.2,1.59-1.72,3.03-3.3,2.78
					c1.22-0.08,2.29,1.09,2.34,2.31c0.05,1.22-0.75,2.37-1.81,2.98c-1.06,0.61-2.33,0.76-3.55,0.69c-4.13-0.23-7.84-2.75-10.53-5.89
					"/>
			</g>
			<g>
				<g>
					<path class="st2" d="M319.22,73.84c1.72,0.21,3.09,0.15,4.64-0.75c1.38-0.81,2.34-1.92,2.95-3.39c0.24-0.57-0.65-0.87-0.96-0.4
						c-1.43,2.17-3.94,4.03-6.63,4.17C318.97,73.48,318.98,73.81,319.22,73.84L319.22,73.84z"/>
				</g>
			</g>
			<g>
				<path class="st5" d="M320.13,84.75c-5.88-11.72-22.53-12.92-30.06-2.18c-2.38,3.39-3.93,8.15-4.82,14.69
					c-2.47,18.24,12.92,20.66,12.92,20.66l0.23,15.29l17.12-1.24l-1.71-16.68c0,0,7.44-16.27,7.65-25.02
					C321.5,88.32,320.99,86.47,320.13,84.75z"/>
			</g>
			<g>
				<path class="st2" d="M317.55,74.25c10.09,4.06,10.25,10.08,9.24,16.1c-2.11,12.64-12.99,24.94-12.99,24.94l2.74-14.26
					c0,0-5.24-3.05-3.08-9.57c1.12-3.39,3.21-2.87,3.34-5.87c0.41-9.67-15.54-10.4-15.54-10.4"/>
			</g>
			<g>
				<path class="st2" d="M293.14,89.04c-0.12,0.66,0.27,1.29,0.87,1.39c0.6,0.11,1.18-0.35,1.3-1.01c0.12-0.66-0.27-1.29-0.87-1.39
					C293.84,87.93,293.26,88.38,293.14,89.04z"/>
			</g>
			<g>
				<path class="st2" d="M304.25,91.2c-0.12,0.66,0.27,1.29,0.87,1.39c0.6,0.11,1.18-0.35,1.3-1.01c0.12-0.66-0.27-1.29-0.87-1.39
					C304.95,90.09,304.37,90.54,304.25,91.2z"/>
			</g>
			<g>
				<path class="st2" d="M313.22,86.5c-1.02-0.87-2.51-1.47-3.8-1.78c-1.2-0.29-2.35-0.12-3.55-0.2c-0.69-0.05-0.69-1.07-0.12-1.29
					c2.9-1.11,6.02,0.68,7.94,2.71C314.01,86.28,313.59,86.81,313.22,86.5L313.22,86.5z"/>
			</g>
			<g class="st7">
				<path class="st2" d="M303.99,95.91c-0.17,0.99,1.23,2.06,3.13,2.39c1.9,0.34,3.59-0.19,3.76-1.18c0.17-0.99-1.23-2.06-3.13-2.39
					C305.85,94.4,304.16,94.93,303.99,95.91z"/>
			</g>
			<g class="st7">
				<path class="st2" d="M288.13,93.11c-0.17,0.99,1.23,2.06,3.13,2.39c1.9,0.34,3.59-0.19,3.76-1.18c0.17-0.99-1.23-2.06-3.13-2.39
					C289.98,91.6,288.3,92.13,288.13,93.11z"/>
			</g>
			<g>
				<path class="st2" d="M294.38,81.19c2.42-1.94,5.89-0.91,6.93,1.95c1.46,4.02-1.31,9.62-4.08,12.46
					c-0.64,0.65-1.58-0.17-1.07-0.91c1.66-2.38,3.34-4.79,3.93-7.7c0.4-2.02,0.32-4.48-1.98-5.35c-0.96-0.36-2.49-0.26-3.47,0.04
					C294.33,81.78,294.13,81.39,294.38,81.19L294.38,81.19z"/>
			</g>
			<g>
				<path class="st2" d="M306.92,116.76c-3.28,1.92-7.22,2.31-10.89,1.36c-0.72-0.19-0.55-1.28,0.2-1.16
					c3.63,0.61,7.05,0.42,10.65-0.3C306.94,116.65,306.97,116.73,306.92,116.76L306.92,116.76z"/>
			</g>
			<g>
				<g>
					<path class="st2" d="M294.68,72.92c3.74-6.4,11.35-7.65,16.32-1.79c0.31,0.37,0.93-0.11,0.67-0.52
						c-4.32-6.6-15-5.73-17.21,2.21C294.41,72.96,294.6,73.04,294.68,72.92L294.68,72.92z"/>
				</g>
			</g>
			<g>
				<g>
					<path class="st2" d="M295.65,76.67c-0.86-1.4-1.94-2.59-2.58-4.12c-0.7-1.68-0.93-3.4-0.75-5.21c0.1-1.04-1.5-1.02-1.61,0
						c-0.38,3.46,1.06,8.4,4.78,9.55C295.61,76.92,295.72,76.78,295.65,76.67L295.65,76.67z"/>
				</g>
			</g>
			<g>
				<g>
					<path class="st2" d="M299.42,100.13c1.88,0.08,3.88-1.39,4.45-3.19c0.26-0.81-0.85-1.15-1.29-0.54
						c-0.46,0.64-0.85,1.26-1.44,1.8c-0.56,0.5-1.26,0.92-1.9,1.31C298.96,99.68,299.09,100.12,299.42,100.13L299.42,100.13z"/>
				</g>
			</g>
		</g>
		<g>
			<g>
				<path class="st5" d="M239.51,170.23c0,0-5.68,15.01-0.16,21.79c5.52,6.77,17.54,1.27,23.06-3.29
					c5.52-4.56,10.72-12.47,10.72-12.47s12.75-44.83,12.64-44.66c-0.11,0.17-9.38,2.02-12.39,8.29c-3.01,6.27-6.06,13.34-8.57,17.11
					C262.29,160.74,239.51,170.23,239.51,170.23z"/>
			</g>
			<g>
				<path class="st5" d="M256.25,146.1c0,0-3.62,0.85-3.99,1.94c0,0-1.96-1.7-4.99-0.49c-3.04,1.21-11.3,6.56-11.78,9.47
					c-0.49,2.92,4.47,14.4,4.47,14.4l5.89-1.15c0,0,1.3,4.85,4.7,3.4c3.4-1.46,5.71-5.95,5.71-5.95s5.33-2.16,6.06-6.04
					c0.73-3.89,2.2-7.32,0.62-9.38S258.15,145.52,256.25,146.1z"/>
			</g>
			<g>
				<g>
					<path class="st2" d="M236.25,159.68c1.71,3.06,3.49,6.31,6.24,8.56c1.16,0.95,3.11,1.68,4.2,0.2c0.99-1.34,0.15-3.4-0.42-4.74
						c-0.84-1.94-2.07-3.66-3.3-5.37c-0.43-0.59-1.42-0.02-0.99,0.58c0.93,1.28,1.86,2.57,2.62,3.96c0.38,0.7,0.72,1.41,0.97,2.16
						c0.23,0.66,0.48,1.41,0.42,2.12c-0.06,0.67-0.57,1.04-1.24,0.98c-0.74-0.06-1.36-0.62-1.88-1.09c-1.13-1.03-2.1-2.22-2.96-3.49
						c-0.97-1.43-1.82-2.95-2.66-4.46C236.88,158.45,235.89,159.03,236.25,159.68L236.25,159.68z"/>
				</g>
			</g>
			<g>
				<g>
					<path class="st2" d="M247.55,167.72c1.23,0.31,2.47-0.23,3.22-1.23c0.92-1.21,0.92-2.84,0.64-4.27
						c-0.62-3.21-2.58-5.97-3.29-9.15c-0.16-0.72-1.27-0.42-1.11,0.31c0.57,2.57,1.93,4.84,2.78,7.3c0.42,1.22,0.81,2.59,0.58,3.88
						c-0.21,1.17-1.21,2.37-2.52,2.05C247.14,166.44,246.83,167.54,247.55,167.72L247.55,167.72z"/>
				</g>
			</g>
			<g>
				<g>
					<path class="st2" d="M253.14,151.39c0.97,1.63,2.12,3.16,3.41,4.54c0.51,0.54,1.32-0.27,0.81-0.81
						c-1.23-1.31-2.32-2.76-3.23-4.31C253.76,150.18,252.76,150.75,253.14,151.39L253.14,151.39z"/>
				</g>
			</g>
			<g>
				<g>
					<path class="st2" d="M256.39,155.37c-0.33,2.73-1.02,5.54-0.72,8.3c0.03,0.31,0.24,0.57,0.57,0.57c0.28,0,0.61-0.27,0.57-0.57
						c-0.3-2.76,0.39-5.57,0.72-8.3c0.04-0.31-0.29-0.57-0.57-0.57C256.62,154.79,256.43,155.06,256.39,155.37L256.39,155.37z"/>
				</g>
			</g>
			<g>
				<g>
					<path class="st2" d="M252.77,151.57c1.09,2.73,1.87,5.56,2.31,8.47c0.18,1.19,0.57,2.86-0.18,3.95
						c-0.59,0.86-1.97,1.06-2.79,0.41c-0.57-0.45-1.39,0.35-0.81,0.81c0.99,0.78,2.31,0.94,3.45,0.37c1.35-0.67,1.76-2.16,1.7-3.57
						c-0.15-3.63-1.24-7.37-2.58-10.73C253.61,150.58,252.5,150.88,252.77,151.57L252.77,151.57z"/>
				</g>
			</g>
			<g>
				<g>
					<path class="st2" d="M261.01,162.94c-1.45,1.8-2.97,3.54-4.56,5.21c-1.57,1.64-3.18,3.41-5,4.78c-0.83,0.63-1.87,1.1-2.87,0.58
						c-0.82-0.43-1.33-1.32-1.46-2.22c-0.2-1.43,0.8-2.57,1.89-3.35c1.32-0.94,2.86-1.55,4.4-2.04c0.7-0.22,0.4-1.33-0.31-1.11
						c-2.77,0.89-7.14,2.59-7.16,6.1c-0.01,1.91,1.42,3.92,3.44,4c1.2,0.05,2.25-0.62,3.14-1.36c1.04-0.86,2-1.82,2.96-2.76
						c2.25-2.22,4.36-4.56,6.34-7.02C262.28,163.19,261.47,162.37,261.01,162.94L261.01,162.94z"/>
				</g>
			</g>
			<g>
				<g>
					<path class="st2" d="M254.25,171.77c1.71,3.76,2.4,7.91,2.04,12.02c-0.06,0.74,1.08,0.73,1.15,0c0.38-4.32-0.4-8.65-2.19-12.59
						C254.94,170.52,253.95,171.1,254.25,171.77L254.25,171.77z"/>
				</g>
			</g>
			<g>
				<g>
					<path class="st2" d="M256.47,164.51c1.39-0.21,2.75-0.76,3.99-1.39c0.66-0.33,1.29-0.71,1.86-1.18
						c0.29-0.24,0.61-0.49,0.72-0.86c0.54-1.72,0.92-3.56,1.17-5.34c0.11-0.8,0.37-1.98-0.1-2.72c-0.39-0.62-1.39-0.05-0.99,0.58
						c0.06,0.09,0.02,0.02,0.02,0.04c0.02,0.05,0.03,0.1,0.04,0.15c0,0.02,0.02,0.29,0.02,0.42c0,0.4-0.04,0.8-0.1,1.2
						c-0.14,1.01-0.35,2.01-0.58,3c-0.17,0.73-0.35,1.45-0.54,2.17c-0.02,0.07-0.05,0.15-0.06,0.22c0,0.02-0.01,0.04-0.01,0.05
						c0.05-0.19,0.09-0.17-0.09,0c-0.43,0.42-0.96,0.74-1.48,1.03c-1.29,0.71-2.73,1.29-4.19,1.52
						C255.44,163.51,255.75,164.62,256.47,164.51L256.47,164.51z"/>
				</g>
			</g>
			<g>
				<g>
					<path class="st2" d="M247.69,171.53c0.66-0.57,1.62-0.77,2.46-0.52c0.79,0.24,1.45,0.89,1.7,1.68c0.1,0.29,0.4,0.49,0.71,0.4
						c0.29-0.08,0.5-0.41,0.4-0.71c-0.39-1.17-1.32-2.12-2.51-2.48c-1.24-0.38-2.61-0.03-3.58,0.81c-0.23,0.2-0.21,0.6,0,0.81
						C247.12,171.76,247.46,171.73,247.69,171.53L247.69,171.53z"/>
				</g>
			</g>
			<g>
				<g>
					<path class="st2" d="M259.51,162.46c0.01-0.12-0.02,0.12,0-0.03c0.01-0.04,0.01-0.08,0.02-0.12c0.02-0.09,0.04-0.17,0.07-0.26
						c0.02-0.08,0.05-0.15,0.08-0.23c0.04-0.12-0.05,0.09,0.01-0.01c0.02-0.04,0.03-0.07,0.05-0.11c0.08-0.16,0.17-0.31,0.27-0.45
						c0.03-0.05,0.1-0.09,0.01-0.01c0.03-0.02,0.05-0.07,0.08-0.1c0.06-0.07,0.12-0.13,0.18-0.2c0.06-0.06,0.13-0.12,0.19-0.18
						c0.03-0.03,0.06-0.05,0.09-0.08c0.09-0.08-0.09,0.06,0.01-0.01c0.14-0.1,0.28-0.19,0.43-0.27c0.04-0.02,0.07-0.04,0.11-0.05
						c0.03-0.02,0.17-0.09,0.03-0.02c0.07-0.04,0.15-0.06,0.23-0.08c0.17-0.05,0.34-0.09,0.52-0.12c0.3-0.04,0.49-0.44,0.4-0.71
						c-0.11-0.33-0.39-0.45-0.71-0.4c-0.81,0.12-1.58,0.55-2.15,1.14c-0.61,0.63-0.98,1.43-1.08,2.3c-0.03,0.3,0.29,0.59,0.57,0.57
						C259.27,163.01,259.47,162.78,259.51,162.46L259.51,162.46z"/>
				</g>
			</g>
		</g>
		<g>
			<g>
				<g>
					<path class="st5" d="M320.87,155.52c0,0,15.72,3.18,21.3,6.43c5.58,3.24,20.72,6.74,20.72,6.74s-13.72,37.95-12.75,41.82
						c1.27,5.06,6.93,6.99,9.37,1.93c3.25-6.75,31.99-43.62,22.42-54.82c-9.57-11.2-52.57-31.57-57.27-26.92
						C319.95,135.33,318.47,152.09,320.87,155.52z"/>
				</g>
				<g>
					<g>
						<path class="st2" d="M363.21,169.24c2.74-1.27,5.52-2.47,8.15-3.97c0.46-0.26,0.15-1.08-0.37-0.88
							c-2.88,1.07-5.63,2.45-8.41,3.76C361.83,168.49,362.48,169.58,363.21,169.24L363.21,169.24z"/>
					</g>
				</g>
				<g>
					<path class="st5" d="M350.19,208.87c-1.11,0.14-11.06,0.93-11.72,1.73c-0.66,0.79-5.69,11.17-5.43,14.52
						c0.26,3.35,4.9,4.1,5.29,4.85c0.4,0.75,2.06,3.26,4.34,3.26c2.28,0,5.19,0,5.19,0s4.37,2.78,6.22,1.19
						c1.85-1.59,4.77-7.89,5.43-9.31c0.66-1.41,0-12.68,0-12.68L350.19,208.87z"/>
				</g>
			</g>
			<g>
				<g>
					<path class="st3" d="M350.31,208.13c0,0,8.15,5.13,9.2,4.31c1.06-0.82,2.12-3.56,2.12-3.56l-10.29-5.13
						C351.34,203.75,350.43,207.53,350.31,208.13z"/>
				</g>
				<g>
					<path class="st2" d="M359.9,208.87c0,2.17-1.76,3.93-3.93,3.93s-3.93-1.76-3.93-3.93c0-2.17,1.76-3.93,3.93-3.93
						S359.9,206.7,359.9,208.87z"/>
				</g>
				<g>
					<g>
						<path class="st3" d="M354.32,208.93c0.16-0.23,0.31-0.45,0.53-0.64c0.07-0.07,0.16-0.13,0.27-0.18
							c-0.08,0.04,0.09-0.03,0.11-0.03c0.03-0.01,0.06-0.01,0.09-0.02c-0.05,0.01-0.05,0.01-0.01,0c0.02,0,0.21,0.01,0.11-0.01
							c0.05,0.01,0.11,0.02,0.17,0.04c-0.11-0.05,0.08,0.06-0.01-0.01c0,0,0.12,0.12,0.07,0.06c0.12,0.12,0.1,0.4,0.1,0.64
							c0,0.31,0.01,0.63,0.16,0.92c0.18,0.33,0.52,0.54,0.89,0.56c0.33,0.02,0.67-0.11,0.93-0.31c0.24-0.18,0.44-0.41,0.68-0.54
							c0.27-0.14,0.36-0.53,0.21-0.79c-0.16-0.28-0.51-0.35-0.79-0.21c-0.28,0.15-0.51,0.4-0.74,0.58c-0.1,0.08-0.15,0.08-0.26,0.12
							c0.07-0.02,0.06,0.03,0-0.01c0,0,0.13,0.06,0.09,0.07c-0.01,0-0.03-0.19-0.02-0.09c-0.01-0.06-0.01-0.12-0.01-0.19
							c0-0.15,0.01-0.3-0.01-0.45c-0.02-0.33-0.09-0.66-0.28-0.94c-0.39-0.56-1.13-0.73-1.76-0.53c-0.68,0.22-1.12,0.8-1.51,1.36
							c-0.18,0.25-0.05,0.64,0.21,0.78C353.82,209.31,354.14,209.19,354.32,208.93L354.32,208.93z"/>
					</g>
				</g>
			</g>
		</g>
		<g>
			<g>
				<g>
					<path class="st5" d="M320.65,97.75c2.43-0.87,3.79-0.02,4.59,0.82c0.79,0.84,1.17,2,1.25,3.16c0.13,1.92-0.6,3.94-2.12,5.11
						c-1.52,1.17-3.86,1.29-5.33,0.06L320.65,97.75z"/>
				</g>
			</g>
			<g>
				<g>
					<g>
						<path class="st2" d="M323.42,103.22c-0.28-0.26-1-0.49-1.36-0.56c-0.6-0.11-1.03,0.13-1.52,0.45
							c-0.57,0.37-1.28-0.36-0.82-0.89c0.56-0.65,1.52-0.92,2.35-0.75c0.4,0.08,0.82,0.28,1.11,0.57c0.34,0.34,0.3,0.63,0.41,1.07
							C323.62,103.19,323.51,103.3,323.42,103.22L323.42,103.22z"/>
					</g>
				</g>
			</g>
		</g>
		<g>
			<g>
				<path class="st5" d="M257.26,252.7c-1.31,1.09-31.78,38.84-34.92,45.51c-3.14,6.67-40.44,88.25-38.35,92.79
					c2.09,4.54,14.12,13.62,15.95,9.08c1.83-4.54,19.87-28.57,31.37-47.79c11.5-19.22,8.66-22.48,12.84-30.23
					c4.18-7.74,35-35.98,35.53-36.78C280.21,284.48,257.26,252.7,257.26,252.7z"/>
			</g>
			<g>
				<g>
					<g>
						<path class="st3" d="M172.83,414.29c-1.42-0.15-2.05-1.85-1.07-2.89c2.81-2.99,5.63-5.75,6.91-9.62
							c3.48-10.56,11.21-31.1,13.46-37.05c0.35-0.93,1.41-1.35,2.32-0.96c8.22,3.57,15.2,9.27,20.22,14.44
							c0.58,0.59,0.63,1.52,0.15,2.19l-17.05,23.84c-0.06,0.09-0.12,0.17-0.16,0.27c-1.21,2.5-0.77,8.01-1.78,9.94
							C194.81,416.36,179.68,415,172.83,414.29z"/>
					</g>
				</g>
				<g>
					<g>
						<path class="st2" d="M141.4,393.9l26.36,2.73c2.73,0.22,6.1-0.45,9.78-1.54c0,0,2.61,8.58,8.52,12.57
							c5.91,3.99,11.63,2.75,11.63,2.75c-2,5.41-3.97,10.53-5.72,14.01c0,0-17.97,0.88-34.16-9.14
							c-16.19-10.02-21.34-21.88-21.34-21.88L141.4,393.9z"/>
					</g>
				</g>
				<g>
					<g>
						<path class="st1" d="M134.09,393.37c0.67-0.06,1.28-0.04,2.39,0.02c0,0,0.03-0.12,0,0c0.17,0.39,5.5,11.82,21.42,21.68
							c16.19,10.03,34.08,9.35,34.08,9.35c-1.15,2.27-2.33,4.08-3.43,4.67c-0.12,0.07-0.27,0.12-0.43,0.16
							c-0.33,0.08-0.76,0.11-1.26,0.09c-7.18-0.33-30.18-10.87-38.83-15.83c-11.41-6.54-14.45-13.51-14.83-17.32
							C133.04,394.21,133.4,393.43,134.09,393.37z"/>
					</g>
				</g>
				<g>
					<g>
						<path class="st2" d="M176.83,395.55c0,0-0.73-8.09,4.43-9.3c4.74-1.11,11.01,9.17,8.14,12.57c-2.55,3.01-5.93,6.38-3.34,8.84
							c2.59,2.46,10.88,2.66,11.23,2.78l-3.61,5.53l-11,0.19l-8.5-5.56l-2.27-8.02l-2.75-5.9
							C170.68,396.78,173.84,396.2,176.83,395.55z"/>
					</g>
				</g>
				<g>
					<g>
						<g>
							<path class="st1" d="M177.2,404.07c-0.27-3.11-1.91-5.88-4.56-7.54c-0.66-0.41-1.38,0.56-0.72,0.99
								c2.39,1.55,3.9,3.88,4.25,6.71C176.25,404.9,177.26,404.73,177.2,404.07L177.2,404.07z"/>
						</g>
					</g>
				</g>
				<g>
					<g>
						<g>
							<path class="st1" d="M164.1,396.85c2.08,2.46,3.08,4.69,3.42,7.9c0.09,0.85,1.41,0.8,1.48-0.04
								c0.27-3.17-1.56-6.86-4.37-8.42C164.27,396.09,163.78,396.48,164.1,396.85L164.1,396.85z"/>
						</g>
					</g>
				</g>
				<g>
					<g>
						<g>
							<path class="st1" d="M157.44,396.34c0.55,1.17,1.43,2.16,1.97,3.35c0.58,1.29,0.95,2.65,1.15,4.04
								c0.15,1,1.64,0.75,1.54-0.24c-0.27-2.64-1.55-6.3-4.03-7.66C157.73,395.65,157.24,395.93,157.44,396.34L157.44,396.34z"/>
						</g>
					</g>
				</g>
				<g>
					<g>
						<path class="st1" d="M194.51,418.68c0,0-17.74-3.6-22.09-2.32c-4.35,1.28-5.89,3.3-5.89,3.3l-3.52-1.55
							c0,0,2.75-4.89,10.52-4.85c7.77,0.04,22.28,2.11,22.28,2.11L194.51,418.68z"/>
					</g>
				</g>
				<g>
					<g>
						<g>
							<path class="st2" d="M196.74,410.79c-1.26,3.31-2.69,6.56-4.19,9.78c-1.19,2.55-2.31,5.4-3.99,7.68
								c-1.03,1.39-4.78,0.05-6.15-0.33c-3.03-0.85-5.99-1.95-8.91-3.09c-6.7-2.63-13.29-5.62-19.71-8.87
								c-6.42-3.24-13.03-6.93-17.23-12.96c-1.5-2.16-2.84-4.83-2.85-7.52c0-0.72-0.05-1.52,0.76-1.52c0.68,0,1.41,0.2,2.08,0.31
								c1.52,0.25,3.05,0.62,4.59,0.72c0.71,0.05,0.82-1.05,0.11-1.1c-1.45-0.1-2.91-0.44-4.34-0.68c-0.94-0.16-2.53-0.73-3.44-0.19
								c-1.19,0.7-0.92,2.77-0.74,3.9c0.17,1.03,0.48,2.05,0.88,3.01c2.87,7,9.7,11.68,16.1,15.14c6.6,3.56,13.44,6.71,20.37,9.57
								c3.37,1.39,6.78,2.72,10.27,3.82c2.29,0.72,5.28,1.85,7.71,1.37c1.12-0.22,1.56-1.12,2.09-2.03
								c0.87-1.51,1.65-3.08,2.41-4.65c1.89-3.91,3.67-7.9,5.22-11.96C198.04,410.51,197,410.12,196.74,410.79L196.74,410.79z"/>
						</g>
					</g>
				</g>
			</g>
			<g>
				<g>
					<path class="st1" d="M190.02,373.53c6.35,3.98,12.81,8.11,17.99,13.62c0.35,0.37,0.85-0.17,0.55-0.55
						c-4.92-6.09-10.68-11.17-18.33-13.56C189.93,372.95,189.77,373.38,190.02,373.53L190.02,373.53z"/>
				</g>
			</g>
			<g>
				<g>
					<path class="st1" d="M190.96,368.58c7.12,4.34,14.26,8.98,20.01,15.13c0.35,0.37,0.86-0.17,0.55-0.55
						c-5.49-6.74-11.91-12.31-20.35-15.07C190.87,367.99,190.71,368.42,190.96,368.58L190.96,368.58z"/>
				</g>
			</g>
			<g class="st6">
				<g>
					<path class="st2" d="M244.32,273.92c0.57-0.21,1.42-0.84,0.78-1.45c-0.13-0.68-0.23-1.17-1.01-1.11
						c-0.75-0.01-1.1-0.4-1.32-0.91l-0.55,0.7C243.56,271.44,242.88,273.62,244.32,273.92z"/>
				</g>
				<g>
					<path class="st2" d="M250.69,283.09c-1.24-3.1-4.05,0.28-1.09,1.33C249.94,284,250.26,283.61,250.69,283.09z"/>
				</g>
				<g>
					<path class="st2" d="M256.62,269.02c-0.73,0.74-0.46,2.04,0.57,2.24C259.4,270.87,258.54,268.51,256.62,269.02z"/>
				</g>
				<g>
					<path class="st2" d="M251.75,279.45c-1.09,0.74-0.75,1.56,0.17,2.31C254.31,281.61,253.28,278.59,251.75,279.45z"/>
				</g>
				<g>
					<path class="st2" d="M274.04,286.32l-1.43-1.57c-0.27,0.13-0.56,0.34-0.88,0.68c0.07,0.32,0.15,0.66,0.23,0.99
						C273.13,287.06,273.78,286.81,274.04,286.32z"/>
				</g>
				<g>
					<path class="st2" d="M266.2,288.99c0-0.38,0-0.77,0-1.12c-1-1.11-1.76-0.94-2.35,0.42c0.24,0.42,0.43,0.75,0.61,1.07
						C265.37,289.41,265.37,289.41,266.2,288.99z"/>
				</g>
				<g>
					<path class="st2" d="M246.77,268.97c-0.28,0.1-0.58,0.2-0.76,0.27c-1.57,1.73,2.18,2.88,2.07,0.65
						C247.76,269.43,247.34,269.12,246.77,268.97z"/>
				</g>
				<g>
					<path class="st2" d="M262.55,292.22c1.62-0.42,1.6-2.18-0.09-2.55C261.37,290.56,261.15,291.54,262.55,292.22z"/>
				</g>
				<g>
					<path class="st2" d="M265.59,282.23c-1.37-0.49-1.88,1.71-0.78,2.15C266.51,284.5,266.95,283.34,265.59,282.23z"/>
				</g>
				<g>
					<path class="st2" d="M260.07,283.96c0.61-0.25,1.01-0.45,1.18-1.16C258.42,280.21,257.88,284.77,260.07,283.96z"/>
				</g>
				<g>
					<path class="st2" d="M254.92,281.83c-2.39,0.83-1.03,3.01,0.81,2C255.92,283,255.85,282.26,254.92,281.83z"/>
				</g>
				<g>
					<path class="st2" d="M259.87,297.52c-0.9,0.46-0.9,0.46-1.11,1.45C260.12,301.31,262.34,297.97,259.87,297.52z"/>
				</g>
				<g>
					<path class="st2" d="M245.29,282.39c0,0,0.01,0.01,0.01,0.01C245.3,282.4,245.3,282.39,245.29,282.39
						C245.29,282.39,245.29,282.39,245.29,282.39z"/>
				</g>
				<g>
					<path class="st2" d="M261.05,278.14c-0.01-1.38-1.59-2.01-2.16-0.64c0.22,0.49,0.58,0.94,0.23,1.49
						C260.05,279.46,260.5,278.78,261.05,278.14z"/>
				</g>
				<g>
					<path class="st2" d="M253.14,265.34c-0.06-0.82-0.34-1.26-0.94-1.84C249.49,264.55,251.73,266.93,253.14,265.34z"/>
				</g>
				<g>
					<path class="st2" d="M253.41,285.49c-1.01-1.1-2.31-1.33-2.35,0.42C251.26,287.31,253.26,286.76,253.41,285.49z"/>
				</g>
				<g>
					<path class="st2" d="M260.09,271.34c-0.96,0.58-1.14,0.8-1.24,1.62c0.55,0.26,0.82,0.48,1.09,1.03
						c0.46-0.39,0.86-0.73,1.29-1.09C261.12,272.15,260.44,271.87,260.09,271.34z"/>
				</g>
				<g>
					<path class="st2" d="M247.62,265.87c0.44-0.66,0.44-1.37,0.15-1.76l-1.34,1.71C246.74,265.95,247.16,265.98,247.62,265.87z"/>
				</g>
				<g>
					<path class="st2" d="M253.19,291.34c-0.09-0.36-0.18-0.73-0.29-1.16c-0.61-0.44-1.16-0.43-1.69-0.04
						c0.48,0.61,0.95,1.21,1.42,1.81C252.84,291.85,253.04,291.66,253.19,291.34z"/>
				</g>
				<g>
					<path class="st2" d="M255.96,272.17c-0.88-0.73-2.13-0.67-2.53,0.49C254.23,273.88,256.35,274.07,255.96,272.17z"/>
				</g>
				<g>
					<path class="st2" d="M246.26,281.47c1.32,0.21,1.32,0.2,1.62-1C248,278.23,244.48,280.02,246.26,281.47z"/>
				</g>
				<g>
					<path class="st2" d="M255.69,266.85c-0.96-0.78-1.63-0.32-2.22,0.61c0.17,0.86,0.9,1,1.59,1.27
						C255.44,268.16,256.04,267.72,255.69,266.85z"/>
				</g>
				<g>
					<path class="st2" d="M272.99,289.75c-0.33,0.29-0.72,0.63-1.13,0.99c0.07,0.65,0.58,1.11,1.11,1.24
						c0.39-0.4,0.76-0.77,1.1-1.12C273.83,290.44,273.8,289.8,272.99,289.75z"/>
				</g>
				<g>
					<path class="st2" d="M243,275.2c-0.48-0.26-0.44-0.96-1.09-1.13c-0.42,0.22-0.87,0.45-1.31,0.68c0,0.89,0.36,1.47,1.24,1.78
						C242.24,276.08,242.69,275.77,243,275.2z"/>
				</g>
				<g>
					<path class="st2" d="M267.88,286.79c0.98,0.08,1.22-1.41,0.59-1.96C266.76,284.09,265.83,286.42,267.88,286.79z"/>
				</g>
				<g>
					<path class="st2" d="M266.21,293.71c-0.23-0.45-0.47-0.92-0.78-1.54C262.36,293.01,264.93,295.79,266.21,293.71z"/>
				</g>
				<g>
					<path class="st2" d="M264.32,278.6c1.32,0.76,1.97,0.01,2.01-0.73l-0.94-1.03c-0.29,0.03-0.65,0.17-1.08,0.51
						C264.32,277.82,264.32,278.21,264.32,278.6z"/>
				</g>
				<g>
					<path class="st2" d="M256.76,284.82c-1.17,0.88-0.24,1.93,0.91,2.23C258.69,285.83,258.6,284.66,256.76,284.82z"/>
				</g>
				<g>
					<path class="st2" d="M275.07,287.44c-0.1,0.07-0.2,0.13-0.32,0.2c-0.11,1.13,0.33,1.6,0.82,1.67c0.39-0.4,0.62-0.64,0.62-0.64
						L275.07,287.44z"/>
				</g>
				<g>
					<path class="st2" d="M257.61,295.14c-0.8,0.05-1.26,0.45-1.3,1.32c0.02,0.05,0.04,0.08,0.06,0.13
						c0.21,0.26,0.43,0.51,0.64,0.76C257.98,297.82,259.01,295.98,257.61,295.14z"/>
				</g>
				<g>
					<path class="st2" d="M245.37,267.69c-0.01-0.16-0.05-0.29-0.09-0.43l-0.79,1.01C244.78,268.14,245.09,267.92,245.37,267.69z"/>
				</g>
				<g>
					<path class="st2" d="M257.86,279.48c-1.11-0.28-1.45,0.4-1.71,1.2c0.35,0.46,0.92,0.52,1.21,1.08
						C258.33,281.22,258.7,280.28,257.86,279.48z"/>
				</g>
				<g>
					<path class="st2" d="M268.27,291.96c0.27-0.33,0.5-0.61,0.71-0.87c-0.17-0.92-1.32-1.64-2.01-0.88
						c-0.11,1.06-0.11,1.06,0.31,1.75C267.62,291.96,267.97,291.96,268.27,291.96z"/>
				</g>
				<g>
					<path class="st2" d="M255.63,293.86c0.52-0.4,0.07-0.92-0.24-1.24c-0.59-0.37-1.1,0.28-1.67,0.71c0.34,0.42,0.67,0.84,1,1.24
						C255.1,294.62,255.44,294.45,255.63,293.86z"/>
				</g>
				<g>
					<path class="st2" d="M260.62,294.36c0.38-0.54,0.24-1.73-0.53-1.89C258.01,292.59,258.4,294.95,260.62,294.36z"/>
				</g>
				<g>
					<path class="st2" d="M265.94,297.73c-0.43,0-0.81,0-1.26,0c-1.08,1.4-0.43,1.91,0.64,1.82c0.27-0.25,0.55-0.52,0.84-0.79
						C266.03,298.44,265.97,298.13,265.94,297.73z"/>
				</g>
				<g>
					<path class="st2" d="M269.7,289.13c1.83,0.74,2.19-0.92,0.9-2.04C269.51,287.49,268.86,288.43,269.7,289.13z"/>
				</g>
				<g>
					<path class="st2" d="M251.05,275.26c0.1,0.28,0.18,0.51,0.28,0.79C254.84,277.43,252.35,272.03,251.05,275.26z"/>
				</g>
				<g>
					<path class="st2" d="M254.52,279.19c0.75-0.45,1.67-0.8,0.95-1.78c-0.29-0.94-0.97-0.59-1.64-0.27
						C254.19,277.98,253.55,278.75,254.52,279.19z"/>
				</g>
				<g>
					<path class="st2" d="M257.35,291.46c0.23,0.1,0.39,0.17,0.61,0.27c0.89-0.74,0.17-1.74-0.72-2.08
						c-0.38,0.47-0.74,0.91-1.13,1.39C256.37,291.56,257.16,292.62,257.35,291.46z"/>
				</g>
				<g>
					<path class="st2" d="M268.13,295.13c-0.91,0.28-0.91,0.28-1.43,0.81c0.09,0.69,0.57,1.14,1.06,1.26
						c0.39-0.38,0.78-0.76,1.17-1.15C268.6,295.78,268.35,295.48,268.13,295.13z"/>
				</g>
				<g>
					<path class="st2" d="M262.29,274.53c-0.2,0.12-0.48,0.12-0.7,0.17c-0.93,0.99,0.67,1.98,1.46,1.41
						C264.18,275.71,263.35,273.96,262.29,274.53z"/>
				</g>
				<g>
					<path class="st2" d="M262.51,297.18c1.95-0.45,1.42-1.84-0.28-2.39C261.63,295.48,261.71,296.78,262.51,297.18z"/>
				</g>
				<g>
					<path class="st2" d="M247.02,284.69c0.3,0.4,0.6,0.8,0.91,1.2C248,285.44,247.53,284.84,247.02,284.69z"/>
				</g>
				<g>
					<path class="st2" d="M261.58,301.83c0.23,0.11,0.44,0.21,0.66,0.32c0.28-0.16,0.73-0.5,1.29-0.99
						C263.27,300.14,261.43,299.81,261.58,301.83z"/>
				</g>
				<g>
					<path class="st2" d="M262.07,279.54c-0.22,0.26-0.43,0.5-0.7,0.82C262.9,283.86,264.82,279.53,262.07,279.54z"/>
				</g>
				<g>
					<path class="st2" d="M248.76,263.03c0.46,0.06,0.88,0.1,1.33-0.05c0.3-0.85,0.28-1.3-0.18-1.6l-1.22,1.55
						C248.71,262.97,248.74,263,248.76,263.03z"/>
				</g>
				<g>
					<path class="st2" d="M248.77,272.02c-0.14,0.26-0.24,0.44-0.32,0.59c0.09,0.65,0.58,0.93,1.07,1.34
						C251.43,273.22,250.57,271.57,248.77,272.02z"/>
				</g>
				<g>
					<path class="st2" d="M246.87,274c-2.82,1.03,1.18,3.56,1.04,0.77C247.72,274.35,247.34,274.17,246.87,274z"/>
				</g>
				<g>
					<path class="st2" d="M253.71,288.88c0.48,0.16,0.92,0.31,1.35,0.46c0.9-0.62,0.66-1.9-0.31-2.05
						C253.54,287.45,253.77,287.91,253.71,288.88z"/>
				</g>
				<g>
					<path class="st2" d="M249.12,287.44c0.41,0.54,0.83,1.07,1.24,1.61c0.15-0.06,0.3-0.14,0.42-0.28
						C250.69,287.9,249.92,287.3,249.12,287.44z"/>
				</g>
				<g>
					<path class="st2" d="M248.89,266.53c-0.84,1.64,0.58,2.36,1.69,1.14C250.58,266.95,249.42,265.5,248.89,266.53z"/>
				</g>
				<g>
					<path class="st2" d="M256.04,275.75c0.72,0.49,1.38,0.09,2.15,0.13c0-0.55,0-0.96,0-1.35
						C257.19,274.24,255.78,274.5,256.04,275.75z"/>
				</g>
				<g>
					<path class="st2" d="M253.2,270.48c-0.1-1.4-1.81-2.27-2.19-0.5C251.75,271.02,252.03,271.08,253.2,270.48z"/>
				</g>
				<g>
					<path class="st2" d="M243.88,278.9c1.02,0.03,1.03,0.02,1.46-1.33C243.96,275.78,242.9,277.35,243.88,278.9z"/>
				</g>
				<g>
					<path class="st2" d="M259.3,287.35c-0.48,0.66-0.31,1.29-0.05,1.98c0.82-0.08,1.28-0.51,1.67-1.03
						C260.74,287.09,260.28,287.36,259.3,287.35z"/>
				</g>
				<g>
					<path class="st2" d="M269.32,293.45c0.14,0.65,0.49,1,1.11,1.09c0.16-0.16,0.31-0.32,0.47-0.47c0.02-0.03,0.05-0.05,0.07-0.07
						c0.15-0.16,0.31-0.31,0.46-0.46C271.04,292.38,270.04,292.57,269.32,293.45z"/>
				</g>
				<g>
					<path class="st2" d="M250.12,278.1c0-0.4,0-0.76,0-1.27C247.79,275.85,248.27,280.4,250.12,278.1z"/>
				</g>
				<g>
					<path class="st2" d="M267.13,279.58c0.14,0.24,0.25,0.45,0.42,0.73c-1.47,0.97-0.03,1.57,0.99,0.87
						c0.07-0.24,0.13-0.46,0.19-0.69l-0.93-1.02C267.6,279.41,267.39,279.41,267.13,279.58z"/>
				</g>
				<g>
					<path class="st2" d="M263.27,285.06c-0.31-0.16-0.58-0.3-0.84-0.42C260.08,285.87,264.22,288.02,263.27,285.06z"/>
				</g>
				<g>
					<path class="st2" d="M270.91,283.1c-0.05,0.24-0.17,0.61-0.27,1c0.42-0.14,0.86-0.07,0.86-0.56l-0.18-0.19
						C271.15,283.31,270.94,283.37,270.91,283.1c0.01-0.01,0.01-0.01,0.01-0.02L270.91,283.1c0.02-0.05,0.04-0.1,0.06-0.15
						l-0.59-0.65C268.96,282.45,269.07,285.21,270.91,283.1z"/>
				</g>
			</g>
		</g>
		<g>
			<g>
				<path class="st3" d="M273.62,211.92l2.25,14.39c0,0-24.35,26.75-26.07,31.13c-2.01,5.15,29.45,36.22,32.85,35.34
					c3.4-0.89,29.76-25.39,37.08-33.29c7.32-7.9,12.6-13.25,12.07-23.4c-0.52-10.14-9.73-27.8-9.73-27.8L273.62,211.92z"/>
			</g>
			<g>
				<g>
					<path class="st4" d="M266.08,277.01c3.04-2.64,5.18-5.9,7.79-8.94c2.21-2.57,4.65-4.92,6.99-7.37
						c5.06-5.28,10.14-10.54,15.32-15.7c8.7-8.68,17.47-18.44,17.38-31.47c-0.01-1.56-2.44-1.57-2.43,0
						c0.11,14.57-11.15,24.51-20.57,34.1c-4.56,4.64-9.04,9.37-13.17,14.39c-3.93,4.77-8.84,9.15-11.92,14.52
						C265.25,276.94,265.75,277.3,266.08,277.01L266.08,277.01z"/>
				</g>
			</g>
			<g>
				<g>
					<path class="st4" d="M267.72,281.81c3.35-1.43,5.72-4.72,8.18-7.36c2.9-3.11,5.77-6.25,8.65-9.38
						c5.77-6.25,11.47-12.57,17.21-18.85c8.07-8.82,19.24-21.32,15.66-34.41c-0.35-1.29-2.46-1.08-2.39,0.32
						c0.4,7.94-0.98,14.39-5.5,21.06c-4.11,6.06-9.43,11.34-14.45,16.65c-5.01,5.3-9.9,10.71-14.82,16.08
						c-2.46,2.69-4.96,5.35-7.39,8.06c-2.11,2.35-4.52,4.51-5.51,7.54C267.28,281.76,267.54,281.88,267.72,281.81L267.72,281.81z"/>
				</g>
			</g>
			<g>
				<g>
					<path class="st2" d="M286.46,291.32c7.53-6.65,14.96-13.43,22.29-20.31c6.74-6.32,13.83-12.58,19.18-20.18
						c2.24-3.18,4.45-6.94,4.51-10.94c0.01-0.74-1.14-0.74-1.15,0c-0.05,3.57-2,6.91-3.95,9.78c-2.5,3.68-5.51,7.01-8.62,10.18
						c-6.75,6.89-13.96,13.38-21.08,19.89c-3.97,3.62-7.96,7.21-11.98,10.77C285.09,290.99,285.91,291.8,286.46,291.32
						L286.46,291.32z"/>
				</g>
			</g>
			<g>
				<g>
					<path class="st2" d="M271.08,231.65c4.66-3.85,9.23-7.9,13.83-11.83c0.65-0.55-0.19-1.59-0.9-1.17
						c-5.13,3.09-10.07,7.65-13.3,12.71C270.56,231.6,270.89,231.81,271.08,231.65L271.08,231.65z"/>
				</g>
			</g>
		</g>
		<g>
			<g>
				<path class="st3" d="M323.77,93.35c1.16-3.94,0.75-8.31-1.11-11.97c-1.86-3.66-5.15-6.57-9.01-7.96c0,0,2.7-0.85,4.96,0.61
					c2.26,1.46,6.01,5.69,7.27,8.73c1.26,3.04,0,10.96,0,10.96L323.77,93.35z"/>
			</g>
			<g>
				<g>
					<path class="st3" d="M330.04,103.17c-1.2,5.36-5.7,8.92-10.04,7.94c-4.34-0.97-6.89-6.11-5.69-11.47
						c1.2-5.36,5.7-8.92,10.04-7.94C328.7,92.68,331.24,97.81,330.04,103.17z"/>
				</g>
				<g>
					<g>
						<path class="st2" d="M318.27,109.32c-1.26-6.54-0.51-12.05,4.83-16.57c0.25-0.21-0.07-0.62-0.34-0.45
							c-5.51,3.5-8.58,11.28-4.79,17.14C318.07,109.6,318.3,109.49,318.27,109.32L318.27,109.32z"/>
					</g>
				</g>
			</g>
		</g>
		<g>
			<g>
				<path class="st4" d="M327.39,176.67c2.31-6.46,5.43-12.53,5.54-15.96c0.27-7.81-5.42-31.13-9.94-33.58
					c-0.64-0.35-5.21-0.55-6.59-0.6c-6.67-0.23-20.34,2.54-25.64,3.68c-2.91,0.38-7.07,1.14-10.57,2.61
					c-6.09,2.55-16.02,16.63-16.47,22.69c-0.29,3.94,3.88,9.04,6.85,12.15c-1.98,16.64-1.55,45.46,2.21,47.94
					c3.6,2.36,42.57-1.54,51.96-5.02c1.72-0.64,3.66-5.81,2.37-7.12c-2.01-2.05-6.39-1.79-4.53-6.47
					C323.63,194.37,324.44,184.91,327.39,176.67z"/>
			</g>
			<g>
				<g>
					<path class="st2" d="M270.15,174.22c1.68-4.58,2.07-9.74,3.15-14.5c1.11-4.86,2.68-9.55,4.09-14.32
						c0.13-0.43-0.51-0.71-0.73-0.31c-4.36,8.06-8.55,19.85-6.87,29.12C269.84,174.41,270.1,174.37,270.15,174.22L270.15,174.22z"/>
				</g>
			</g>
			<g>
				<g>
					<path class="st2" d="M300.17,204.91c5.39-1.22,10.81-2.32,16.22-3.44c1.24-0.26,0.71-2.11-0.52-1.89
						c-5.46,0.98-10.75,2.51-15.93,4.47C299.41,204.26,299.6,205.04,300.17,204.91L300.17,204.91z"/>
				</g>
			</g>
			<g>
				<g>
					<path class="st3" d="M308.05,150.44c0,0,1-8.6-2.2-8.47c-3.2,0.13-3.26,13.06-2.01,15c1.26,1.95,15.13,2.13,15.88-2.01
						c0.75-4.14-3.26-4.88-6.84-4.83c0,0,2.26-8.48-0.88-8.17s-3.39,5.9-3.14,8.48H308.05z"/>
				</g>
				<g>
					<g>
						<path class="st2" d="M305.3,153.38c0.38,1.03,1.44,1.57,2.5,1.16c0.5-0.19,0.9-0.58,1.11-1.07c0.2-0.46,0.35-1.19-0.09-1.55
							c-0.24-0.2-0.54-0.11-0.65,0.17c-0.11,0.26-0.01,0.47-0.04,0.74c-0.04,0.38-0.27,0.69-0.62,0.85c-0.6,0.28-1.27-0.03-1.6-0.56
							C305.71,152.83,305.17,153.01,305.3,153.38L305.3,153.38z"/>
					</g>
				</g>
				<g>
					<g>
						<path class="st2" d="M310.24,152.06c0.11,0.95,0.76,1.76,1.8,1.66c0.95-0.09,1.69-1.2,1.3-2.12c-0.18-0.44-0.74-0.46-0.92,0
							c-0.15,0.38,0.05,1.04-0.51,1.12c-0.48,0.07-0.9-0.45-1.12-0.8C310.65,151.68,310.21,151.75,310.24,152.06L310.24,152.06z"/>
					</g>
				</g>
				<g>
					<path class="st2" d="M317.29,152.14c-0.33-0.09-0.67-0.13-1-0.08c-0.33,0.06-0.66,0.23-0.84,0.51c-0.2,0.3-0.23,0.71-0.08,1.05
						c0.14,0.34,0.44,0.6,0.78,0.73c0.42,0.16,0.92,0.13,1.29-0.12c0.37-0.25,0.75-0.79,0.65-1.22
						C317.99,152.57,317.84,152.3,317.29,152.14"/>
				</g>
			</g>
			<g>
				<path class="st5" d="M298.21,128.72c0,0-2.44,3.53,3.73,2.92c6.17-0.61,13.02-5.11,13.02-5.11l-0.27-2.62L298.21,128.72z"/>
			</g>
		</g>
		<g>
			<g>
				<path class="st4" d="M322.89,126.52c-0.85,0-9.02,0.24-9.73,1.66c-0.71,1.42,7.4,34.65,13.37,34.46c5.97-0.19,6.4-1.93,6.4-1.93
					s5.83,8.16,10.67,4.03c4.84-4.13,16.78-22.62,13.08-26.03C352.98,135.29,327.73,126.52,322.89,126.52z"/>
			</g>
			<g>
				<g>
					<path class="st2" d="M321.16,128.37c-1.62,10.9,0.35,22.64,8.9,30.48c0.61,0.56,1.77-0.2,1.22-0.94
						c-6.32-8.53-10.98-18.52-9.65-29.47C321.66,128.17,321.2,128.11,321.16,128.37L321.16,128.37z"/>
				</g>
			</g>
			<g>
				<g>
					<path class="st3" d="M324.2,130.31c9.63,3.88,19.02,8.27,28.6,12.22c0.7,0.29,1.08-0.8,0.5-1.18
						c-8.51-5.55-19.03-9.5-28.87-11.87C323.88,129.34,323.7,130.1,324.2,130.31L324.2,130.31z"/>
				</g>
			</g>
			<g>
				<g>
					<path class="st3" d="M323.09,133.65c8.44,4.49,17.57,9.56,26.86,12.05c0.73,0.2,1.21-0.87,0.52-1.24
						c-8.53-4.56-18.02-7.71-26.86-11.7C323.02,132.49,322.5,133.33,323.09,133.65L323.09,133.65z"/>
				</g>
			</g>
		</g>
		<g>
			<path class="st8" d="M306.01,151.51"/>
		</g>
	</g>
</g>
</svg>
