<?xml version="1.0" encoding="utf-8"?>
<!-- Generator: Adobe Illustrator 27.3.1, SVG Export Plug-In . SVG Version: 6.00 Build 0)  -->
<svg version="1.1" xmlns="http://www.w3.org/2000/svg" xmlns:xlink="http://www.w3.org/1999/xlink" x="0px" y="0px"
	 viewBox="0 0 500 500" style="enable-background:new 0 0 500 500;" xml:space="preserve">
<style type="text/css">
	.st0{opacity:0.2;clip-path:url(#SVGID_00000105415063319707287480000004863418377220745110_);}
	.st1{fill:#303030;}
	.st2{clip-path:url(#SVGID_00000105415063319707287480000004863418377220745110_);}
	.st3{fill:url(#SVGID_00000121268520473919698850000005126894689303452347_);}
	.st4{fill:url(#SVGID_00000173872150992875718360000007448354178302750874_);}
	.st5{fill:url(#SVGID_00000096043134673228987620000011244431860162687165_);}
	.st6{fill:url(#SVGID_00000113322474306686697310000003713953322249514373_);}
	.st7{fill:url(#SVGID_00000119814804575892338450000000928478404342109843_);}
	.st8{fill:url(#SVGID_00000059277505859915387070000011887388059448378295_);}
	.st9{fill:url(#SVGID_00000148629793404643384220000002558438084135349932_);}
	.st10{fill:url(#SVGID_00000127018251081817377320000014843183382932623791_);}
	.st11{fill:url(#SVGID_00000050627995276921068080000013850363287836782525_);}
	.st12{fill:url(#SVGID_00000121244984650196394550000006541497056078706076_);}
	.st13{fill:url(#SVGID_00000065766611878687384270000013974482340586050432_);}
	.st14{fill:url(#SVGID_00000090289403925231555850000009380911791823740852_);}
	.st15{opacity:0.5;clip-path:url(#SVGID_00000105415063319707287480000004863418377220745110_);}
	.st16{fill:url(#SVGID_00000021829559138273857580000000702420046423373733_);}
	.st17{fill:url(#SVGID_00000139975877226685927400000016660074468129802674_);}
	.st18{fill:url(#SVGID_00000064313757503703440190000008930714880230103962_);}
	.st19{fill:url(#SVGID_00000134943742691478571810000012655868884737710745_);}
	.st20{fill:url(#SVGID_00000136389307692488638380000011324821193209785250_);}
	.st21{fill:url(#SVGID_00000140008366507455418670000006085496272696905877_);}
	.st22{fill:url(#SVGID_00000163041753894383118350000008286704873809674167_);}
	.st23{fill:url(#SVGID_00000160167608481101048490000004138276930705636237_);}
	.st24{fill:url(#SVGID_00000108304707021646998550000017914308362291372967_);}
	.st25{fill:url(#SVGID_00000054261734080480048100000015207893504516605340_);}
	.st26{fill:url(#SVGID_00000041975502856391589920000009629082010816472761_);}
	.st27{fill:url(#SVGID_00000181789888062783610570000015881405857446390206_);}
	.st28{fill:url(#SVGID_00000060722669521620823450000000519402669099067561_);}
	.st29{fill:#C4C4C4;}
	.st30{opacity:0.2;fill:#FFFFFF;}
	.st31{opacity:0.5;fill:none;stroke:#FFFFFF;stroke-miterlimit:10;}
	.st32{opacity:0.5;fill:none;stroke:#303030;stroke-miterlimit:10;}
	.st33{clip-path:url(#SVGID_00000182509029365648635290000006676720599472112032_);fill:#FFFFFF;}
	.st34{fill:#FFFFFF;stroke:#FFFFFF;stroke-width:0.5;stroke-linecap:round;stroke-linejoin:round;stroke-miterlimit:10;}
	.st35{fill:#FF981D;}
	.st36{font-family:'BebasNeueBold';}
	.st37{font-size:29px;}
	.st38{fill:#FFFFFF;}
	.st39{font-size:6.4479px;}
	.st40{font-family:'BebasNeueBook';}
	.st41{font-size:6.3453px;}
	.st42{fill:none;stroke:#FF981D;stroke-miterlimit:10;}
	.st43{fill:none;stroke:#FFFFFF;stroke-miterlimit:10;}
	.st44{opacity:0.1;fill:#FFFFFF;}
	.st45{fill:#565656;}
	.st46{fill:none;}
	.st47{fill:url(#SVGID_00000099627022483632407930000002786913755501592754_);}
	.st48{clip-path:url(#SVGID_00000136391685576111011070000007495878635035218609_);fill:#FFFFFF;}
	.st49{fill:#FFFFFF;stroke:#FFFFFF;stroke-linecap:round;stroke-linejoin:round;stroke-miterlimit:10;}
	.st50{font-family:'Overpass-Bold';}
	.st51{font-size:6.671px;}
	.st52{clip-path:url(#SVGID_00000136369390809121135290000004741656473119889836_);}
	.st53{opacity:0.1;}
	.st54{font-size:52.5516px;}
	.st55{font-size:10px;}
	.st56{opacity:0.2;fill:none;stroke:#FFFFFF;stroke-miterlimit:10;}
	
		.st57{clip-path:url(#SVGID_00000101090811772781448100000001448793110796635805_);fill:none;stroke:url(#SVGID_00000070086789494569911200000001882701994919213501_);stroke-width:2;stroke-miterlimit:10;}
	.st58{fill:none;stroke:#FF981D;stroke-width:3;stroke-miterlimit:10;}
	.st59{fill:none;stroke:#FFFFFF;stroke-width:3;stroke-miterlimit:10;}
	.st60{opacity:0.2;}
	.st61{fill:none;stroke:url(#SVGID_00000025443345998691485260000007822479059878816443_);stroke-width:2;stroke-miterlimit:10;}
	.st62{fill:none;stroke:#FFFFFF;stroke-width:2;stroke-miterlimit:10;}
	.st63{opacity:0.2;fill:#303030;}
	.st64{fill:#FFAF99;}
	.st65{fill:#F29A86;}
	.st66{fill:#FFEEE6;}
	.st67{fill:#101E35;}
	.st68{fill:url(#SVGID_00000160878992244617436590000005084395048868333748_);}
	.st69{fill:#CCCCCC;}
	.st70{fill:#80A4DD;}
</style>
<g id="BACKGROUND">
	<g>
		<defs>
			<rect id="SVGID_1_" width="500" height="500"/>
		</defs>
		<clipPath id="SVGID_00000145738309924262687520000013400373163940472238_">
			<use xlink:href="#SVGID_1_"  style="overflow:visible;"/>
		</clipPath>
		<g style="opacity:0.2;clip-path:url(#SVGID_00000145738309924262687520000013400373163940472238_);">
			<polygon class="st1" points="2.9,210.15 -6.05,210.15 5.94,185.72 14.9,185.72 			"/>
			<polygon class="st1" points="17.52,210.15 8.57,210.15 20.56,185.72 29.51,185.72 			"/>
			<polygon class="st1" points="32.14,210.15 23.19,210.15 35.18,185.72 44.13,185.72 			"/>
			<polygon class="st1" points="46.76,210.15 37.81,210.15 49.8,185.72 58.75,185.72 			"/>
			<polygon class="st1" points="61.55,210.15 52.6,210.15 64.59,185.72 73.54,185.72 			"/>
			<polygon class="st1" points="76.17,210.15 67.22,210.15 79.21,185.72 88.16,185.72 			"/>
			<polygon class="st1" points="90.79,210.15 81.84,210.15 93.83,185.72 102.78,185.72 			"/>
			<polygon class="st1" points="105.41,210.15 96.45,210.15 108.44,185.72 117.4,185.72 			"/>
			<polygon class="st1" points="119.9,210.15 110.95,210.15 122.94,185.72 131.89,185.72 			"/>
			<polygon class="st1" points="134.52,210.15 125.57,210.15 137.56,185.72 146.51,185.72 			"/>
			<polygon class="st1" points="149.14,210.15 140.19,210.15 152.18,185.72 161.13,185.72 			"/>
			<polygon class="st1" points="163.76,210.15 154.81,210.15 166.8,185.72 175.75,185.72 			"/>
		</g>
		<g style="clip-path:url(#SVGID_00000145738309924262687520000013400373163940472238_);">
			
				<linearGradient id="SVGID_00000059311107551090817970000013613113551502023078_" gradientUnits="userSpaceOnUse" x1="385" y1="76.8501" x2="652.0022" y2="76.8501">
				<stop  offset="0" style="stop-color:#85E5FF"/>
				<stop  offset="0.0226" style="stop-color:#85E3FF"/>
				<stop  offset="0.453" style="stop-color:#84BAFF"/>
				<stop  offset="0.7936" style="stop-color:#83A1FF"/>
				<stop  offset="1" style="stop-color:#8398FF"/>
			</linearGradient>
			<polygon style="fill:url(#SVGID_00000059311107551090817970000013613113551502023078_);" points="406.76,95.18 393.32,95.18 
				411.31,58.52 424.75,58.52 			"/>
			
				<linearGradient id="SVGID_00000065786003083128273180000008039940395583534509_" gradientUnits="userSpaceOnUse" x1="384.9999" y1="76.8501" x2="652.0018" y2="76.8501">
				<stop  offset="0" style="stop-color:#85E5FF"/>
				<stop  offset="0.0226" style="stop-color:#85E3FF"/>
				<stop  offset="0.453" style="stop-color:#84BAFF"/>
				<stop  offset="0.7936" style="stop-color:#83A1FF"/>
				<stop  offset="1" style="stop-color:#8398FF"/>
			</linearGradient>
			<polygon style="fill:url(#SVGID_00000065786003083128273180000008039940395583534509_);" points="428.7,95.18 415.26,95.18 
				433.25,58.52 446.69,58.52 			"/>
			
				<linearGradient id="SVGID_00000101096865932464960370000013909188483740475323_" gradientUnits="userSpaceOnUse" x1="385.0001" y1="76.8501" x2="652.0023" y2="76.8501">
				<stop  offset="0" style="stop-color:#85E5FF"/>
				<stop  offset="0.0226" style="stop-color:#85E3FF"/>
				<stop  offset="0.453" style="stop-color:#84BAFF"/>
				<stop  offset="0.7936" style="stop-color:#83A1FF"/>
				<stop  offset="1" style="stop-color:#8398FF"/>
			</linearGradient>
			<polygon style="fill:url(#SVGID_00000101096865932464960370000013909188483740475323_);" points="450.64,95.18 437.2,95.18 
				455.19,58.52 468.63,58.52 			"/>
			
				<linearGradient id="SVGID_00000180339058092021438150000003577034748522939794_" gradientUnits="userSpaceOnUse" x1="384.9999" y1="76.8501" x2="652.0018" y2="76.8501">
				<stop  offset="0" style="stop-color:#85E5FF"/>
				<stop  offset="0.0226" style="stop-color:#85E3FF"/>
				<stop  offset="0.453" style="stop-color:#84BAFF"/>
				<stop  offset="0.7936" style="stop-color:#83A1FF"/>
				<stop  offset="1" style="stop-color:#8398FF"/>
			</linearGradient>
			<polygon style="fill:url(#SVGID_00000180339058092021438150000003577034748522939794_);" points="472.58,95.18 459.14,95.18 
				477.14,58.52 490.57,58.52 			"/>
			
				<linearGradient id="SVGID_00000134929259686480503960000004887418486209906348_" gradientUnits="userSpaceOnUse" x1="385.0003" y1="76.8501" x2="652.0017" y2="76.8501">
				<stop  offset="0" style="stop-color:#85E5FF"/>
				<stop  offset="0.0226" style="stop-color:#85E3FF"/>
				<stop  offset="0.453" style="stop-color:#84BAFF"/>
				<stop  offset="0.7936" style="stop-color:#83A1FF"/>
				<stop  offset="1" style="stop-color:#8398FF"/>
			</linearGradient>
			<polygon style="fill:url(#SVGID_00000134929259686480503960000004887418486209906348_);" points="494.77,95.18 481.33,95.18 
				499.33,58.52 512.76,58.52 			"/>
			
				<linearGradient id="SVGID_00000170964217719487230070000010868573781187143312_" gradientUnits="userSpaceOnUse" x1="384.9999" y1="76.8501" x2="652.0018" y2="76.8501">
				<stop  offset="0" style="stop-color:#85E5FF"/>
				<stop  offset="0.0226" style="stop-color:#85E3FF"/>
				<stop  offset="0.453" style="stop-color:#84BAFF"/>
				<stop  offset="0.7936" style="stop-color:#83A1FF"/>
				<stop  offset="1" style="stop-color:#8398FF"/>
			</linearGradient>
			<polygon style="fill:url(#SVGID_00000170964217719487230070000010868573781187143312_);" points="516.71,95.18 503.27,95.18 
				521.27,58.52 534.7,58.52 			"/>
			
				<linearGradient id="SVGID_00000111184184094885420610000009257176026999831958_" gradientUnits="userSpaceOnUse" x1="384.9998" y1="76.8501" x2="652.002" y2="76.8501">
				<stop  offset="0" style="stop-color:#85E5FF"/>
				<stop  offset="0.0226" style="stop-color:#85E3FF"/>
				<stop  offset="0.453" style="stop-color:#84BAFF"/>
				<stop  offset="0.7936" style="stop-color:#83A1FF"/>
				<stop  offset="1" style="stop-color:#8398FF"/>
			</linearGradient>
			<polygon style="fill:url(#SVGID_00000111184184094885420610000009257176026999831958_);" points="538.65,95.18 525.21,95.18 
				543.21,58.52 556.64,58.52 			"/>
			
				<linearGradient id="SVGID_00000163041072727870700350000008570765383887839628_" gradientUnits="userSpaceOnUse" x1="385.0003" y1="76.8501" x2="652.0017" y2="76.8501">
				<stop  offset="0" style="stop-color:#85E5FF"/>
				<stop  offset="0.0226" style="stop-color:#85E3FF"/>
				<stop  offset="0.453" style="stop-color:#84BAFF"/>
				<stop  offset="0.7936" style="stop-color:#83A1FF"/>
				<stop  offset="1" style="stop-color:#8398FF"/>
			</linearGradient>
			<polygon style="fill:url(#SVGID_00000163041072727870700350000008570765383887839628_);" points="560.59,95.18 547.15,95.18 
				565.15,58.52 578.58,58.52 			"/>
			
				<linearGradient id="SVGID_00000075140202592439022490000018121640874532546995_" gradientUnits="userSpaceOnUse" x1="384.9998" y1="76.8501" x2="652.002" y2="76.8501">
				<stop  offset="0" style="stop-color:#85E5FF"/>
				<stop  offset="0.0226" style="stop-color:#85E3FF"/>
				<stop  offset="0.453" style="stop-color:#84BAFF"/>
				<stop  offset="0.7936" style="stop-color:#83A1FF"/>
				<stop  offset="1" style="stop-color:#8398FF"/>
			</linearGradient>
			<polygon style="fill:url(#SVGID_00000075140202592439022490000018121640874532546995_);" points="582.34,95.18 568.9,95.18 
				586.9,58.52 600.33,58.52 			"/>
			
				<linearGradient id="SVGID_00000151509044186328562360000002653572185931390133_" gradientUnits="userSpaceOnUse" x1="385.0003" y1="76.8501" x2="652.0017" y2="76.8501">
				<stop  offset="0" style="stop-color:#85E5FF"/>
				<stop  offset="0.0226" style="stop-color:#85E3FF"/>
				<stop  offset="0.453" style="stop-color:#84BAFF"/>
				<stop  offset="0.7936" style="stop-color:#83A1FF"/>
				<stop  offset="1" style="stop-color:#8398FF"/>
			</linearGradient>
			<polygon style="fill:url(#SVGID_00000151509044186328562360000002653572185931390133_);" points="604.28,95.18 590.84,95.18 
				608.84,58.52 622.27,58.52 			"/>
			
				<linearGradient id="SVGID_00000136390340991592922170000007635144793247588248_" gradientUnits="userSpaceOnUse" x1="385" y1="76.8501" x2="652.0019" y2="76.8501">
				<stop  offset="0" style="stop-color:#85E5FF"/>
				<stop  offset="0.0226" style="stop-color:#85E3FF"/>
				<stop  offset="0.453" style="stop-color:#84BAFF"/>
				<stop  offset="0.7936" style="stop-color:#83A1FF"/>
				<stop  offset="1" style="stop-color:#8398FF"/>
			</linearGradient>
			<polygon style="fill:url(#SVGID_00000136390340991592922170000007635144793247588248_);" points="626.22,95.18 612.78,95.18 
				630.78,58.52 644.21,58.52 			"/>
			
				<linearGradient id="SVGID_00000181783597129339050290000000347974545315212697_" gradientUnits="userSpaceOnUse" x1="384.9998" y1="76.8501" x2="652.002" y2="76.8501">
				<stop  offset="0" style="stop-color:#85E5FF"/>
				<stop  offset="0.0226" style="stop-color:#85E3FF"/>
				<stop  offset="0.453" style="stop-color:#84BAFF"/>
				<stop  offset="0.7936" style="stop-color:#83A1FF"/>
				<stop  offset="1" style="stop-color:#8398FF"/>
			</linearGradient>
			<polygon style="fill:url(#SVGID_00000181783597129339050290000000347974545315212697_);" points="648.16,95.18 634.72,95.18 
				652.72,58.52 666.15,58.52 			"/>
		</g>
		<g style="opacity:0.5;clip-path:url(#SVGID_00000145738309924262687520000013400373163940472238_);">
			
				<linearGradient id="SVGID_00000050651800227538686690000009422852449800024761_" gradientUnits="userSpaceOnUse" x1="-117" y1="329.7242" x2="626.1514" y2="329.7242">
				<stop  offset="0" style="stop-color:#85E5FF"/>
				<stop  offset="0.0226" style="stop-color:#85E3FF"/>
				<stop  offset="0.453" style="stop-color:#84BAFF"/>
				<stop  offset="0.7936" style="stop-color:#83A1FF"/>
				<stop  offset="1" style="stop-color:#8398FF"/>
			</linearGradient>
			<polygon style="fill:url(#SVGID_00000050651800227538686690000009422852449800024761_);" points="-36.25,398.86 -86.93,398.86 
				-19.05,260.58 31.63,260.58 			"/>
			
				<linearGradient id="SVGID_00000061445145609286389890000007000066460387437726_" gradientUnits="userSpaceOnUse" x1="-117.0001" y1="329.7242" x2="626.1512" y2="329.7242">
				<stop  offset="0" style="stop-color:#85E5FF"/>
				<stop  offset="0.0226" style="stop-color:#85E3FF"/>
				<stop  offset="0.453" style="stop-color:#84BAFF"/>
				<stop  offset="0.7936" style="stop-color:#83A1FF"/>
				<stop  offset="1" style="stop-color:#8398FF"/>
			</linearGradient>
			<polygon style="fill:url(#SVGID_00000061445145609286389890000007000066460387437726_);" points="25.82,398.86 -24.86,398.86 
				43.02,260.58 93.7,260.58 			"/>
			
				<linearGradient id="SVGID_00000154410662135741602930000001113203819089701250_" gradientUnits="userSpaceOnUse" x1="-117.0007" y1="329.7242" x2="626.151" y2="329.7242">
				<stop  offset="0" style="stop-color:#85E5FF"/>
				<stop  offset="0.0226" style="stop-color:#85E3FF"/>
				<stop  offset="0.453" style="stop-color:#84BAFF"/>
				<stop  offset="0.7936" style="stop-color:#83A1FF"/>
				<stop  offset="1" style="stop-color:#8398FF"/>
			</linearGradient>
			<polygon style="fill:url(#SVGID_00000154410662135741602930000001113203819089701250_);" points="87.89,398.86 37.21,398.86 
				105.09,260.58 155.77,260.58 			"/>
			
				<linearGradient id="SVGID_00000090258852321873253760000001652098258062635942_" gradientUnits="userSpaceOnUse" x1="-117.0002" y1="329.7242" x2="626.1505" y2="329.7242">
				<stop  offset="0" style="stop-color:#85E5FF"/>
				<stop  offset="0.0226" style="stop-color:#85E3FF"/>
				<stop  offset="0.453" style="stop-color:#84BAFF"/>
				<stop  offset="0.7936" style="stop-color:#83A1FF"/>
				<stop  offset="1" style="stop-color:#8398FF"/>
			</linearGradient>
			<polygon style="fill:url(#SVGID_00000090258852321873253760000001652098258062635942_);" points="149.96,398.86 99.28,398.86 
				167.16,260.58 217.84,260.58 			"/>
			
				<linearGradient id="SVGID_00000024680445254218480620000004709258936598738821_" gradientUnits="userSpaceOnUse" x1="-117.0005" y1="329.7242" x2="626.1507" y2="329.7242">
				<stop  offset="0" style="stop-color:#85E5FF"/>
				<stop  offset="0.0226" style="stop-color:#85E3FF"/>
				<stop  offset="0.453" style="stop-color:#84BAFF"/>
				<stop  offset="0.7936" style="stop-color:#83A1FF"/>
				<stop  offset="1" style="stop-color:#8398FF"/>
			</linearGradient>
			<polygon style="fill:url(#SVGID_00000024680445254218480620000004709258936598738821_);" points="212.74,398.86 162.06,398.86 
				229.93,260.58 280.61,260.58 			"/>
			
				<linearGradient id="SVGID_00000094614222929595819810000016960723881081465532_" gradientUnits="userSpaceOnUse" x1="-116.9998" y1="329.7242" x2="626.1512" y2="329.7242">
				<stop  offset="0" style="stop-color:#85E5FF"/>
				<stop  offset="0.0226" style="stop-color:#85E3FF"/>
				<stop  offset="0.453" style="stop-color:#84BAFF"/>
				<stop  offset="0.7936" style="stop-color:#83A1FF"/>
				<stop  offset="1" style="stop-color:#8398FF"/>
			</linearGradient>
			<polygon style="fill:url(#SVGID_00000094614222929595819810000016960723881081465532_);" points="274.81,398.86 224.13,398.86 
				292,260.58 342.68,260.58 			"/>
			
				<linearGradient id="SVGID_00000016773584291348774970000004485327424360830638_" gradientUnits="userSpaceOnUse" x1="-117.0002" y1="329.7242" x2="626.1512" y2="329.7242">
				<stop  offset="0" style="stop-color:#85E5FF"/>
				<stop  offset="0.0226" style="stop-color:#85E3FF"/>
				<stop  offset="0.453" style="stop-color:#84BAFF"/>
				<stop  offset="0.7936" style="stop-color:#83A1FF"/>
				<stop  offset="1" style="stop-color:#8398FF"/>
			</linearGradient>
			<polygon style="fill:url(#SVGID_00000016773584291348774970000004485327424360830638_);" points="336.88,398.86 286.2,398.86 
				354.07,260.58 404.75,260.58 			"/>
			
				<linearGradient id="SVGID_00000044135444524405767170000007514662275564070023_" gradientUnits="userSpaceOnUse" x1="-116.9998" y1="329.7242" x2="626.1512" y2="329.7242">
				<stop  offset="0" style="stop-color:#85E5FF"/>
				<stop  offset="0.0226" style="stop-color:#85E3FF"/>
				<stop  offset="0.453" style="stop-color:#84BAFF"/>
				<stop  offset="0.7936" style="stop-color:#83A1FF"/>
				<stop  offset="1" style="stop-color:#8398FF"/>
			</linearGradient>
			<polygon style="fill:url(#SVGID_00000044135444524405767170000007514662275564070023_);" points="398.95,398.86 348.27,398.86 
				416.14,260.58 466.83,260.58 			"/>
			
				<linearGradient id="SVGID_00000148646376461109191050000014626016556845775777_" gradientUnits="userSpaceOnUse" x1="-117.0006" y1="329.7242" x2="626.1508" y2="329.7242">
				<stop  offset="0" style="stop-color:#85E5FF"/>
				<stop  offset="0.0226" style="stop-color:#85E3FF"/>
				<stop  offset="0.453" style="stop-color:#84BAFF"/>
				<stop  offset="0.7936" style="stop-color:#83A1FF"/>
				<stop  offset="1" style="stop-color:#8398FF"/>
			</linearGradient>
			<polygon style="fill:url(#SVGID_00000148646376461109191050000014626016556845775777_);" points="460.48,398.86 409.8,398.86 
				477.68,260.58 528.36,260.58 			"/>
			
				<linearGradient id="SVGID_00000013900937922140844460000010905667054018683816_" gradientUnits="userSpaceOnUse" x1="-117.0004" y1="329.7242" x2="626.1506" y2="329.7242">
				<stop  offset="0" style="stop-color:#85E5FF"/>
				<stop  offset="0.0226" style="stop-color:#85E3FF"/>
				<stop  offset="0.453" style="stop-color:#84BAFF"/>
				<stop  offset="0.7936" style="stop-color:#83A1FF"/>
				<stop  offset="1" style="stop-color:#8398FF"/>
			</linearGradient>
			<polygon style="fill:url(#SVGID_00000013900937922140844460000010905667054018683816_);" points="522.55,398.86 471.87,398.86 
				539.75,260.58 590.43,260.58 			"/>
			
				<linearGradient id="SVGID_00000050639874017525421660000008477014911120045711_" gradientUnits="userSpaceOnUse" x1="-117.0002" y1="329.7242" x2="626.1512" y2="329.7242">
				<stop  offset="0" style="stop-color:#85E5FF"/>
				<stop  offset="0.0226" style="stop-color:#85E3FF"/>
				<stop  offset="0.453" style="stop-color:#84BAFF"/>
				<stop  offset="0.7936" style="stop-color:#83A1FF"/>
				<stop  offset="1" style="stop-color:#8398FF"/>
			</linearGradient>
			<polygon style="fill:url(#SVGID_00000050639874017525421660000008477014911120045711_);" points="584.63,398.86 533.94,398.86 
				601.82,260.58 652.5,260.58 			"/>
			
				<linearGradient id="SVGID_00000136386289461760114440000016567612615018656422_" gradientUnits="userSpaceOnUse" x1="-117.0004" y1="329.7242" x2="626.151" y2="329.7242">
				<stop  offset="0" style="stop-color:#85E5FF"/>
				<stop  offset="0.0226" style="stop-color:#85E3FF"/>
				<stop  offset="0.453" style="stop-color:#84BAFF"/>
				<stop  offset="0.7936" style="stop-color:#83A1FF"/>
				<stop  offset="1" style="stop-color:#8398FF"/>
			</linearGradient>
			<polygon style="fill:url(#SVGID_00000136386289461760114440000016567612615018656422_);" points="646.7,398.86 596.01,398.86 
				663.89,260.58 714.57,260.58 			"/>
		</g>
	</g>
</g>
<g id="OBJECTS">
	<g>
		<g>
			
				<linearGradient id="SVGID_00000159455934750719636700000008351544463440761277_" gradientUnits="userSpaceOnUse" x1="-130.6558" y1="200.2148" x2="-88.2578" y2="200.2148" gradientTransform="matrix(0 -1 1 0 -57.6172 -31.0801)">
				<stop  offset="0" style="stop-color:#85E5FF"/>
				<stop  offset="0.0226" style="stop-color:#85E3FF"/>
				<stop  offset="0.453" style="stop-color:#84BAFF"/>
				<stop  offset="0.7936" style="stop-color:#83A1FF"/>
				<stop  offset="1" style="stop-color:#8398FF"/>
			</linearGradient>
			<path style="fill:url(#SVGID_00000159455934750719636700000008351544463440761277_);" d="M115.34,57.18H90.01v0.04
				c-0.2,0.02-0.4,0.06-0.59,0.09l-0.12-0.01l-18.76,3.11v0.03c-6.74,0.54-12.08,8.36-12.08,17.94c0,9.58,5.35,17.4,12.08,17.94
				v0.03l18.88,3.23l0.6-0.03v0.03h7.14h18.2h56.16h17.84h7.5v-0.04c0.64-0.05,1.27-0.18,1.88-0.34l15.94-2.85v-0.03
				c6.74-0.54,12.08-8.36,12.08-17.94c0-9.58-5.35-17.4-12.08-17.94v-0.03l-16.27-2.95c-0.12-0.03-0.25-0.04-0.38-0.07l-1.18-0.21
				H171.5v0L115.34,57.18L115.34,57.18z"/>
			<rect x="95.55" y="57.18" class="st1" width="97.54" height="42.4"/>
			<g>
				<path class="st29" d="M211.1,78.38c0,17.35-11.12,20.44-11.12,20.44l0.78,0.02l13.9-2.49v-0.03
					c6.74-0.54,12.08-8.36,12.08-17.94c0-9.58-5.35-17.4-12.08-17.94v-0.03l-14.69-2.66h0C199.98,57.75,211.1,61.03,211.1,78.38z"/>
			</g>
			<path class="st30" d="M74.1,78.29c-0.03-17.35,11.08-20.46,11.08-20.46l-0.78-0.02l-13.9,2.52v0.03
				c-6.74,0.55-12.07,8.39-12.05,17.96c0.02,9.58,5.38,17.39,12.12,17.92v0.03l14.69,2.63h0C85.26,98.9,74.13,95.64,74.1,78.29z"/>
			<line class="st31" x1="193.08" y1="99.58" x2="193.08" y2="57.18"/>
			<line class="st32" x1="95.55" y1="99.58" x2="95.55" y2="57.18"/>
			<g>
				<g>
					<defs>
						<rect id="SVGID_00000181088097323043720830000015972684068006116769_" x="99.66" y="61.32" width="4.9" height="9.07"/>
					</defs>
					<clipPath id="SVGID_00000046332625030044530840000003248656373359857811_">
						<use xlink:href="#SVGID_00000181088097323043720830000015972684068006116769_"  style="overflow:visible;"/>
					</clipPath>
					<path style="clip-path:url(#SVGID_00000046332625030044530840000003248656373359857811_);fill:#FFFFFF;" d="M99.66,61.42v8.1
						c0,0.06,0.05,0.11,0.11,0.11h1.19v0.64c0,0.06,0.05,0.11,0.12,0.11h2.04c0.06,0,0.11-0.05,0.11-0.11v-0.64h1.19
						c0.06,0,0.11-0.05,0.11-0.11v-8.1c0-0.06-0.05-0.11-0.11-0.11h-4.66C99.72,61.31,99.66,61.36,99.66,61.42L99.66,61.42z
						 M103.29,62.54v2.54h-2.37v-2.54H103.29z"/>
				</g>
			</g>
			<g>
				<rect x="102.42" y="94.46" class="st34" width="1.91" height="0.52"/>
				<rect x="101.13" y="92.75" class="st34" width="3.2" height="0.52"/>
				<rect x="99.89" y="91.01" class="st34" width="4.45" height="0.52"/>
			</g>
			<text transform="matrix(0 -1 1 0 139.1311 89.9248)" class="st35 st36 st37">08</text>
			<text transform="matrix(0 -1 1 0 115.4388 88.6953)"><tspan x="0" y="0" class="st38 st36 st39">sat</tspan><tspan x="7.8" y="0" class="st38 st40 st39"> 08/05</tspan></text>
			<text transform="matrix(0 -1 1 0 162.2976 89.9248)" class="st35 st36 st37">22</text>
			<text transform="matrix(0 -1 1 0 182.4249 84.8032)" class="st38 st36 st41">5863</text>
			<path class="st42" d="M177.15,87.4c-4.11-0.54-7.37-3.79-7.91-7.9"/>
			<path class="st43" d="M169.16,78.29c0-5.07,4.11-9.19,9.19-9.19s9.19,4.11,9.19,9.19c0,5.07-4.11,9.19-9.19,9.19"/>
			<path class="st38" d="M175.64,75.71c-0.18,0.17-1.15,2.52-2.3,2.57c-0.25,0.01-0.14,0.26,0.12,0.98c0.2,0.55-0.02,0.78-0.22,1.07
				c-0.09,0.19,1.02,0.56,1.41,0.73c0.13,0.06,0.21,0.08,0.28,0.1c0.71-0.86,0.68-1.79,0.85-2.09c0.93-1.75,0.86-3.12,0.26-3.34
				C175.93,75.68,175.76,75.59,175.64,75.71z"/>
			<polygon class="st44" points="193.08,91.53 193.08,57.18 111.08,57.18 			"/>
			<g>
				<path class="st45" d="M216.73,76.82c0.41,0,0.74,0.66,0.74,1.47c0,0.81-0.33,1.47-0.74,1.47c-0.41,0-0.74-0.66-0.74-1.47
					C215.99,77.48,216.32,76.82,216.73,76.82z"/>
				<g>
					<path class="st46" d="M216.36,77.02c0.22,0.26,0.37,0.72,0.37,1.27c0,0.54-0.15,1.01-0.37,1.27c0.11,0.13,0.23,0.2,0.37,0.2
						c0.41,0,0.74-0.66,0.74-1.47c0-0.81-0.33-1.47-0.74-1.47C216.6,76.82,216.47,76.9,216.36,77.02z"/>
					<path class="st29" d="M216.36,77.02c-0.22,0.26-0.37,0.72-0.37,1.27c0,0.54,0.15,1.01,0.37,1.27c0.22-0.25,0.37-0.72,0.37-1.27
						C216.73,77.75,216.58,77.28,216.36,77.02z"/>
				</g>
			</g>
			<g>
				<path class="st45" d="M220.05,76.82c0.41,0,0.74,0.66,0.74,1.47c0,0.81-0.33,1.47-0.74,1.47c-0.41,0-0.74-0.66-0.74-1.47
					C219.31,77.48,219.64,76.82,220.05,76.82z"/>
				<g>
					<path class="st46" d="M219.68,77.02c0.22,0.26,0.37,0.72,0.37,1.27c0,0.54-0.15,1.01-0.37,1.27c0.11,0.13,0.24,0.2,0.37,0.2
						c0.41,0,0.74-0.66,0.74-1.47c0-0.81-0.33-1.47-0.74-1.47C219.91,76.82,219.79,76.9,219.68,77.02z"/>
					<path class="st29" d="M219.68,77.02c-0.22,0.26-0.37,0.72-0.37,1.27c0,0.54,0.15,1.01,0.37,1.27c0.22-0.25,0.37-0.72,0.37-1.27
						C220.05,77.75,219.9,77.28,219.68,77.02z"/>
				</g>
			</g>
			<g>
				<path class="st45" d="M223.14,76.82c0.41,0,0.74,0.66,0.74,1.47c0,0.81-0.33,1.47-0.74,1.47c-0.41,0-0.74-0.66-0.74-1.47
					C222.4,77.48,222.73,76.82,223.14,76.82z"/>
				<g>
					<path class="st46" d="M222.77,77.02c0.22,0.26,0.37,0.72,0.37,1.27c0,0.54-0.15,1.01-0.37,1.27c0.11,0.13,0.24,0.2,0.37,0.2
						c0.41,0,0.74-0.66,0.74-1.47c0-0.81-0.33-1.47-0.74-1.47C223.01,76.82,222.88,76.9,222.77,77.02z"/>
					<path class="st29" d="M222.77,77.02c-0.22,0.26-0.37,0.72-0.37,1.27c0,0.54,0.15,1.01,0.37,1.27c0.22-0.25,0.37-0.72,0.37-1.27
						C223.14,77.75,222.99,77.28,222.77,77.02z"/>
				</g>
			</g>
		</g>
		<g>
			<g>
				<g>
					<defs>
						<path id="SVGID_00000089550888220435046810000004020084415265037189_" d="M215.8,122.88c3.08,0,5.61,2.52,5.61,5.61v307.78
							c0,3.09-2.52,5.61-5.61,5.61H71.67c-3.08,0-5.61-2.52-5.61-5.61V128.49c0-3.08,2.52-5.61,5.61-5.61"/>
					</defs>
					<clipPath id="SVGID_00000131356406829782723910000005363556540726901655_">
						<use xlink:href="#SVGID_00000089550888220435046810000004020084415265037189_"  style="overflow:visible;"/>
					</clipPath>
				</g>
				<g>
					
						<linearGradient id="SVGID_00000176745188403391491560000001041216442460940934_" gradientUnits="userSpaceOnUse" x1="22.1718" y1="403.7854" x2="265.0673" y2="160.8899">
						<stop  offset="0" style="stop-color:#85E5FF"/>
						<stop  offset="0.0226" style="stop-color:#85E3FF"/>
						<stop  offset="0.453" style="stop-color:#84BAFF"/>
						<stop  offset="0.7936" style="stop-color:#83A1FF"/>
						<stop  offset="1" style="stop-color:#8398FF"/>
					</linearGradient>
					<path style="fill:url(#SVGID_00000176745188403391491560000001041216442460940934_);" d="M226.9,438.1
						c0,5.14-4.21,9.35-9.35,9.35H69.68c-5.14,0-9.35-4.21-9.35-9.35V126.58c0-5.14,4.21-9.35,9.35-9.35h147.87
						c5.14,0,9.35,4.2,9.35,9.35V438.1z"/>
					<path class="st1" d="M215.69,122.84h-33.44c0,2.83-2.3,5.13-5.13,5.13h-67c-2.83,0-5.13-2.3-5.13-5.13H71.55
						c-3.08,0-5.61,2.52-5.61,5.61v307.78c0,3.08,2.52,5.61,5.61,5.61h144.14c3.08,0,5.61-2.52,5.61-5.61V128.45
						C221.3,125.37,218.77,122.84,215.69,122.84z"/>
				</g>
				<g>
					<g>
						<g>
							<g>
								<defs>
									<rect id="SVGID_00000148631845232472147770000004439402801057413258_" x="204.87" y="128.2" width="9.26" height="5"/>
								</defs>
								<clipPath id="SVGID_00000088098496350464866820000005274516282243277479_">
									<use xlink:href="#SVGID_00000148631845232472147770000004439402801057413258_"  style="overflow:visible;"/>
								</clipPath>
								<path style="clip-path:url(#SVGID_00000088098496350464866820000005274516282243277479_);fill:#FFFFFF;" d="M214.02,128.2
									h-8.26c-0.06,0-0.12,0.05-0.12,0.12v1.22h-0.65c-0.06,0-0.12,0.05-0.12,0.12v2.08c0,0.06,0.05,0.12,0.12,0.12h0.65v1.22
									c0,0.06,0.05,0.12,0.12,0.12h8.26c0.06,0,0.12-0.05,0.12-0.12v-4.75C214.13,128.25,214.08,128.2,214.02,128.2L214.02,128.2z
									 M212.88,131.91h-2.59v-2.42h2.59V131.91z"/>
							</g>
						</g>
						<g>
							<path class="st46" d="M200.24,130.85c0.49,0,0.89-0.4,0.89-0.89c0-0.49-0.4-0.89-0.89-0.89c-0.49,0-0.89,0.4-0.89,0.89
								C199.35,130.45,199.75,130.85,200.24,130.85z"/>
							<path class="st38" d="M201.83,130.75L201.83,130.75c0.11-0.24,0.18-0.5,0.18-0.79c0-0.98-0.79-1.78-1.78-1.78
								c-0.98,0-1.78,0.8-1.78,1.78c0,0.29,0.08,0.55,0.2,0.79l-0.01,0c0,0,0.03,0.04,0.07,0.11c0.02,0.04,0.05,0.08,0.07,0.12
								c0.33,0.54,1.13,1.84,1.26,2.05c0.16,0.26,0.27,0.2,0.38,0.02c0.09-0.14,0.93-1.51,1.27-2.07c0.03-0.04,0.05-0.08,0.07-0.12
								C201.8,130.79,201.83,130.75,201.83,130.75z M200.24,129.07c0.49,0,0.89,0.4,0.89,0.89c0,0.49-0.4,0.89-0.89,0.89
								c-0.49,0-0.89-0.4-0.89-0.89C199.35,129.47,199.75,129.07,200.24,129.07z"/>
						</g>
						<g>
							<rect x="191.75" y="130.85" class="st49" width="0.53" height="1.95"/>
							<rect x="193.49" y="129.53" class="st49" width="0.53" height="3.27"/>
							<rect x="195.27" y="128.27" class="st49" width="0.53" height="4.54"/>
						</g>
					</g>
					<text transform="matrix(1 0 0 1 72.5584 132.8746)" class="st38 st50 st51">8:22</text>
				</g>
			</g>
			<path class="st38" d="M90.47,419.18c-0.05-0.04-0.1-0.05-0.16-0.04l-8.42,1.84c-0.09,0.02-0.15,0.1-0.15,0.18v7.33
				c-0.04,0-0.08,0-0.11,0c-1.2,0-2.17,0.78-2.17,1.74c0,0.96,0.98,1.74,2.17,1.74c1.14,0,2.09-0.71,2.17-1.62c0-0.02,0-0.03,0-0.05
				v-5.67l4.68-1.03v3.84c-0.04-0.01-0.07-0.01-0.11-0.01c-1.2,0-2.17,0.79-2.17,1.74c0,0.95,0.97,1.74,2.17,1.74
				c1.2,0,2.17-0.79,2.17-1.74v-9.86C90.53,419.27,90.51,419.22,90.47,419.18L90.47,419.18z"/>
			<g>
				<path class="st46" d="M95.97,262.54c1.78,0,3.22-1.44,3.22-3.21c0-1.78-1.44-3.22-3.22-3.22c-1.77,0-3.21,1.45-3.21,3.22
					C92.76,261.1,94.2,262.54,95.97,262.54z"/>
				<path class="st38" d="M101.74,262.19l-0.03,0.01c0.43-0.87,0.7-1.83,0.7-2.87c0-3.55-2.88-6.43-6.43-6.43
					c-3.55,0-6.43,2.88-6.43,6.43c0,1.04,0.27,2,0.7,2.87l-0.03-0.01c0,0,0.09,0.15,0.25,0.4c0.09,0.15,0.17,0.29,0.27,0.44
					c1.19,1.95,4.08,6.66,4.54,7.41c0.57,0.95,0.98,0.71,1.38,0.06c0.33-0.52,3.35-5.47,4.57-7.47c0.1-0.14,0.18-0.29,0.27-0.44
					C101.64,262.34,101.74,262.19,101.74,262.19z M95.97,256.11c1.78,0,3.22,1.45,3.22,3.22c0,1.77-1.44,3.21-3.22,3.21
					c-1.77,0-3.21-1.44-3.21-3.21C92.76,257.55,94.2,256.11,95.97,256.11z"/>
			</g>
			<g>
				<path class="st46" d="M143.6,359.56c0.78,0,1.4-0.63,1.4-1.4c0-0.77-0.63-1.4-1.4-1.4c-0.77,0-1.4,0.63-1.4,1.4
					C142.2,358.93,142.82,359.56,143.6,359.56z"/>
				<path class="st38" d="M146.11,359.4l-0.01,0c0.19-0.38,0.31-0.8,0.31-1.25c0-1.55-1.25-2.81-2.81-2.81
					c-1.55,0-2.81,1.26-2.81,2.81c0,0.45,0.12,0.87,0.31,1.25l-0.01,0c0,0,0.04,0.07,0.11,0.18c0.04,0.07,0.08,0.13,0.12,0.19
					c0.52,0.85,1.78,2.9,1.98,3.23c0.25,0.42,0.43,0.31,0.6,0.03c0.14-0.23,1.46-2.38,2-3.26c0.04-0.06,0.08-0.13,0.12-0.19
					C146.07,359.47,146.11,359.4,146.11,359.4z M143.6,356.75c0.78,0,1.4,0.63,1.4,1.4c0,0.77-0.63,1.4-1.4,1.4
					c-0.77,0-1.4-0.63-1.4-1.4C142.2,357.38,142.82,356.75,143.6,356.75z"/>
			</g>
			<g>
				<g>
					<g>
						<path class="st38" d="M184.69,360.75l0.03,0.03l3.63,2.85l3.63-2.86l0.03-0.02c0.97-0.77,1.14-2.18,0.37-3.15
							c-0.76-0.97-2.18-1.14-3.15-0.38l-0.89,0.7l-0.89-0.7c-0.97-0.76-2.39-0.59-3.15,0.38
							C183.54,358.57,183.71,359.99,184.69,360.75z"/>
					</g>
				</g>
				<g>
					<defs>
						<path id="SVGID_00000007387621822757211260000006173545314548325269_" d="M184.69,360.75l0.03,0.03l3.63,2.85l3.63-2.86
							l0.03-0.02c0.97-0.77,1.14-2.18,0.37-3.15c-0.76-0.97-2.18-1.14-3.15-0.38l-0.89,0.7l-0.89-0.7
							c-0.97-0.76-2.39-0.59-3.15,0.38C183.54,358.57,183.71,359.99,184.69,360.75z"/>
					</defs>
					<clipPath id="SVGID_00000069391818050946507830000007169756338281352357_">
						<use xlink:href="#SVGID_00000007387621822757211260000006173545314548325269_"  style="overflow:visible;"/>
					</clipPath>
					<g style="clip-path:url(#SVGID_00000069391818050946507830000007169756338281352357_);">
						<path class="st1" d="M188.25,362.22C188.25,362.22,188.25,362.22,188.25,362.22c-0.11,0-0.21-0.08-0.24-0.18l-0.7-2.25
							l-0.45,0.84c-0.04,0.08-0.13,0.13-0.22,0.13h-2.71c-0.14,0-0.25-0.11-0.25-0.25s0.11-0.25,0.25-0.25h2.55l0.67-1.24
							c0.05-0.09,0.15-0.14,0.25-0.13c0.1,0.01,0.19,0.08,0.22,0.18l0.65,2.1l0.53-1.46c0.03-0.09,0.11-0.15,0.2-0.16
							c0.09-0.02,0.18,0.02,0.24,0.1l0.49,0.65h3.03c0.14,0,0.25,0.11,0.25,0.25c0,0.14-0.11,0.25-0.25,0.25h-3.15
							c-0.08,0-0.15-0.04-0.2-0.1l-0.29-0.38l-0.62,1.73C188.46,362.16,188.36,362.22,188.25,362.22z"/>
					</g>
				</g>
			</g>
			<g class="st53">
				<path class="st38" d="M210.67,321.07c0,1.1-0.9,2-2,2H78.75c-1.1,0-2-0.9-2-2v-16.32c0-1.1,0.9-2,2-2h129.91c1.1,0,2,0.9,2,2
					V321.07z"/>
			</g>
			<g class="st53">
				<path class="st38" d="M210.67,346.59c0,1.1-0.9,2-2,2H78.75c-1.1,0-2-0.9-2-2v-16.32c0-1.1,0.9-2,2-2h129.91c1.1,0,2,0.9,2,2
					V346.59z"/>
			</g>
			<g>
				<g>
					<path class="st43" d="M177.01,168.2c-2.28,0.46-3.53,3.79-2.97,6.62c0.25,1.27,0.89,2.47,1.71,3.36l6.26-1.25
						c0.42-1.14,0.54-2.49,0.28-3.76C181.73,170.34,179.29,167.75,177.01,168.2z"/>
					<path class="st43" d="M177.66,180.66c-0.25,0.58-0.34,1.25-0.21,1.89c0.28,1.41,1.62,2.68,2.92,2.42
						c1.29-0.26,2.04-1.95,1.76-3.36c-0.13-0.64-0.47-1.23-0.92-1.67L177.66,180.66z"/>
				</g>
				<g>
					<path class="st43" d="M189.09,163.03c-2.32-0.14-4.39,2.76-4.56,5.64c-0.08,1.3,0.23,2.61,0.79,3.69l6.37,0.39
						c0.69-1,1.16-2.27,1.24-3.56C193.1,166.3,191.41,163.17,189.09,163.03z"/>
					<path class="st43" d="M186.53,175.24c-0.39,0.49-0.65,1.13-0.68,1.78c-0.09,1.44,0.88,3.01,2.2,3.09
						c1.31,0.08,2.47-1.36,2.56-2.8c0.04-0.65-0.14-1.31-0.46-1.85L186.53,175.24z"/>
				</g>
			</g>
			<text transform="matrix(1 0 0 1 67.8475 190.542)" class="st35 st36 st54">5863</text>
			<text transform="matrix(1 0 0 1 88.5868 386.8408)" class="st38 st36 st55">5863</text>
			<text transform="matrix(1 0 0 1 134.8666 386.8408)" class="st38 st36 st55">11.5</text>
			<text transform="matrix(1 0 0 1 180.6493 386.8408)" class="st38 st36 st55">118</text>
			<rect x="82.03" y="196.31" class="st30" width="68.97" height="3.24"/>
			<rect x="84.22" y="242.5" class="st30" width="23.97" height="3.24"/>
			<rect x="81.57" y="237.58" class="st30" width="29.26" height="3.24"/>
			<rect x="82.03" y="201.15" class="st30" width="20.39" height="3.24"/>
			<rect x="104.53" y="201.15" class="st30" width="34.56" height="3.24"/>
			<g>
				<path class="st38" d="M208.98,168.84c0,0.77-0.63,1.4-1.4,1.4c-0.77,0-1.4-0.63-1.4-1.4c0-0.77,0.63-1.4,1.4-1.4
					C208.36,167.44,208.98,168.07,208.98,168.84z"/>
				<path class="st38" d="M208.98,174.53c0,0.77-0.63,1.4-1.4,1.4c-0.77,0-1.4-0.63-1.4-1.4c0-0.77,0.63-1.4,1.4-1.4
					C208.36,173.13,208.98,173.76,208.98,174.53z"/>
				<path class="st38" d="M208.98,180.22c0,0.77-0.63,1.4-1.4,1.4c-0.77,0-1.4-0.63-1.4-1.4c0-0.77,0.63-1.4,1.4-1.4
					C208.36,178.82,208.98,179.44,208.98,180.22z"/>
			</g>
			<g>
				<path class="st38" d="M205.43,334.64c0,0.52-0.42,0.93-0.93,0.93c-0.52,0-0.93-0.42-0.93-0.93c0-0.52,0.42-0.93,0.93-0.93
					C205.01,333.71,205.43,334.12,205.43,334.64z"/>
				<path class="st38" d="M205.43,338.43c0,0.52-0.42,0.93-0.93,0.93c-0.52,0-0.93-0.42-0.93-0.93s0.42-0.93,0.93-0.93
					C205.01,337.5,205.43,337.92,205.43,338.43z"/>
				<path class="st38" d="M205.43,342.23c0,0.52-0.42,0.93-0.93,0.93c-0.52,0-0.93-0.42-0.93-0.93c0-0.52,0.42-0.93,0.93-0.93
					C205.01,341.29,205.43,341.71,205.43,342.23z"/>
			</g>
			<g>
				<path class="st38" d="M83.43,224.1c0.77,0,1.4,0.63,1.4,1.4c0,0.77-0.63,1.4-1.4,1.4c-0.77,0-1.4-0.63-1.4-1.4
					C82.03,224.73,82.65,224.1,83.43,224.1z"/>
				<path class="st35" d="M89.12,224.1c0.77,0,1.4,0.63,1.4,1.4c0,0.77-0.63,1.4-1.4,1.4c-0.77,0-1.4-0.63-1.4-1.4
					C87.72,224.73,88.34,224.1,89.12,224.1z"/>
				<path class="st38" d="M94.8,224.1c0.77,0,1.4,0.63,1.4,1.4c0,0.77-0.63,1.4-1.4,1.4c-0.77,0-1.4-0.63-1.4-1.4
					C93.4,224.73,94.03,224.1,94.8,224.1z"/>
			</g>
			<line class="st56" x1="77.03" y1="216.73" x2="210.67" y2="216.73"/>
			<g>
				<defs>
					<rect id="SVGID_00000022521711541361205500000009332168523449387959_" x="65.95" y="217.73" width="155.35" height="90.88"/>
				</defs>
				<clipPath id="SVGID_00000106838017443736124770000002845343919266065312_">
					<use xlink:href="#SVGID_00000022521711541361205500000009332168523449387959_"  style="overflow:visible;"/>
				</clipPath>
				
					<linearGradient id="SVGID_00000091730885149133156890000002095195793915624352_" gradientUnits="userSpaceOnUse" x1="63.0873" y1="262.2316" x2="224.4001" y2="262.2316">
					<stop  offset="0" style="stop-color:#85E5FF"/>
					<stop  offset="0.0226" style="stop-color:#85E3FF"/>
					<stop  offset="0.453" style="stop-color:#84BAFF"/>
					<stop  offset="0.7936" style="stop-color:#83A1FF"/>
					<stop  offset="1" style="stop-color:#8398FF"/>
				</linearGradient>
				
					<polyline style="clip-path:url(#SVGID_00000106838017443736124770000002845343919266065312_);fill:none;stroke:url(#SVGID_00000091730885149133156890000002095195793915624352_);stroke-width:2;stroke-miterlimit:10;" points="
					63.5,293.73 96.55,278.76 105.56,281.98 136.5,256.09 163.3,256.87 180.79,262.04 204.87,239.09 224,230.73 				"/>
			</g>
			<circle class="st38" cx="95.97" cy="279.55" r="3.75"/>
			<path class="st58" d="M202.2,382.9c0,7.65-6.2,13.86-13.86,13.86c-7.65,0-13.86-6.2-13.86-13.86c0-7.65,6.2-13.85,13.86-13.85
				C196,369.05,202.2,375.25,202.2,382.9z"/>
			<path class="st58" d="M112.71,382.9c0,7.65-6.2,13.86-13.86,13.86c-7.65,0-13.86-6.2-13.86-13.86c0-7.65,6.2-13.85,13.86-13.85
				C106.5,369.05,112.71,375.25,112.71,382.9z"/>
			<path class="st59" d="M157.45,382.9c0,7.65-6.2,13.86-13.86,13.86c-7.65,0-13.86-6.2-13.86-13.86c0-7.65,6.2-13.85,13.86-13.85
				C151.25,369.05,157.45,375.25,157.45,382.9z"/>
			<g class="st60">
				<path class="st38" d="M66.06,437.36c0.53,2.54,2.79,4.47,5.49,4.47h144.14c3.08,0,5.61-2.52,5.61-5.61v-26.95H66.06V437.36z"/>
			</g>
			
				<linearGradient id="SVGID_00000150062694507644727970000006539844645010297248_" gradientUnits="userSpaceOnUse" x1="66.0615" y1="409.2793" x2="111.3335" y2="409.2793">
				<stop  offset="0" style="stop-color:#85E5FF"/>
				<stop  offset="0.0226" style="stop-color:#85E3FF"/>
				<stop  offset="0.453" style="stop-color:#84BAFF"/>
				<stop  offset="0.7936" style="stop-color:#83A1FF"/>
				<stop  offset="1" style="stop-color:#8398FF"/>
			</linearGradient>
			
				<line style="fill:none;stroke:url(#SVGID_00000150062694507644727970000006539844645010297248_);stroke-width:2;stroke-miterlimit:10;" x1="66.06" y1="409.28" x2="111.33" y2="409.28"/>
			<line class="st62" x1="111.33" y1="409.28" x2="221.3" y2="409.28"/>
			<circle class="st38" cx="111.33" cy="409.28" r="2.89"/>
			<rect x="98.85" y="420.33" class="st30" width="92.17" height="4.83"/>
			<rect x="83.43" y="307.96" class="st30" width="61.34" height="4.83"/>
			<rect x="147.6" y="307.96" class="st30" width="19.51" height="4.83"/>
			<rect x="83.43" y="314.66" class="st30" width="51.01" height="3.2"/>
			<rect x="83.43" y="333.49" class="st30" width="61.34" height="4.83"/>
			<rect x="147.6" y="333.49" class="st30" width="19.51" height="4.83"/>
			<rect x="83.43" y="340.18" class="st30" width="51.01" height="3.2"/>
			<rect x="98.85" y="427.14" class="st30" width="48.98" height="2.57"/>
			<rect x="150" y="427.14" class="st30" width="48.98" height="2.57"/>
			<rect x="196.35" y="420.33" class="st30" width="14.23" height="4.83"/>
			<path class="st38" d="M96.08,356.91c-0.36,0.55-0.86,1.22-1.18,1.57c-0.22,0.24-0.34,0.51-0.34,0.51
				c0.27,0.41,1.35,1.38,2.33,1.79c0.45,0.28,0.77,0.23,1.41,0.98c1.67,1.62,3.93,2.45,4.61,1.58c0.13-0.17,0.29-0.33,0.15-0.61
				c-0.17-0.35-2.72-3.91-3.01-5.37c-0.08-0.43-0.47-0.25-1.83-0.04c-0.6,0.09-1.12-0.18-1.45-0.57
				C96.58,356.5,96.29,356.61,96.08,356.91z"/>
			<path class="st59" d="M98.85,369.05c7.65,0,13.86,6.21,13.86,13.85"/>
			<path class="st58" d="M143.6,396.76c-7.65,0-13.86-6.2-13.86-13.86c0-7.65,6.2-13.85,13.86-13.85"/>
			<path class="st58" d="M174.49,382.9c0-7.65,6.2-13.85,13.86-13.85"/>
			<path class="st59" d="M188.34,369.05c7.65,0,13.86,6.21,13.86,13.85c0,7.65-6.2,13.86-13.86,13.86c-7.65,0-13.86-6.2-13.86-13.86
				"/>
		</g>
		<g>
			<path class="st63" d="M455.77,436.82c0,5.89-46.56,10.66-103.99,10.66c-57.43,0-103.99-4.77-103.99-10.66
				c0-5.88,46.56-10.65,103.99-10.65C409.22,426.16,455.77,430.93,455.77,436.82z"/>
			<g>
				<path class="st64" d="M350.48,292.33c-5.92,13.41-20.9,38.42-31.23,52.28c-2.33,3.12-5.31,3.81-7.34,4.46
					c-4.36,1.4-61.27-21.11-83.05-22.55c-4.37-0.29-0.67-17.25,5.79-15.26c29.46,9.05,47.22,2.23,62.81,10.28
					c2.73-17.67,6.87-30.25,10.55-39.02c0.21-13.08-0.92-24.91,3.13-33.27v-6.39c8.61,2.17,21.3,6.87,59.96,4.54
					c21.71,36.1,21.71,54.2,28.62,71.1c2.48,6.07,1.59,10.97,1.66,15.97c0,0,2.66,78.6,2.84,80.14c-0.12,1.62-16.45,10.5-16.65,7.29
					c-0.18-2.85-2.81-27.45-6.12-44.94c-2.45-12.94-8.36-26.06-8.33-48.76C365.81,302.72,350.48,292.33,350.48,292.33z"/>
				<path class="st65" d="M298.09,323.06c4.35,5.29,16.15,14.47,16.15,19.59c0,3.12-2.01,5.93-5.99,5.98l3.66,0.45
					c0,0,3.74-0.69,5.54-2.58c1.8-1.88,9.89-13.53,9.89-13.53L298.09,323.06z"/>
				<path class="st64" d="M380,141.99c7.72,9.09,9.84,32.36,8.69,48.43c2.67,0.8,13.45-0.78,27.7-4.54
					c3.89-1.03,6.52,9.58,2.93,11.11c-1.08,0.46-28.9,15.43-42.71,10.2c-6.78-2.57-8.14-28.78-8.14-28.78s-0.24-21,0-21.71
					C368.71,155.98,380,141.99,380,141.99z"/>
				<path class="st64" d="M439.88,190.55c1.66-0.79,6.25-2.61,3.3-6.18c0.55-1.37-0.08-3.66-1.58-4.01c0.35-1.49-0.9-3.69-2.43-4.01
					c0.25-1.58-0.92-3.64-3.22-3.17c-4.9,1-8.67,2.72-10.96,3.67c-2.32,0.96-2.42,5.71-3.26,6.44c-1.97,1.59-14.32,5.54-14.32,5.54
					s8.16,9.97,11.93,8.15C427.66,192.97,434.24,193.24,439.88,190.55z"/>
				<g>
					<path class="st65" d="M384.27,205.34c-4.14-1.35-7.49-11.97-6.93-21c0.51-8.11,6.54-14.54,10.55-17.5l-11.51,5.95
						c0,0-4.38,7.09-7.34,12.09c0.88,7.94,2.99,20.57,7.58,22.32c9.46,3.59,25.49-2.31,35-6.53
						C398.58,205.41,387.89,206.52,384.27,205.34z"/>
				</g>
				<path class="st66" d="M226.96,326.78c10.74,1.92,21.36,3.28,30.95,6.19l5.19-16.85c0,0-14.91-0.07-27.15-5.98l-8.99,7.38V326.78
					z"/>
				<path class="st66" d="M387.38,421.02c0,0-2.4-19.14-3.43-26.11l19.8-1.99l0.46,22.16l-9.13,8.39L387.38,421.02z"/>
				<g>
					<polygon class="st46" points="405.31,414.61 405.32,414.61 405.32,414.61 					"/>
				</g>
				<path class="st64" d="M271.27,234.45c0.35,4.72-0.45,8.44,0.43,13.28c0.64,3.5,3.21,5.1,5.74,4.93
					c0.76,1.18,2.59,1.64,3.65,0.73c0.92,0.97,2.71,1.17,3.68,0.1c1.27,0.7,2.95,0.19,3.34-1.9c0.8-4.22-0.17-6.21-0.98-8.11
					c3.7-2.3,3-5.96,1.8-7.76c-1.38-2.08-3.19-3.85-4.12-5.38c-0.83-2.38-2.05-14.94-2.05-14.94l-14.56-9.27
					C268.2,206.13,270.75,230.39,271.27,234.45z"/>
				<path class="st64" d="M332.76,125.88c-2.94-3.26-19.93,10.37-39.64,19.93c-10.58,5.13-21.36,17.47-24.03,20.46
					c-6.4,7.15,1.67,60.65,1.86,61.89c0.55,3.65,13.39,0.31,12.88-3.24c-2.61-18.26,0.72-37.41,0.22-46.75
					c13.93-6.6,33.45-22.01,33.45-22.01L332.76,125.88z"/>
				<path class="st35" d="M387.33,419.44c-2-0.16-1.67,10.92-1.95,14.92c-0.13,1.81,0.71,2.47,2.05,3c1.29,0.53,5.53,0.89,7.84,0.46
					c0.93-0.17,1.31-1.15,1.41-1.26c1.19-1.36,3.38-1.5,6.06-0.83c9,3.34,34.69-0.1,34.71-6.15c0-1.12,0.29-2.88-1.19-3.61
					c-2.14-1.04-26.18-2.11-30.36-12.24c-0.92-2.24-2.82-0.44-8.34,4.23C393.31,421.54,390.53,420.33,387.33,419.44z"/>
				<g>
					<path class="st66" d="M400,433.32c4.37-0.16,16.37,3.4,31.05,0.59c3.62-0.69,6-3.25,6.4-4.33l0,0
						c-0.02,6.05-12.03,11.07-30.65,8.43c-3.2-0.46-11.41,2.77-21.37-0.81c-0.08-0.76-0.12-1.51-0.05-2.85
						c0.01-0.27,0.04-0.54,0.05-0.83l0.07-1.32C385.45,433.13,388.68,434.17,400,433.32z"/>
				</g>
				<path class="st67" d="M311.13,242.86c0,0-5.74,15.15-4.88,39.31c0.17,4.47-7.46,27.62-8.8,39.37c2.23,8.79,28.55,15.3,32.4,9.69
					c7.34-11.17,20.63-38.89,20.63-38.89s8.78,16.24,21.29,36.07c0,0,18.66-2.53,28.56-8.34c-2.4-12.96-7.4-29.36-12.62-42.8
					c-5.22-13.45-16.03-29.01-16.03-29.01s-12.19,0.9-27.11-0.32C319.77,245.89,311.13,242.86,311.13,242.86z"/>
				
					<linearGradient id="SVGID_00000000942639497339256720000009010480226244261305_" gradientUnits="userSpaceOnUse" x1="288.6277" y1="187.4179" x2="388.8365" y2="187.4179">
					<stop  offset="0" style="stop-color:#85E5FF"/>
					<stop  offset="0.0226" style="stop-color:#85E3FF"/>
					<stop  offset="0.453" style="stop-color:#84BAFF"/>
					<stop  offset="0.7936" style="stop-color:#83A1FF"/>
					<stop  offset="1" style="stop-color:#8398FF"/>
				</linearGradient>
				<path style="fill:url(#SVGID_00000000942639497339256720000009010480226244261305_);" d="M387.89,166.84
					c0,0,2.99-6.74-1.65-21.03c-0.77-2.38-3.42-4.87-6.49-7.09c0-0.05,0-0.09,0-0.09l-0.64-0.36c-5.33-3.71-11.6-6.54-11.6-6.54l0,0
					l-3.25-1.83l-9.31-4.79c0,0-8.44-0.48-19.06-0.19l0,0c0,0-4.33-1.01-10.75,0.95c-7.52,2.29-15.74,7.07-15.74,7.07
					s-17.66,12.16-20.45,14.26c-2.8,2.1,14.69,23.36,14.69,23.36l8.64-4.66l1.84,21.1c0,0-1.13,26.78-2.33,45.13
					c-3.14,5.9-0.45,8.1-0.64,10.72c20.08,8.35,54.83,8.66,60.55,5.39c-4.01-16.69,1.01-49.66,4.73-75.48L387.89,166.84z"/>
				<path class="st69" d="M312.25,165.83l9.58-4.12c0,0-5.5,18.57-4.4,26.31c1.53,10.82,13.22,18.4,12.29,19.86
					c-1.04,1.62-10.95-7.96-13.05-10.94c-2.1-2.97-4.83,34.1-4.83,34.1L314.1,187L312.25,165.83z"/>
				<path class="st69" d="M376.38,172.78c0,0,1.6-6.13,1.47-10.19c-0.13-4.07,0.12,5.14,2.07,5.93c1.6,0.66,7.98-1.69,7.98-1.69
					L376.38,172.78z"/>
				<path class="st69" d="M342.44,215.44c7.67,3.3,19.67,3.41,22.95,1.97c3.28-1.44-1.97,3.67-10.1,3.67
					C347.16,221.08,338.53,213.76,342.44,215.44z"/>
				<path class="st65" d="M289.31,150.27c2.51,7.21,6.14,17.96,3.08,20.32c-3.06,2.36-13.42,4.56-13.42,4.56s5.28,3.33,5.12,7.12
					l0.17-3.79c0,0,10.15-5.62,17.19-10.62L289.31,150.27z"/>
				<polygon class="st69" points="350.48,292.33 353.92,279.83 371.77,328.4 362.28,312.91 				"/>
				<path class="st65" d="M375.11,350.4c-1.02-6.46,2.57-20.13,10.47-22.18c10.1-2.62,15.01-7.1,15.01-7.1l-0.27-1.07
					c0,0-8.9,4.85-27.23,8.15C373.1,328.2,373.24,341.82,375.11,350.4z"/>
				<path class="st35" d="M240.38,310.37c-1.47-3.31-3.12-7.63-3.82-10.12c-0.49-1.75-1.51-2.08-2.94-2.14
					c-1.39-0.06-5.51,1.02-7.54,2.21c-0.81,0.48-0.85,1.52-0.91,1.67c-0.66,1.68-2.85,3.22-5.59,3.49
					c-9.6-0.12-31.3,11.91-29.28,17.61c0.4,1.14,0.68,2.3,2.37,2.5c2.1,0.25,26.21-1.06,33.84,1.94c2.26,0.89,2.54-1.44,5.6-8.39
					c1.34-3.05,4.17-4.67,6.92-5.03C240.84,313.88,241.2,312.21,240.38,310.37z"/>
				<g>
					<path class="st66" d="M223.72,306.6c-6.06,1.62-19.73,3.47-28.85,10.26c-2.96,2.2-4.55,5.08-4.56,6.23l0,0
						c-2.02-5.7,8.51-13.8,20.97-16.74c5.38-0.74,6.08-2.38,8.7-3.63c4.8-3.34,12.5-5.52,15.2-5.55c0,0,0.9,1.33,1.38,3.08
						c0.07,0.26,0.15,0.53,0.23,0.8l0.11,0.38C236.64,300.56,225.32,306.17,223.72,306.6z"/>
				</g>
				<path class="st69" d="M333.45,124.67c-0.68,1.21,1.49,4.98,12.53,7.36c11.54,2.49,16.39,0.39,17.89-2.34l-2.97-1.53l-25.02-3.25
					L333.45,124.67z"/>
				<path class="st64" d="M334.35,109.71c3.5,5.69,2.12,12.88,1.53,15.21c-0.49,1.93,10.82,5.52,18.67,5.67
					c3.14,0.06,6.35-1.31,6.35-2.42l-4.74-2.43c0,0-0.66-0.88,0-7.33L334.35,109.71z"/>
				<path class="st65" d="M356.09,120.62l-10.51-6.13c0,0-1.5,5.97,10.49,10.64L356.09,120.62z"/>
				<path class="st64" d="M364.15,91.19c1.91,10.22-4.82,20.05-15.04,21.97c-10.22,1.91-20.05-4.82-21.96-15.04
					c-1.91-10.22,4.82-20.05,15.04-21.96C352.4,74.25,362.23,80.97,364.15,91.19z"/>
				<path class="st64" d="M364.15,91.19c2.74,10.68,2.41,28.8-3.59,29.61c-4.97,0.67-14.54-2.35-17.57-8.07
					c-3.03-5.72-9.54-11.38-9.54-11.38"/>
				<path class="st64" d="M364.36,98.94c0,0,4.42,8.11,3.87,9.1c-0.54,0.99-4.36,1.51-4.36,1.51"/>
				<path d="M361.57,100.39c0.14,1.28-0.43,2.39-1.27,2.48c-0.84,0.09-1.63-0.87-1.77-2.15c-0.13-1.28,0.43-2.39,1.27-2.48
					C360.64,98.15,361.43,99.11,361.57,100.39z"/>
				<g>
					<path d="M360.43,94.37c-2.15,0.01-4.03,1.02-5.57,2.48c-0.33,0.29-0.85-0.11-0.64-0.5c0.77-1.74,2.61-2.98,4.52-3.02
						c0.64-0.03,1.26,0.07,1.88,0.33c0.19,0.08,0.27,0.29,0.2,0.48C360.75,94.31,360.59,94.38,360.43,94.37L360.43,94.37z"/>
				</g>
				<path class="st67" d="M364.01,90.53c0,0-1.33-5.8-4-6.66c-6.25,3.73-14.49-2.39-17.97,2.13c-2.87,3.72,3.39,6.29,3.38,14.59
					c0.3,1.34-1.87,1.66-2.36,0.99c-0.48-0.66,0.24-5.8-4-4.74c-2.55,0.63-3.19,7.07,1.84,10.14c1.09,2.02-4.84,3.39-4.45,9.24
					c-1.82-1.46-5.03-6.5-8.86-10.68c-6.48-7.1-7.72-18.18-2.53-21.92c-1.41-7.72,2.1-13.33,16.94-14.26
					c8.67-0.54,16.43-0.56,22.39-6.13C368.29,59.59,372.82,80.71,364.01,90.53z"/>
				<path class="st65" d="M336.87,102.82c0.72,2.95,3.32,5.39,5.82,5.09c2.15-0.26-0.24-1.85-0.96-4.8
					c-0.72-2.95,0.96-5.29-1.61-5.48C337.34,97.43,336.15,99.87,336.87,102.82z"/>
				<path class="st67" d="M271.27,234.45c3.43-4.46,10.53-5.54,13.54-4.11c0,0,0.63-3.29-0.97-5.43c0,0-5.31-1.11-10.03,1.41
					c-3.31,1.77-3.41,3.4-3.41,3.4S269.94,232.94,271.27,234.45z"/>
				<path class="st70" d="M271.99,231.41c1.57-1.51,3.87-2.67,6.12-3.08c0.44-0.07-0.02-2.23-0.7-2.12
					c-0.68,0.11-4.44,1.33-5.75,3.06C271.36,229.73,271.65,231.74,271.99,231.41z"/>
			</g>
		</g>
		<g>
			<path class="st63" d="M257.5,88.44c0,2.34-1.9,4.23-4.23,4.23c-2.34,0-4.24-1.9-4.24-4.23c0-2.34,1.9-4.24,4.24-4.24
				C255.6,84.2,257.5,86.1,257.5,88.44z"/>
			<path class="st63" d="M255.36,97.71c0,1.16-0.94,2.1-2.1,2.1c-1.16,0-2.1-0.94-2.1-2.1c0-1.16,0.94-2.1,2.1-2.1
				C254.42,95.62,255.36,96.56,255.36,97.71z"/>
			<rect x="249.03" y="59.99" class="st63" width="40.21" height="6.48"/>
			<rect x="249.03" y="68.88" class="st63" width="38.49" height="2.99"/>
			<rect x="249.03" y="73.51" class="st63" width="35.5" height="2.99"/>
			<rect x="249.03" y="78.15" class="st63" width="22.32" height="2.99"/>
		</g>
	</g>
</g>
</svg>
