<svg width="400" height="400" viewBox="0 0 400 400" fill="none" xmlns="http://www.w3.org/2000/svg">
    <g clip-path="url(#clip0_141_5522)">
        <g filter="url(#filter0_f_141_5522)">
            <ellipse cx="200.238" cy="242.857" rx="114.048" ry="110" fill="black"
                fill-opacity="0.5" />
        </g>
        <g id="head">
            <path
                d="M330.92 126.523C324.503 102.467 309.425 68.5231 255.576 43.1979C166.61 1.36422 106.608 90.2152 106.608 90.2152C82.6355 87.5778 69.6381 97.071 64.4407 119.394C59.9931 138.479 65.9921 175.768 69.2341 190.057L86.9654 287.238L104.079 200.994C120.907 144.263 146.482 121.157 146.482 121.157L227.781 114.492L313.997 278.976L330.773 181.643C332.898 169.3 333.787 156.721 333.111 144.195C332.721 136.967 332.023 130.673 330.92 126.523Z"
                fill="#1A1A1A" />
            <path
                d="M330.92 126.523C324.503 102.467 309.425 68.5231 255.576 43.1979C166.61 1.36422 106.608 90.2152 106.608 90.2152C82.6355 87.5778 69.6381 97.071 64.4407 119.394C59.9931 138.479 65.9921 175.768 69.2341 190.057L86.9654 287.238L104.079 200.994C120.907 144.263 146.482 121.157 146.482 121.157L227.781 114.492L313.997 278.976L330.773 181.643C332.898 169.3 333.787 156.721 333.111 144.195C332.721 136.967 332.023 130.673 330.92 126.523Z"
                fill="url(#paint0_linear_141_5522)" />
            <path
                d="M350 267.238C350 252.511 338.061 240.571 323.333 240.571H310C294.22 240.571 281.429 253.363 281.429 269.143V279.81C281.429 294.958 293.709 307.238 308.857 307.238H310C332.091 307.238 350 289.329 350 267.238Z"
                fill="#F3A396" />
            <path
                d="M350 267.238C350 252.511 338.061 240.571 323.333 240.571H310C294.22 240.571 281.429 253.363 281.429 269.143V279.81C281.429 294.958 293.709 307.238 308.857 307.238H310C332.091 307.238 350 289.329 350 267.238Z"
                fill="url(#paint1_linear_141_5522)" fill-opacity="0.2" />
            <g filter="url(#filter1_f_141_5522)">
                <ellipse cx="320.195" cy="274.014" rx="15.4762" ry="22.1429"
                    transform="rotate(21.7346 320.195 274.014)" fill="#D26665" fill-opacity="0.5" />
            </g>
            <path
                d="M50 267.238C50 252.511 61.9391 240.571 76.6667 240.571H90C105.78 240.571 118.571 253.363 118.571 269.143V279.81C118.571 294.958 106.291 307.238 91.1429 307.238H90C67.9086 307.238 50 289.329 50 267.238Z"
                fill="#F3A396" />
            <path
                d="M50 267.238C50 252.511 61.9391 240.571 76.6667 240.571H90C105.78 240.571 118.571 253.363 118.571 269.143V279.81C118.571 294.958 106.291 307.238 91.1429 307.238H90C67.9086 307.238 50 289.329 50 267.238Z"
                fill="url(#paint2_linear_141_5522)" fill-opacity="0.2" />
            <g filter="url(#filter2_f_141_5522)">
                <ellipse cx="15.4762" cy="22.1429" rx="15.4762" ry="22.1429"
                    transform="matrix(-0.928909 0.370307 0.370307 0.928909 85.9817 247.714)"
                    fill="#D26665" fill-opacity="0.5" />
            </g>
            <path
                d="M80.9524 205.869C80.9524 194.757 80.9524 189.202 81.4669 184.527C85.8603 144.613 117.375 113.098 157.289 108.705C161.964 108.19 167.519 108.19 178.631 108.19H220.893C232.004 108.19 237.56 108.19 242.235 108.705C282.149 113.098 313.664 144.613 318.057 184.527C318.571 189.202 318.571 194.757 318.571 205.869V249.857C318.571 315.474 265.379 368.667 199.762 368.667C134.145 368.667 80.9524 315.474 80.9524 249.857V205.869Z"
                fill="#F3A396" />
            <path
                d="M80.9524 205.869C80.9524 194.757 80.9524 189.202 81.4669 184.527C85.8603 144.613 117.375 113.098 157.289 108.705C161.964 108.19 167.519 108.19 178.631 108.19H220.893C232.004 108.19 237.56 108.19 242.235 108.705C282.149 113.098 313.664 144.613 318.057 184.527C318.571 189.202 318.571 194.757 318.571 205.869V249.857C318.571 315.474 265.379 368.667 199.762 368.667C134.145 368.667 80.9524 315.474 80.9524 249.857V205.869Z"
                fill="url(#paint3_linear_141_5522)" fill-opacity="0.2" />
            <g id="eyes">
                <g class="eye">
                    <path
                        d="M148.572 237.128C148.572 231.666 152.999 227.238 158.462 227.238H160.586C166.048 227.238 170.476 231.666 170.476 237.128V242C170.476 248.049 165.573 252.952 159.524 252.952C153.475 252.952 148.572 248.049 148.572 242V237.128Z"
                        fill="#1A1A1A" />
                </g>
                <g class="eye">
                    <path
                        d="M227.143 237.128C227.143 231.666 231.571 227.238 237.033 227.238H239.157C244.62 227.238 249.048 231.666 249.048 237.128V242C249.048 248.049 244.144 252.952 238.095 252.952C232.046 252.952 227.143 248.049 227.143 242V237.128Z"
                        fill="#1A1A1A" />
                </g>
            </g>
            <ellipse cx="198.333" cy="276.048" rx="15.9524" ry="5" fill="#D26665" />
            <path fill-rule="evenodd" clip-rule="evenodd"
                d="M151.753 203.749C149.273 204.276 147.069 205.151 143.839 206.874C140.358 208.73 136.031 207.414 134.175 203.933C132.319 200.452 133.635 196.125 137.116 194.269C141.029 192.182 144.539 190.677 148.785 189.775C152.9 188.901 157.374 188.667 163.097 188.667C167.041 188.667 170.239 191.865 170.239 195.81C170.239 199.754 167.041 202.952 163.097 202.952C157.629 202.952 154.365 203.194 151.753 203.749Z"
                fill="#1A1A1A" />
            <path fill-rule="evenodd" clip-rule="evenodd"
                d="M151.393 204.173C148.951 204.562 146.848 205.269 143.839 206.873C140.358 208.73 136.031 207.413 134.175 203.932C132.319 200.451 133.635 196.125 137.116 194.268C141.25 192.064 144.861 190.747 149.146 190.065C153.161 189.425 157.601 189.381 163.097 189.381C167.041 189.381 170.239 192.579 170.239 196.524C170.239 200.469 167.041 203.667 163.097 203.667C157.402 203.667 154.103 203.741 151.393 204.173Z"
                fill="#1A1A1A" />
            <path fill-rule="evenodd" clip-rule="evenodd"
                d="M245.629 203.749C248.109 204.276 250.313 205.151 253.543 206.874C257.024 208.73 261.351 207.414 263.207 203.933C265.064 200.452 263.747 196.125 260.266 194.269C256.353 192.182 252.843 190.677 248.597 189.775C244.483 188.901 240.008 188.667 234.286 188.667C230.341 188.667 227.143 191.865 227.143 195.81C227.143 199.754 230.341 202.952 234.286 202.952C239.754 202.952 243.017 203.194 245.629 203.749Z"
                fill="#1A1A1A" />
            <path fill-rule="evenodd" clip-rule="evenodd"
                d="M245.99 204.173C248.431 204.562 250.535 205.269 253.543 206.873C257.024 208.73 261.351 207.413 263.207 203.932C265.064 200.451 263.747 196.125 260.266 194.268C256.132 192.064 252.522 190.747 248.237 190.065C244.221 189.425 239.782 189.381 234.286 189.381C230.341 189.381 227.143 192.579 227.143 196.524C227.143 200.469 230.341 203.667 234.286 203.667C239.98 203.667 243.279 203.741 245.99 204.173Z"
                fill="#1A1A1A" />
            <path
                d="M303.48 103.44C300.528 104.451 205.403 77.2381 205.403 77.2381L121.917 103.44C121.917 103.44 121.939 103.509 121.961 103.57C48.5607 124.065 80.9098 195.81 80.9098 195.81C111.109 179.798 108.886 146.984 114.613 123.358C127.968 141.482 179.128 174.494 242.066 173.24C306.521 171.955 313.81 146.042 313.81 146.042C313.81 146.042 306.433 102.422 303.48 103.44Z"
                fill="#1A1A1A" />
            <path
                d="M303.48 103.44C300.528 104.451 205.403 77.2381 205.403 77.2381L121.917 103.44C121.917 103.44 121.939 103.509 121.961 103.57C48.5607 124.065 80.9098 195.81 80.9098 195.81C111.109 179.798 108.886 146.984 114.613 123.358C127.968 141.482 179.128 174.494 242.066 173.24C306.521 171.955 313.81 146.042 313.81 146.042C313.81 146.042 306.433 102.422 303.48 103.44Z"
                fill="url(#paint4_linear_141_5522)" />
            <path
                d="M243.83 298.473C242.284 296.776 223.123 295.81 198.431 295.81C173.738 295.81 154.578 296.776 153.032 298.473C151.299 299.572 162.174 338.564 198.431 338.564C234.693 338.564 245.563 299.578 243.83 298.473Z"
                fill="#613030" />
            <mask id="mask0_141_5522" style="mask-type:alpha" maskUnits="userSpaceOnUse" x="152"
                y="295"
                width="93" height="44">
                <path
                    d="M243.83 298.473C242.284 296.776 223.123 295.81 198.431 295.81C173.738 295.81 154.578 296.776 153.032 298.473C151.299 299.572 162.174 338.564 198.431 338.564C234.693 338.564 245.563 299.578 243.83 298.473Z"
                    fill="black" />
            </mask>
            <g mask="url(#mask0_141_5522)">
                <path
                    d="M237.809 325.023C227.936 340.482 213.262 355.21 197.169 354.558C179.699 353.912 166.836 339.908 159.046 326.557C172.67 314.618 208.733 301.085 237.809 325.023Z"
                    fill="#D23D25" />
                <path
                    d="M232.64 288.453C232.38 299.323 229.916 299.323 229.916 299.323C219.765 304.407 180.96 309.027 166.329 299.323C164.777 298.296 164.505 293.163 164.215 289.673C165 288.991 165.894 288.677 166.504 288.677C190.731 287.233 221.655 284.969 232.64 288.453Z"
                    fill="white" />
            </g>
        </g>
    </g>
    <defs>
        <filter id="filter0_f_141_5522" x="29.0476" y="75.7143" width="342.381" height="334.286"
            filterUnits="userSpaceOnUse" color-interpolation-filters="sRGB">
            <feFlood flood-opacity="0" result="BackgroundImageFix" />
            <feBlend mode="normal" in="SourceGraphic" in2="BackgroundImageFix" result="shape" />
            <feGaussianBlur stdDeviation="28.5714" result="effect1_foregroundBlur_141_5522" />
        </filter>
        <filter id="filter1_f_141_5522" x="294.118" y="243.133" width="52.1533" height="61.7628"
            filterUnits="userSpaceOnUse" color-interpolation-filters="sRGB">
            <feFlood flood-opacity="0" result="BackgroundImageFix" />
            <feBlend mode="normal" in="SourceGraphic" in2="BackgroundImageFix" result="shape" />
            <feGaussianBlur stdDeviation="4.7619" result="effect1_foregroundBlur_141_5522" />
        </filter>
        <filter id="filter2_f_141_5522" x="53.7286" y="243.133" width="52.1533" height="61.7628"
            filterUnits="userSpaceOnUse" color-interpolation-filters="sRGB">
            <feFlood flood-opacity="0" result="BackgroundImageFix" />
            <feBlend mode="normal" in="SourceGraphic" in2="BackgroundImageFix" result="shape" />
            <feGaussianBlur stdDeviation="4.7619" result="effect1_foregroundBlur_141_5522" />
        </filter>
        <linearGradient id="paint0_linear_141_5522" x1="198.095" y1="135.333" x2="198.095"
            y2="195.095" gradientUnits="userSpaceOnUse">
            <stop stop-color="#1A1A1A" />
            <stop offset="1" stop-color="#4A4A4A" />
        </linearGradient>
        <linearGradient id="paint1_linear_141_5522" x1="315.714" y1="288.896" x2="315.714"
            y2="307.238" gradientUnits="userSpaceOnUse">
            <stop stop-color="#F3A396" />
            <stop offset="1" stop-color="#D26665" />
        </linearGradient>
        <linearGradient id="paint2_linear_141_5522" x1="84.2857" y1="288.896" x2="84.2857"
            y2="307.238" gradientUnits="userSpaceOnUse">
            <stop stop-color="#F3A396" />
            <stop offset="1" stop-color="#D26665" />
        </linearGradient>
        <linearGradient id="paint3_linear_141_5522" x1="199.762" y1="297" x2="199.762" y2="368.667"
            gradientUnits="userSpaceOnUse">
            <stop stop-color="#F3A396" />
            <stop offset="1" stop-color="#D26665" />
        </linearGradient>
        <linearGradient id="paint4_linear_141_5522" x1="193.81" y1="136.762" x2="193.81" y2="195.81"
            gradientUnits="userSpaceOnUse">
            <stop stop-color="#1A1A1A" />
            <stop offset="1" stop-color="#4A4A4A" />
        </linearGradient>
        <clipPath id="clip0_141_5522">
            <rect width="400" height="400" fill="white" />
        </clipPath>
    </defs>
    <style>

        #head {
        animation: headAnimation 3s ease-in-out infinite;
        transform-origin: center;
        }

        @keyframes headAnimation {
        0%, 100% {
        transform: scale(100%);
        }
        50% {
        transform: scale(103%);
        }
        }

        .eye {
        animation: blinkAnimation 3s ease-in-out infinite;
        animation-delay: 2s;
        transform-origin: center;
        transform-box: fill-box;
        }

        @keyframes blinkAnimation {
        0%, 20%, 100% {
        transform: scaleY(1);
        }
        10% { /* Quick blink */
        transform: scaleY(0.1);
        }
        }

    </style>
</svg>